<svg version="1.1" id="Layer_1" xmlns="http://www.w3.org/2000/svg" xmlns:xlink="http://www.w3.org/1999/xlink" x="0px" y="0px"
	 width="100%" viewBox="0 0 1024 1024" enable-background="new 0 0 1024 1024" xml:space="preserve">
<path fill="#FEFEFE" opacity="1.000000" stroke="none" 
	d="
M598.000000,1025.000000 
	C398.666656,1025.000000 199.833328,1025.000000 1.000000,1025.000000 
	C1.000000,683.666687 1.000000,342.333344 1.000000,1.000000 
	C342.333344,1.000000 683.666687,1.000000 1025.000000,1.000000 
	C1025.000000,342.333344 1025.000000,683.666687 1025.000000,1025.000000 
	C882.833313,1025.000000 740.666687,1025.000000 598.000000,1025.000000 
M740.025391,152.453003 
	C678.474976,114.599426 611.482849,93.557686 539.564453,88.266327 
	C497.622131,85.180428 455.981506,88.167068 415.024261,97.901962 
	C295.745544,126.252632 203.783813,192.690308 141.079697,298.032379 
	C92.480247,379.678864 75.408699,468.319122 87.794952,562.627686 
	C95.483521,621.168091 113.631264,676.193542 144.618362,726.421021 
	C219.085846,847.126465 326.851135,916.836243 467.891144,933.623840 
	C517.978088,939.585449 567.664978,934.692749 616.491394,921.965454 
	C699.525818,900.321533 770.754028,858.637939 828.231934,794.759583 
	C887.755310,728.607727 923.471191,651.125000 935.206665,562.739197 
	C942.237183,509.789246 939.935425,457.276825 926.369751,405.617523 
	C897.839233,296.970398 835.419067,212.954880 740.025391,152.453003 
z"/>
<path fill="#0F7B46" opacity="1.000000" stroke="none" 
	d="
M740.328003,152.657043 
	C835.419067,212.954880 897.839233,296.970398 926.369751,405.617523 
	C939.935425,457.276825 942.237183,509.789246 935.206665,562.739197 
	C923.471191,651.125000 887.755310,728.607727 828.231934,794.759583 
	C770.754028,858.637939 699.525818,900.321533 616.491394,921.965454 
	C567.664978,934.692749 517.978088,939.585449 467.891144,933.623840 
	C326.851135,916.836243 219.085846,847.126465 144.618362,726.421021 
	C113.631264,676.193542 95.483521,621.168091 87.794952,562.627686 
	C75.408699,468.319122 92.480247,379.678864 141.079697,298.032379 
	C203.783813,192.690308 295.745544,126.252632 415.024261,97.901962 
	C455.981506,88.167068 497.622131,85.180428 539.564453,88.266327 
	C611.482849,93.557686 678.474976,114.599426 740.328003,152.657043 
M334.940033,798.071655 
	C336.951752,799.061340 338.963470,800.051025 341.289581,801.645203 
	C342.309082,802.474915 343.238922,803.458801 344.361298,804.111572 
	C367.729034,817.703125 392.637665,827.745239 418.442810,835.525635 
	C427.744629,838.330200 437.422302,839.888000 447.592163,842.430725 
	C457.177277,843.823242 466.762421,845.215759 477.299408,846.854797 
	C481.257355,847.234802 485.208374,847.835327 489.174347,847.959961 
	C520.958740,848.958923 552.580261,847.634094 583.597717,839.918335 
	C595.152954,837.043945 606.497620,833.322998 618.728210,829.983276 
	C619.533875,829.801331 620.357544,829.676575 621.142517,829.429077 
	C650.693359,820.112732 677.906860,806.113464 703.534363,788.785767 
	C728.055115,772.206360 749.639648,752.419067 769.241028,730.333069 
	C786.077332,711.362549 800.383118,690.633789 812.280884,668.284546 
	C829.731018,635.505371 841.776306,600.871887 847.000671,563.147217 
	C848.061707,553.464355 849.620667,543.804504 850.068054,534.093384 
	C850.754822,519.187744 850.691223,504.247101 850.883667,489.320526 
	C850.893494,488.553833 850.317688,487.779602 850.310852,486.295074 
	C850.199036,483.162018 850.087219,480.028992 849.966003,476.047089 
	C848.267090,465.635498 846.568237,455.223907 844.900818,444.013092 
	C842.607727,435.353577 840.314575,426.694092 838.010071,417.222321 
	C837.930359,416.396332 837.991455,415.526611 837.750549,414.750641 
	C828.388306,384.589996 815.542786,356.062958 797.526672,329.255554 
	C789.090637,318.042725 780.803650,306.712463 772.122925,295.692413 
	C769.688049,292.601349 766.094543,290.423096 762.953613,287.272827 
	C762.657471,286.827271 762.361389,286.381714 761.967224,285.239502 
	C760.529114,283.244110 759.391296,280.915009 757.604492,279.307037 
	C745.112610,268.065216 732.486450,256.972534 719.493042,245.346191 
	C714.330627,241.969833 709.168152,238.593460 703.760010,234.543243 
	C695.532959,229.332657 687.328735,224.085098 679.039673,218.975037 
	C678.301331,218.519882 677.012024,218.958649 675.375488,218.695511 
	C671.852722,216.257965 668.579224,213.294128 664.758911,211.484772 
	C654.609009,206.677612 644.282776,202.224564 633.904785,197.924988 
	C629.061157,195.918274 623.935486,194.592224 618.517944,192.398834 
	C606.917419,189.058426 595.410645,185.336258 583.696289,182.459351 
	C561.272461,176.952255 538.410156,174.415833 515.342163,174.083328 
	C506.395966,173.954407 497.418762,174.392212 488.490051,175.042908 
	C477.606720,175.836090 466.660706,176.531311 455.916687,178.319702 
	C430.838348,182.494141 406.404205,189.212021 382.970642,199.207138 
	C377.853546,201.389740 373.051086,204.309937 367.345612,206.965302 
	C364.894623,208.282318 362.443634,209.599335 359.240814,210.948944 
	C357.411713,211.711273 355.510803,212.337082 353.764099,213.256042 
	C318.180847,231.977051 286.233795,255.511108 258.336029,285.442505 
	C257.630096,286.364105 257.002319,287.359985 256.206879,288.196472 
	C236.122131,309.318085 220.373398,333.474609 206.983215,359.204590 
	C197.216263,377.972321 189.519684,397.614899 183.867264,418.030273 
	C176.988464,442.875183 172.669907,468.119202 171.916824,494.863373 
	C172.004944,504.516998 172.093063,514.170654 172.083008,524.749451 
	C172.409897,530.539551 172.163986,536.431152 173.168213,542.101318 
	C176.540710,561.143066 179.469421,580.331604 184.218887,599.045044 
	C191.015549,625.824646 201.325500,651.364807 215.982513,675.652100 
	C225.911148,690.071045 235.786499,704.527283 245.835449,718.861877 
	C247.098663,720.663757 249.276398,721.824585 250.987122,723.975830 
	C251.167755,724.602600 251.160538,725.403564 251.556519,725.830688 
	C261.210938,736.247131 270.756256,746.772095 280.672485,756.934875 
	C284.660797,761.022339 289.479614,764.299377 294.031891,768.634094 
	C301.137085,774.290771 308.039703,780.229858 315.410431,785.516296 
	C321.493011,789.878845 328.129547,793.468994 334.940033,798.071655 
z"/>
<path fill="#FBFDFC" opacity="1.000000" stroke="none" 
	d="
M251.030396,723.282410 
	C249.276398,721.824585 247.098663,720.663757 245.835449,718.861877 
	C235.786499,704.527283 225.911148,690.071045 216.385696,675.315125 
	C218.944290,676.155334 221.169861,677.221130 223.243744,678.527710 
	C236.623947,686.957642 250.147293,695.118164 265.606354,699.227539 
	C267.378296,699.698547 270.399353,699.413025 271.394196,698.245361 
	C279.816711,688.359802 291.205322,683.107788 302.679382,678.299683 
	C318.123077,671.828064 330.376343,661.280151 341.744141,649.515686 
	C348.112549,642.924988 353.658478,635.613831 356.341858,626.578735 
	C358.891693,617.993042 355.670563,608.174011 347.610413,604.902832 
	C333.968109,599.366150 319.857025,594.984558 305.676758,589.887024 
	C300.365051,577.655273 295.319641,565.653931 290.676636,553.779541 
	C298.802582,556.959351 306.478271,560.140686 314.260040,563.036987 
	C328.743683,568.427734 343.473358,573.203735 357.758148,579.069702 
	C372.716248,585.212158 381.815582,596.799622 384.021149,612.901978 
	C384.984009,619.931641 384.182953,627.202942 384.182953,634.227417 
	C386.212006,633.042480 388.770142,631.505066 391.368073,630.038269 
	C416.202942,616.015686 440.251221,600.880798 461.555176,581.699829 
	C468.610413,575.347717 476.219635,569.639648 486.400726,567.549866 
	C483.344635,560.854065 480.420593,554.550476 477.580902,548.209167 
	C459.226868,507.222900 440.823395,466.258636 422.583099,425.221832 
	C415.280212,408.791901 413.549438,391.648224 416.783539,373.930542 
	C419.455963,359.289856 425.088379,345.953674 433.476532,334.293427 
	C425.492706,323.835571 417.915924,313.529938 409.918823,303.561554 
	C403.996887,296.179840 397.975769,288.771027 391.173065,282.233612 
	C384.788696,276.098236 379.523468,277.506653 376.178345,285.743988 
	C373.880920,291.401398 372.374268,297.440155 371.083099,303.431061 
	C369.388519,311.293701 368.253632,319.277008 366.662415,328.451538 
	C363.474487,324.023529 361.013336,320.524658 358.469269,317.087219 
	C352.146393,308.544067 346.378876,299.493256 339.287476,291.640503 
	C330.753784,282.190643 321.748474,281.488556 311.150269,288.598541 
	C304.959290,292.751831 299.455017,297.925568 293.618927,302.611755 
	C287.006195,307.921570 280.662506,313.636383 273.654053,318.362823 
	C267.231750,322.693939 263.235046,320.996887 261.911713,313.326141 
	C260.304932,304.012634 259.825226,294.504700 258.857880,285.080872 
	C286.233795,255.511108 318.180847,231.977051 353.764099,213.256042 
	C355.510803,212.337082 357.411713,211.711273 359.798035,211.217987 
	C377.124695,227.188873 393.688110,243.119125 410.742737,258.504913 
	C420.612366,267.408813 430.036346,276.424530 434.796112,289.202759 
	C439.363617,301.464935 439.290222,314.213104 438.488342,327.351318 
	C441.700439,324.328278 444.770355,321.593262 447.620331,318.645599 
	C448.311584,317.930695 448.528839,316.517395 448.540161,315.420868 
	C448.733704,296.651459 444.076019,279.517273 431.388855,265.131317 
	C430.561920,264.193634 429.758423,263.235260 428.779724,262.095123 
	C430.135193,261.228912 431.086609,260.591736 432.065338,259.999725 
	C454.046783,246.703918 450.166626,246.617172 476.293182,255.593201 
	C486.386597,259.060883 495.890503,263.818848 503.492310,272.933777 
	C491.461853,283.279816 479.504395,293.563080 466.550842,304.702942 
	C473.427460,302.230621 479.220703,300.346832 484.846100,298.051666 
	C488.301147,296.642059 492.025543,295.186737 494.727234,292.751495 
	C511.802521,277.360199 528.925232,261.999420 545.457520,246.033371 
	C567.030151,225.199524 592.910461,212.076096 620.885010,202.665802 
	C625.247192,201.198425 630.832214,201.552994 635.382996,202.789810 
	C650.824646,206.986588 663.177856,216.105331 672.744934,228.878830 
	C679.265869,237.585342 687.614990,243.137360 698.500244,244.308044 
	C705.606995,245.072388 712.767090,245.341293 719.903259,245.832123 
	C732.486450,256.972534 745.112610,268.065216 757.604492,279.307037 
	C759.391296,280.915009 760.529114,283.244110 761.653381,285.657837 
	C760.448975,287.622925 759.408508,289.103455 758.691650,290.726929 
	C753.065857,303.467041 747.539978,316.251373 741.882996,328.977509 
	C740.894470,331.201416 739.434326,333.215729 737.892700,335.093323 
	C718.581177,327.909760 704.110352,314.867584 690.430237,300.486542 
	C682.208984,291.844086 673.528259,283.457306 664.089417,276.212372 
	C656.596252,270.460876 649.865723,272.337616 645.308105,280.663452 
	C641.429382,287.749115 638.570251,295.481934 635.998718,303.175354 
	C630.782837,318.779846 626.122864,334.569489 621.084778,350.234894 
	C620.322205,352.606140 618.759033,354.719879 617.079041,357.864746 
	C616.073547,355.287872 615.622681,353.898651 615.005920,352.587433 
	C608.572021,338.910065 602.818787,324.842682 595.363831,311.744537 
	C591.561890,305.064606 585.368164,299.197632 579.053833,294.621338 
	C568.954041,287.301544 552.060303,289.733429 544.841431,298.438446 
	C547.029907,299.316315 549.140503,300.212494 551.285767,301.016296 
	C604.896362,321.103577 628.218933,381.745270 604.219299,431.204803 
	C592.092896,456.195374 580.997437,481.686188 569.437012,506.951355 
	C566.444092,513.492432 563.455750,520.035522 559.959717,527.683655 
	C563.214783,526.264771 565.368896,525.466614 567.395325,524.421204 
	C595.636292,509.851471 623.923401,495.369324 652.070007,480.619141 
	C681.140076,465.384979 711.920776,457.634735 744.567322,462.218140 
	C759.641602,464.334442 771.147461,460.590759 782.690247,451.541290 
	C799.718384,438.191406 817.558655,425.861938 838.021423,418.034607 
	C840.314575,426.694092 842.607727,435.353577 844.524536,444.472412 
	C833.992737,450.915436 823.619446,456.563812 813.742126,462.976196 
	C803.694641,469.499084 794.269775,476.973938 784.323364,483.661682 
	C775.290894,489.734985 765.235046,491.986176 754.334290,490.313416 
	C721.129822,485.218048 689.819214,490.288391 660.347656,506.984802 
	C623.269348,527.990662 585.797119,548.266479 545.655640,563.061523 
	C544.032654,563.659729 542.365356,565.352905 541.628479,566.954529 
	C532.726685,586.301453 524.000977,605.729309 515.206177,625.125549 
	C514.824585,625.967224 514.218323,626.706970 513.556458,627.745728 
	C507.977936,615.479797 502.562225,603.571838 496.429718,590.087769 
	C491.823914,595.530701 487.807617,599.664734 484.490326,604.299072 
	C466.355072,629.634460 477.254181,664.735229 506.327698,674.026123 
	C509.801727,674.474670 512.912659,674.782288 516.412231,675.250000 
	C529.505920,675.730347 541.956848,677.132263 553.607422,682.854248 
	C571.192505,691.490845 580.357422,705.602783 579.885010,725.060547 
	C579.420288,744.203796 570.805420,758.960876 552.804626,766.910278 
	C545.243958,770.249146 537.231873,772.663513 529.276001,774.988159 
	C514.926086,779.181152 505.018097,788.288940 498.542938,801.491394 
	C497.079803,804.474609 495.651428,807.474915 494.182648,810.455383 
	C488.242798,822.508850 482.293396,834.557678 476.347534,846.608215 
	C466.762421,845.215759 457.177277,843.823242 447.379730,841.892090 
	C452.107971,832.124634 457.219513,822.982117 461.939270,813.641663 
	C466.286346,805.038635 470.012115,796.121521 474.364563,787.521423 
	C484.101471,768.282043 499.309662,755.402893 519.973022,749.015076 
	C526.167419,747.100220 532.349792,745.125671 538.452576,742.940735 
	C546.665466,740.000244 552.616211,732.069336 552.800171,724.216431 
	C552.972778,716.847168 547.987427,710.289368 539.422852,706.715820 
	C537.742310,706.014648 536.019165,705.167236 534.250244,704.967834 
	C525.188171,703.946167 516.104614,703.114319 506.646851,702.088074 
	C500.534729,700.194153 494.804291,698.428223 488.884644,696.390991 
	C461.532410,681.492737 448.343048,658.643311 448.782837,627.344360 
	C447.550903,628.024658 446.701904,628.440674 445.905640,628.940674 
	C401.217499,657.001953 355.135956,682.560059 307.971710,706.215088 
	C301.994781,709.212769 296.998535,714.109192 291.304230,717.744141 
	C286.352661,720.904907 281.340271,724.403564 275.846191,726.180481 
	C267.432526,728.901550 259.133728,725.845215 251.030396,723.282410 
M445.458374,340.993195 
	C427.258911,367.222687 423.374268,394.979187 436.622772,424.522247 
	C456.951721,469.854095 477.303070,515.175903 497.669464,560.490967 
	C502.816803,571.943726 508.057098,583.354675 513.594421,595.532104 
	C515.446167,591.478699 516.942993,588.171509 518.464661,584.875793 
	C543.405640,530.857117 568.352905,476.841309 593.291321,422.821411 
	C600.741943,406.682312 602.628723,389.831940 598.318237,372.657196 
	C589.730164,338.438995 567.717834,316.836151 533.569885,309.393158 
	C498.547363,301.759552 468.878998,312.437012 445.458374,340.993195 
z"/>
<path fill="#33AF43" opacity="1.000000" stroke="none" 
	d="
M258.596954,285.261688 
	C259.825226,294.504700 260.304932,304.012634 261.911713,313.326141 
	C263.235046,320.996887 267.231750,322.693939 273.654053,318.362823 
	C280.662506,313.636383 287.006195,307.921570 293.618927,302.611755 
	C299.455017,297.925568 304.959290,292.751831 311.150269,288.598541 
	C321.748474,281.488556 330.753784,282.190643 339.287476,291.640503 
	C346.378876,299.493256 352.146393,308.544067 358.469269,317.087219 
	C361.013336,320.524658 363.474487,324.023529 366.662415,328.451538 
	C368.253632,319.277008 369.388519,311.293701 371.083099,303.431061 
	C372.374268,297.440155 373.880920,291.401398 376.178345,285.743988 
	C379.523468,277.506653 384.788696,276.098236 391.173065,282.233612 
	C397.975769,288.771027 403.996887,296.179840 409.918823,303.561554 
	C417.915924,313.529938 425.492706,323.835571 433.476532,334.293427 
	C425.088379,345.953674 419.455963,359.289856 416.783539,373.930542 
	C413.549438,391.648224 415.280212,408.791901 422.583099,425.221832 
	C440.823395,466.258636 459.226868,507.222900 477.580902,548.209167 
	C480.420593,554.550476 483.344635,560.854065 486.400726,567.549866 
	C476.219635,569.639648 468.610413,575.347717 461.555176,581.699829 
	C440.251221,600.880798 416.202942,616.015686 391.368073,630.038269 
	C388.770142,631.505066 386.212006,633.042480 384.182953,634.227417 
	C384.182953,627.202942 384.984009,619.931641 384.021149,612.901978 
	C381.815582,596.799622 372.716248,585.212158 357.758148,579.069702 
	C343.473358,573.203735 328.743683,568.427734 314.260040,563.036987 
	C306.478271,560.140686 298.802582,556.959351 290.504028,553.539978 
	C284.924927,541.004517 279.920807,528.835693 274.586792,515.864624 
	C273.132568,518.755188 272.149170,520.665588 271.204987,522.595154 
	C268.525391,528.071350 265.861877,533.555359 262.819885,539.027405 
	C245.097397,530.291199 227.766861,521.524170 210.390045,512.849854 
	C197.634918,506.482605 184.819153,500.236847 172.030411,493.936981 
	C172.669907,468.119202 176.988464,442.875183 183.867264,418.030273 
	C189.519684,397.614899 197.216263,377.972321 206.983215,359.204590 
	C220.373398,333.474609 236.122131,309.318085 256.206879,288.196472 
	C257.002319,287.359985 257.630096,286.364105 258.596954,285.261688 
M388.996338,564.995178 
	C388.996338,564.995178 389.025330,565.020081 388.950867,565.796753 
	C385.355072,573.966675 386.378357,581.572754 392.615143,587.906982 
	C397.859711,593.233582 404.478607,594.974365 411.848755,592.872864 
	C420.431793,590.425476 427.437622,579.616028 425.664551,571.611877 
	C423.403412,561.404480 413.425751,553.428406 404.364532,555.332703 
	C400.444397,556.156555 397.638916,555.653137 394.926575,552.982239 
	C393.268799,551.349792 391.520782,549.803406 389.749786,548.292786 
	C385.718018,544.853638 381.881378,538.979370 377.542908,538.569824 
	C368.766113,537.741150 358.901367,533.583435 350.987732,542.756042 
	C346.561646,547.886230 340.493713,551.599915 334.535370,556.466675 
	C346.642395,561.531372 357.616882,566.293945 368.762604,570.614563 
	C370.602295,571.327759 373.278351,570.383484 375.417603,569.720459 
	C379.987640,568.304016 384.459198,566.569885 388.996338,564.995178 
M339.525757,437.076538 
	C328.030975,467.838379 316.536194,498.600220 304.972168,529.547302 
	C346.352814,529.547302 387.025391,529.547302 428.588684,529.547302 
	C408.310883,474.032654 388.301331,419.252502 368.291809,364.472351 
	C362.556091,376.574554 357.929657,388.485962 353.384430,400.428284 
	C348.830933,412.392426 344.358490,424.387482 339.525757,437.076538 
M240.181244,493.002502 
	C241.469925,492.715881 242.792313,492.532745 244.041870,492.125885 
	C252.354523,489.419312 257.175568,482.551849 257.068787,473.655487 
	C256.968323,465.288055 251.259155,458.263855 242.470612,455.694977 
	C235.313782,453.603058 226.234146,457.025116 222.003510,463.518250 
	C218.043976,469.595306 217.471756,476.221588 220.948669,482.430573 
	C224.816605,489.337769 230.892288,493.486084 240.181244,493.002502 
z"/>
<path fill="#274B2E" opacity="1.000000" stroke="none" 
	d="
M846.977783,563.989990 
	C841.776306,600.871887 829.731018,635.505371 812.280884,668.284546 
	C800.383118,690.633789 786.077332,711.362549 769.241028,730.333069 
	C749.639648,752.419067 728.055115,772.206360 703.534363,788.785767 
	C677.906860,806.113464 650.693359,820.112732 621.142517,829.429077 
	C620.357544,829.676575 619.533875,829.801331 618.359741,829.596558 
	C620.331543,821.936890 622.647461,814.656128 625.016418,807.392578 
	C633.930603,780.060303 642.859131,752.732666 651.787842,725.405090 
	C658.960876,703.451111 665.855469,681.400391 673.417969,659.581299 
	C678.628418,644.548279 683.044434,628.855225 690.835876,615.177795 
	C709.806885,581.875305 739.341370,564.540527 778.012634,564.037170 
	C800.997314,563.737976 823.989136,563.987305 846.977783,563.989990 
z"/>
<path fill="#33AF43" opacity="1.000000" stroke="none" 
	d="
M846.989258,563.568604 
	C823.989136,563.987305 800.997314,563.737976 778.012634,564.037170 
	C739.341370,564.540527 709.806885,581.875305 690.835876,615.177795 
	C683.044434,628.855225 678.628418,644.548279 673.417969,659.581299 
	C665.855469,681.400391 658.960876,703.451111 651.787842,725.405090 
	C642.859131,752.732666 633.930603,780.060303 625.016418,807.392578 
	C622.647461,814.656128 620.331543,821.936890 617.964844,829.598877 
	C606.497620,833.322998 595.152954,837.043945 583.597717,839.918335 
	C552.580261,847.634094 520.958740,848.958923 489.174347,847.959961 
	C485.208374,847.835327 481.257355,847.234802 476.823456,846.731506 
	C482.293396,834.557678 488.242798,822.508850 494.182648,810.455383 
	C495.651428,807.474915 497.079803,804.474609 498.542938,801.491394 
	C505.018097,788.288940 514.926086,779.181152 529.276001,774.988159 
	C537.231873,772.663513 545.243958,770.249146 552.804626,766.910278 
	C570.805420,758.960876 579.420288,744.203796 579.885010,725.060547 
	C580.357422,705.602783 571.192505,691.490845 553.607422,682.854248 
	C541.956848,677.132263 529.505920,675.730347 516.404907,674.850464 
	C517.196228,672.104980 517.833801,668.948303 519.670166,667.908264 
	C526.149963,664.238464 533.080505,661.373657 539.755371,658.034302 
	C542.355103,656.733704 543.863037,657.193359 545.538879,659.614136 
	C547.701599,662.738342 550.164246,665.752197 552.943542,668.333618 
	C560.776184,675.608948 571.515869,674.203857 577.399292,665.288452 
	C578.908081,663.002075 580.102844,660.508484 581.388428,658.205750 
	C589.049866,660.161194 593.846252,664.608032 596.202271,671.911194 
	C597.421387,675.689941 599.153137,679.332886 600.939087,682.893860 
	C606.790466,694.560913 618.049866,699.207092 630.561707,695.267029 
	C646.998352,690.091003 654.758545,670.649048 647.016724,654.005493 
	C647.006165,653.995667 647.008545,654.023010 647.236755,653.923523 
	C647.755310,653.630554 647.943787,653.364807 648.015198,653.013367 
	C648.000000,653.000000 648.027344,653.031067 648.258423,652.935913 
	C648.773987,652.636047 648.953979,652.362671 649.014771,652.010254 
	C649.000000,652.000000 649.021057,652.029480 649.251221,651.931396 
	C649.660767,651.559631 649.840210,651.285950 650.009827,651.007324 
	C650.000000,651.002441 650.018555,651.019104 650.304077,650.877747 
	C651.066467,649.830261 651.543213,648.924194 652.010010,648.010254 
	C652.000000,648.002441 652.017944,648.014160 652.263916,647.848511 
	C652.665771,647.124390 652.821533,646.565918 653.019531,645.792786 
	C653.061829,645.578125 653.056580,645.140625 653.322754,644.854980 
	C654.014587,641.631592 654.412170,638.689453 654.874146,635.757507 
	C655.339172,632.806396 655.490662,629.736938 656.440796,626.944336 
	C659.176697,618.903442 660.661743,610.928162 657.113098,602.463623 
	C657.078613,601.776672 657.033020,601.385193 657.001709,600.579102 
	C656.997070,598.782898 656.978210,597.401306 657.003906,595.667297 
	C657.057983,594.605042 657.067444,593.895264 657.329590,592.891541 
	C657.740356,591.054565 657.898438,589.511475 658.089111,587.776428 
	C658.121643,587.584412 658.083557,587.196716 658.324463,586.947632 
	C658.699585,585.802551 658.833740,584.906494 659.015625,583.713257 
	C659.072937,583.015320 659.082520,582.614624 659.335205,581.962891 
	C659.719116,580.806763 659.860046,579.901611 660.036682,578.782471 
	C660.072449,578.568359 660.055420,578.134583 660.298828,577.895874 
	C660.685852,576.774963 660.829529,575.892700 661.011353,574.788269 
	C661.049500,574.566101 661.045776,574.115234 661.301331,573.862549 
	C662.037903,571.739075 662.518921,569.868286 663.041931,567.797607 
	C663.083862,567.597717 663.079468,567.189148 663.312500,566.982361 
	C663.711426,566.187439 663.877258,565.599243 664.020630,565.006104 
	C663.998230,565.001038 664.026794,565.037292 664.264526,564.859253 
	C664.662231,564.122070 664.822266,563.562988 665.026611,562.808716 
	C665.070862,562.613647 665.068359,562.213562 665.281616,562.065491 
	C665.648804,561.614807 665.802734,561.312195 666.003662,560.806641 
	C666.050659,560.603699 666.060852,560.187195 666.275024,560.042358 
	C666.649597,559.599609 666.810059,559.301575 666.988892,559.002502 
	C667.007385,559.001404 666.993591,558.967163 667.233948,558.801270 
	C667.663025,558.094055 667.851807,557.552673 668.019531,557.005920 
	C667.998535,557.000488 668.024902,557.035095 668.270142,556.865479 
	C668.703613,556.142578 668.891724,555.589355 669.048096,555.017090 
	C669.016357,554.997986 669.044006,555.066772 669.277100,554.966309 
	C669.688171,554.583984 669.866150,554.302063 670.021973,554.010071 
	C669.999817,554.000000 670.021240,554.043884 670.244629,553.936768 
	C670.742249,553.618652 670.915039,553.343994 670.994995,553.004272 
	C671.003601,553.002930 671.005066,552.985596 671.220703,552.883484 
	C671.708984,552.585876 671.876465,552.323303 671.968140,551.993774 
	C671.997437,551.993896 671.977295,551.938843 672.229248,551.791626 
	C672.681396,551.111816 672.881653,550.579285 673.051575,550.019775 
	C673.021301,549.992859 673.053650,550.067139 673.294678,549.981750 
	C673.712769,549.615051 673.889893,549.333740 674.029541,549.038696 
	C673.992004,549.024902 674.047668,549.082214 674.341248,549.061157 
	C675.071594,548.687622 675.508423,548.335144 676.176331,547.888306 
	C676.704163,547.609497 676.903076,547.350098 677.233521,546.915771 
	C677.656372,546.550476 677.849915,546.285156 678.021362,546.010010 
	C677.999329,546.000183 678.019958,546.044006 678.256592,545.950073 
	C678.683716,545.584717 678.874329,545.313293 679.030762,545.029236 
	C678.996521,545.016541 679.037048,545.077209 679.329346,545.044922 
	C680.068359,544.669373 680.515015,544.326233 680.979858,543.993958 
	C680.998108,544.004822 680.993225,543.962708 681.226685,543.880859 
	C681.757202,543.617004 681.950867,543.357788 682.018433,543.012329 
	C681.995789,543.003357 682.017578,543.047058 682.308777,543.012817 
	C683.049988,542.644836 683.500000,542.311157 683.972595,541.990723 
	C683.995178,542.003967 683.990601,541.951843 684.224792,541.872498 
	C684.759583,541.616882 684.957825,541.361267 685.025513,541.016724 
	C684.997375,541.007202 685.020935,541.061829 685.317139,541.031799 
	C686.077576,540.669189 686.541809,540.336609 687.003052,540.002014 
	C687.000000,540.000000 687.002380,540.006165 687.252686,539.920044 
	C687.743652,539.580261 687.984192,539.326599 688.423462,539.068115 
	C688.622192,539.063354 689.007141,538.964111 689.248657,538.882080 
	C689.715149,538.549194 689.940063,538.298218 690.507446,538.011597 
	C692.903931,536.967407 694.957947,535.958801 697.257202,534.874756 
	C697.737244,534.554016 697.971924,534.308777 698.408325,534.067383 
	C698.609985,534.071167 699.004028,533.985046 699.302368,533.971863 
	C700.079773,533.647827 700.558899,533.336975 701.019348,533.012329 
	C701.000671,532.998535 701.010986,533.043762 701.320251,533.023193 
	C702.144165,532.692505 702.658813,532.382446 703.383362,532.070679 
	C703.593323,532.069031 704.003845,531.980408 704.307007,531.970703 
	C705.105957,531.653259 705.601868,531.345520 706.329590,531.031494 
	C706.561401,531.025269 707.016968,530.938049 707.265381,530.869019 
	C707.754639,530.558411 707.995483,530.316833 708.426086,530.089233 
	C708.615784,530.103149 708.988770,530.028015 709.302612,530.011658 
	C710.145142,529.692261 710.673828,529.389160 711.402222,529.092041 
	C711.601929,529.098022 711.992615,529.014160 712.304688,529.000732 
	C713.139648,528.684204 713.662537,528.381042 714.389893,528.082642 
	C714.594360,528.087280 714.995361,528.007385 715.307861,527.997437 
	C716.145203,527.686096 716.670105,527.384583 717.396484,527.088623 
	C717.597961,527.094055 717.992676,527.012390 718.307007,527.001343 
	C719.152405,526.690735 719.683533,526.391052 720.518677,526.091553 
	C721.223267,526.032227 721.623840,525.972656 722.272949,525.850342 
	C722.767090,525.553589 723.012817,525.319641 723.438232,525.107666 
	C723.618042,525.129700 723.972900,525.057190 724.320618,525.052979 
	C725.488708,524.717224 726.309021,524.385742 727.349182,524.056641 
	C727.568970,524.059082 728.001648,523.981873 728.372559,523.987854 
	C730.532898,523.344116 732.322327,522.694397 734.337769,522.045105 
	C734.563721,522.045593 735.008301,521.964600 735.378906,521.973267 
	C737.551758,521.343323 739.354126,520.704651 741.367920,520.072021 
	C741.579285,520.078003 741.995117,520.000916 742.309692,519.994629 
	C743.157837,519.692139 743.691467,519.395874 744.526489,519.101685 
	C745.225525,519.048157 745.623291,518.992615 746.468750,518.953979 
	C749.618530,518.992737 752.320435,519.014465 755.209961,519.075806 
	C755.397461,519.115479 755.780334,519.096008 755.994324,519.328552 
	C756.808472,519.713196 757.408691,519.865356 758.202515,520.058716 
	C758.396179,520.099915 758.791992,520.087891 759.003052,520.319336 
	C759.807800,520.704834 760.401489,520.858887 760.997559,521.006470 
	C761.000000,521.000000 760.989624,521.009460 761.201050,521.265564 
	C762.270325,521.700134 763.128174,521.878601 763.991760,522.028198 
	C763.997437,521.999268 763.951904,522.036682 764.126953,522.276917 
	C764.863831,522.664612 765.425598,522.812073 766.206909,523.002625 
	C766.426392,523.045715 766.873718,523.050537 767.067749,523.284180 
	C767.835632,523.661987 768.409485,523.806213 769.273499,524.004272 
	C769.955933,524.075684 770.348328,524.093262 771.020020,524.376099 
	C781.123047,527.553528 790.975952,529.844421 801.487183,526.042603 
	C806.258972,523.527527 811.582825,521.867859 814.859009,518.318298 
	C820.866638,511.809418 825.712036,504.218903 830.956055,497.016785 
	C835.684570,490.522766 841.200317,485.660004 850.014648,487.008850 
	C850.317688,487.779602 850.893494,488.553833 850.883667,489.320526 
	C850.691223,504.247101 850.754822,519.187744 850.068054,534.093384 
	C849.620667,543.804504 848.061707,553.464355 846.989258,563.568604 
z"/>
<path fill="#34AF44" opacity="1.000000" stroke="none" 
	d="
M838.015747,417.628479 
	C817.558655,425.861938 799.718384,438.191406 782.690247,451.541290 
	C771.147461,460.590759 759.641602,464.334442 744.567322,462.218140 
	C711.920776,457.634735 681.140076,465.384979 652.070007,480.619141 
	C623.923401,495.369324 595.636292,509.851471 567.395325,524.421204 
	C565.368896,525.466614 563.214783,526.264771 559.959717,527.683655 
	C563.455750,520.035522 566.444092,513.492432 569.437012,506.951355 
	C580.997437,481.686188 592.092896,456.195374 604.219299,431.204803 
	C628.218933,381.745270 604.896362,321.103577 551.285767,301.016296 
	C549.140503,300.212494 547.029907,299.316315 544.841431,298.438446 
	C552.060303,289.733429 568.954041,287.301544 579.053833,294.621338 
	C585.368164,299.197632 591.561890,305.064606 595.363831,311.744537 
	C602.818787,324.842682 608.572021,338.910065 615.005920,352.587433 
	C615.622681,353.898651 616.073547,355.287872 617.079041,357.864746 
	C618.759033,354.719879 620.322205,352.606140 621.084778,350.234894 
	C626.122864,334.569489 630.782837,318.779846 635.998718,303.175354 
	C638.570251,295.481934 641.429382,287.749115 645.308105,280.663452 
	C649.865723,272.337616 656.596252,270.460876 664.089417,276.212372 
	C673.528259,283.457306 682.208984,291.844086 690.430237,300.486542 
	C704.110352,314.867584 718.581177,327.909760 737.879089,335.466064 
	C737.853943,337.186401 737.673218,338.357605 737.212952,339.406067 
	C729.456726,357.072418 721.648438,374.715942 713.891968,392.382172 
	C711.263245,398.369354 708.745972,404.405487 706.038635,410.744904 
	C742.384277,410.744904 777.975220,410.744904 813.914490,410.744904 
	C813.660828,409.459900 813.628296,408.470490 813.272461,407.615662 
	C807.265808,393.186279 801.137146,378.807098 795.211487,364.344727 
	C791.628601,355.600067 788.346802,346.732056 785.212524,337.717834 
	C789.609192,334.951477 793.723145,332.386719 797.837036,329.821960 
	C815.542786,356.062958 828.388306,384.589996 837.750549,414.750641 
	C837.991455,415.526611 837.930359,416.396332 838.015747,417.628479 
M766.735718,438.040283 
	C772.329468,438.040283 777.923279,438.040283 783.517029,438.040283 
	C783.930847,437.570831 784.344604,437.101410 784.758423,436.631958 
	C783.477722,434.287415 782.627930,431.517242 780.823242,429.690399 
	C777.466919,426.292999 773.556641,423.442474 769.872437,420.369781 
	C767.009460,417.981934 754.916382,416.627411 752.312988,419.030762 
	C747.044739,423.894073 742.232910,429.251678 736.383606,435.280975 
	C740.453552,436.803314 743.426941,438.763916 746.469421,438.877686 
	C752.890076,439.117798 759.346924,438.391510 766.735718,438.040283 
M640.292175,465.568512 
	C641.466492,459.906586 639.506653,455.075134 634.715454,451.820404 
	C629.459290,448.249817 624.698303,448.228729 619.438599,451.752808 
	C614.972229,454.745300 612.760742,460.294159 613.916199,465.608856 
	C615.096985,471.040100 619.739441,475.546814 624.643005,476.022064 
	C632.398010,476.773651 636.880554,473.957336 640.292175,465.568512 
z"/>
<path fill="#33AF43" opacity="1.000000" stroke="none" 
	d="
M505.964569,673.885315 
	C477.254181,664.735229 466.355072,629.634460 484.490326,604.299072 
	C487.807617,599.664734 491.823914,595.530701 496.429718,590.087769 
	C502.562225,603.571838 507.977936,615.479797 513.556458,627.745728 
	C514.218323,626.706970 514.824585,625.967224 515.206177,625.125549 
	C524.000977,605.729309 532.726685,586.301453 541.628479,566.954529 
	C542.365356,565.352905 544.032654,563.659729 545.655640,563.061523 
	C585.797119,548.266479 623.269348,527.990662 660.347656,506.984802 
	C689.819214,490.288391 721.129822,485.218048 754.334290,490.313416 
	C765.235046,491.986176 775.290894,489.734985 784.323364,483.661682 
	C794.269775,476.973938 803.694641,469.499084 813.742126,462.976196 
	C823.619446,456.563812 833.992737,450.915436 844.508789,444.872009 
	C846.568237,455.223907 848.267090,465.635498 849.546265,476.502625 
	C845.142822,477.926117 840.993103,478.468811 837.208252,479.946198 
	C827.894348,483.581879 823.890015,492.340881 818.424316,499.819489 
	C814.283691,505.485046 809.588440,511.168488 803.972778,515.230225 
	C796.220642,520.837341 786.879333,519.609009 778.059692,517.406067 
	C770.701965,515.568359 763.503174,513.094543 755.893677,510.632172 
	C754.907288,510.237030 754.247192,509.954834 753.616882,510.010254 
	C737.183899,511.455902 720.655212,512.273071 704.366821,514.700684 
	C696.620544,515.855103 689.333252,520.089172 681.621094,522.943359 
	C681.404175,522.958496 680.982605,523.065369 680.752747,523.140869 
	C680.232849,523.395325 680.043457,523.649414 679.979126,523.987793 
	C680.003479,523.996887 679.982788,523.949097 679.690063,523.981934 
	C678.945190,524.348145 678.492981,524.681519 678.020874,525.004578 
	C678.000977,524.994324 678.004089,525.038940 677.771484,525.121094 
	C677.246033,525.388123 677.052795,525.647217 676.979736,525.990356 
	C677.000305,526.000000 676.980774,525.958923 676.744629,526.053711 
	C676.317139,526.418823 676.125732,526.689026 675.967102,526.951904 
	C675.999878,526.944519 675.938110,526.917847 675.623596,526.958069 
	C674.539490,527.662415 673.769958,528.326538 673.000183,528.995117 
	C673.000000,528.999695 672.991089,529.000000 672.764282,529.096436 
	C672.249023,529.384399 672.063965,529.648438 671.991211,529.992493 
	C672.000000,530.000000 671.984741,529.982361 671.756897,530.080688 
	C671.244080,530.378174 671.060852,530.646667 670.989746,530.992310 
	C671.000000,531.000000 670.984375,530.979492 670.756470,531.078735 
	C670.243896,531.377930 670.060791,531.647034 669.989624,531.992676 
	C670.000000,532.000000 669.985046,531.979126 669.757446,532.078979 
	C669.245850,532.379395 669.062866,532.648743 668.990479,532.993408 
	C669.000000,533.000000 668.986389,532.980896 668.759888,533.080933 
	C668.248413,533.381470 668.071350,533.652405 668.000977,533.996887 
	C668.000000,534.000000 667.994385,534.002930 667.712402,534.145264 
	C666.930664,535.174194 666.430908,536.060852 665.942505,536.975464 
	C665.953857,537.003418 665.964050,536.944275 665.731384,537.045715 
	C665.319702,537.428284 665.140686,537.709351 664.718384,538.149048 
	C664.264099,538.839355 664.053162,539.371033 663.562622,540.093262 
	C661.503967,544.174988 659.724915,548.066101 657.958740,551.972900 
	C657.971619,551.988525 657.958008,551.962646 657.715942,552.134338 
	C657.327881,552.868042 657.181824,553.430054 656.991394,554.205811 
	C656.946960,554.419495 656.937439,554.855957 656.703430,555.052856 
	C656.326721,555.829163 656.183960,556.408569 656.000671,557.213745 
	C655.960144,557.439453 655.958374,557.898132 655.710815,558.130249 
	C655.313965,559.240967 655.164673,560.119568 654.975220,561.212524 
	C654.935120,561.426880 654.943176,561.862854 654.679810,562.145630 
	C653.266663,570.624512 652.116882,578.820557 650.833374,587.314087 
	C650.555298,588.449036 650.411011,589.286560 650.191284,590.530396 
	C650.134094,592.596619 650.152344,594.256470 650.117371,596.177795 
	C650.038696,596.615417 650.013184,596.791504 649.732788,597.127502 
	C649.291687,597.844849 649.105530,598.402222 648.950256,598.982300 
	C648.981140,599.004944 648.951416,598.934204 648.717285,599.031250 
	C648.319946,599.417480 648.156738,599.706787 647.996765,599.998047 
	C648.000000,600.000000 647.994202,599.994385 647.722778,600.201782 
	C643.813660,608.900024 639.726257,617.233276 636.678162,625.930725 
	C634.160339,633.114929 633.417297,640.719482 636.974609,648.018311 
	C636.993530,647.994263 636.940918,648.026367 636.961670,648.327087 
	C637.306213,649.101685 637.630066,649.575562 637.975830,650.025452 
	C637.997620,650.001526 637.937988,650.026672 637.967041,650.318787 
	C638.337097,651.054016 638.678101,651.497131 639.009705,651.967651 
	C639.000305,651.995056 639.058167,651.996460 639.141235,652.219604 
	C639.411133,652.720581 639.667542,652.897339 639.993774,652.989868 
	C639.993835,653.006714 640.027161,653.001038 640.133545,653.292053 
	C639.482422,654.608521 638.785950,655.686401 637.956909,656.650269 
	C634.644348,660.501892 630.779053,663.992432 628.082031,668.229919 
	C624.731750,673.493835 622.783508,674.407532 617.665955,670.712158 
	C616.219971,669.667969 615.131104,668.120605 613.909180,666.776184 
	C608.081482,660.364441 602.578735,653.485291 592.596375,653.796448 
	C591.401917,653.833618 590.101624,652.948303 588.974182,652.281311 
	C576.972168,645.180725 576.979126,645.169067 571.587158,657.658813 
	C571.521179,657.811646 571.447998,657.961365 571.377075,658.112000 
	C568.230042,664.800232 561.986206,665.840820 557.057373,660.375732 
	C555.062134,658.163452 553.362427,655.680298 551.575684,653.285095 
	C546.112122,645.961060 543.457275,645.427002 535.287964,649.898743 
	C530.632263,652.447327 526.156982,655.681396 521.171814,657.193054 
	C512.483582,659.827454 507.920166,665.486694 505.964569,673.885315 
z"/>
<path fill="#34AF44" opacity="1.000000" stroke="none" 
	d="
M251.008759,723.629150 
	C259.133728,725.845215 267.432526,728.901550 275.846191,726.180481 
	C281.340271,724.403564 286.352661,720.904907 291.304230,717.744141 
	C296.998535,714.109192 301.994781,709.212769 307.971710,706.215088 
	C355.135956,682.560059 401.217499,657.001953 445.905640,628.940674 
	C446.701904,628.440674 447.550903,628.024658 448.782837,627.344360 
	C448.343048,658.643311 461.532410,681.492737 488.779205,696.733826 
	C480.794983,709.019531 470.935913,717.586182 456.900604,722.529480 
	C442.715607,727.525574 434.809509,739.341492 433.971954,754.991089 
	C433.987274,755.007202 433.985138,754.963013 433.756958,755.067627 
	C433.340149,755.442322 433.151581,755.712463 432.982239,755.991333 
	C433.001434,756.000122 432.981995,755.962708 432.748505,756.059570 
	C432.326111,756.427002 432.137207,756.697693 431.976746,756.979248 
	C432.005219,756.990051 431.972229,756.938904 431.679077,756.970215 
	C430.937134,757.339905 430.488342,757.678223 430.020386,758.006042 
	C430.001190,757.995544 430.006439,758.039001 429.776611,758.125854 
	C429.258392,758.399536 429.065430,758.657715 428.984619,758.994507 
	C429.001434,759.001709 428.987305,758.967896 428.752258,759.063416 
	C428.325195,759.428894 428.133179,759.698853 427.971863,759.979370 
	C428.002533,759.989929 427.973541,759.931824 427.679443,759.965820 
	C426.929535,760.336060 426.473724,760.672302 426.009094,761.003052 
	C426.000275,760.997559 426.003754,761.017700 425.766541,761.106506 
	C425.321136,761.456238 425.113007,761.717102 424.562164,762.029907 
	C423.238129,762.689758 422.242310,763.275696 421.277527,763.908875 
	C407.621033,772.871765 393.156494,775.307922 377.204498,770.734802 
	C370.341766,768.767395 362.842010,767.819153 355.728577,768.203125 
	C344.234314,768.823364 335.313660,774.376526 330.876648,785.716919 
	C330.378998,786.988953 329.277344,788.024719 328.163452,789.048950 
	C318.278595,782.404663 308.724884,775.822693 299.050659,769.422913 
	C297.634491,768.486084 295.644745,768.416321 293.920410,767.945312 
	C289.479614,764.299377 284.660797,761.022339 280.672485,756.934875 
	C270.756256,746.772095 261.210938,736.247131 251.556519,725.830688 
	C251.160538,725.403564 251.167755,724.602600 251.008759,723.629150 
M442.843475,693.208313 
	C443.965546,692.931885 445.160126,692.817200 446.197693,692.352234 
	C452.208099,689.658997 455.200043,683.521790 453.936829,676.666504 
	C453.076111,671.995605 447.740540,667.457458 442.532135,666.966248 
	C435.537811,666.306702 430.769745,669.109131 428.319794,675.319641 
	C424.627441,684.679504 430.791687,692.772949 442.843475,693.208313 
z"/>
<path fill="#32AF43" opacity="1.000000" stroke="none" 
	d="
M368.103699,206.890411 
	C373.051086,204.309937 377.853546,201.389740 382.970642,199.207138 
	C406.404205,189.212021 430.838348,182.494141 455.916687,178.319702 
	C466.660706,176.531311 477.606720,175.836090 488.490051,175.042908 
	C497.418762,174.392212 506.395966,173.954407 515.342163,174.083328 
	C538.410156,174.415833 561.272461,176.952255 583.696289,182.459351 
	C595.410645,185.336258 606.917419,189.058426 618.402100,192.840027 
	C595.635925,200.556717 574.380432,210.912338 555.378845,225.074982 
	C543.714050,233.769196 533.683533,244.653259 522.896240,254.528900 
	C518.652039,258.414368 514.345398,262.231567 509.771057,266.346222 
	C498.587982,253.262222 483.722412,247.636993 468.414124,242.665359 
	C458.177826,239.340942 448.312836,238.324280 438.781372,244.652206 
	C434.357452,247.589264 429.716949,250.202194 425.319855,253.176773 
	C422.848083,254.848892 420.991486,255.534149 418.362030,253.129486 
	C411.501953,246.855804 404.174927,241.090775 397.348053,234.783066 
	C387.455048,225.642334 377.838287,216.202606 368.103699,206.890411 
z"/>
<path fill="#33AE44" opacity="1.000000" stroke="none" 
	d="
M305.943054,590.117310 
	C319.857025,594.984558 333.968109,599.366150 347.610413,604.902832 
	C355.670563,608.174011 358.891693,617.993042 356.341858,626.578735 
	C353.658478,635.613831 348.112549,642.924988 341.744141,649.515686 
	C330.376343,661.280151 318.123077,671.828064 302.679382,678.299683 
	C291.205322,683.107788 279.816711,688.359802 271.394196,698.245361 
	C270.399353,699.413025 267.378296,699.698547 265.606354,699.227539 
	C250.147293,695.118164 236.623947,686.957642 223.243744,678.527710 
	C221.169861,677.221130 218.944290,676.155334 216.429352,674.951416 
	C201.325500,651.364807 191.015549,625.824646 184.218887,599.045044 
	C179.469421,580.331604 176.540710,561.143066 173.168213,542.101318 
	C172.163986,536.431152 172.409897,530.539551 172.465027,524.380371 
	C199.255920,537.439758 225.664810,550.868164 252.076599,564.661926 
	C241.172485,590.459229 230.265472,615.891235 219.268326,641.533447 
	C255.089615,641.533447 290.337982,641.533447 326.099365,641.533447 
	C321.001282,629.138489 316.064728,617.369629 311.331787,605.519409 
	C309.316223,600.472961 307.726349,595.256531 305.943054,590.117310 
M258.673035,668.268799 
	C270.644012,669.635071 282.578766,668.871460 294.699524,668.815674 
	C293.104218,659.290222 285.410034,649.399780 279.550018,649.057861 
	C275.118195,648.799255 269.744080,647.794373 266.383911,649.797058 
	C260.499420,653.304199 255.838760,658.864807 250.186462,664.000183 
	C253.506226,665.704651 255.712555,666.837463 258.673035,668.268799 
z"/>
<path fill="#34AE44" opacity="1.000000" stroke="none" 
	d="
M507.028564,702.216187 
	C516.104614,703.114319 525.188171,703.946167 534.250244,704.967834 
	C536.019165,705.167236 537.742310,706.014648 539.422852,706.715820 
	C547.987427,710.289368 552.972778,716.847168 552.800171,724.216431 
	C552.616211,732.069336 546.665466,740.000244 538.452576,742.940735 
	C532.349792,745.125671 526.167419,747.100220 519.973022,749.015076 
	C499.309662,755.402893 484.101471,768.282043 474.364563,787.521423 
	C470.012115,796.121521 466.286346,805.038635 461.939270,813.641663 
	C457.219513,822.982117 452.107971,832.124634 447.047882,841.684143 
	C437.422302,839.888000 427.744629,838.330200 418.442810,835.525635 
	C392.637665,827.745239 367.729034,817.703125 344.361298,804.111572 
	C343.238922,803.458801 342.309082,802.474915 341.152649,800.910645 
	C340.814026,798.371399 340.839020,796.505676 340.372284,794.772339 
	C338.086365,786.282654 339.148682,783.869202 347.186249,779.841125 
	C355.972473,775.437622 365.000244,776.305725 373.868073,779.144897 
	C395.228546,785.983765 414.131958,780.889343 431.532776,767.883240 
	C434.436798,765.712646 437.173889,763.318604 440.287292,760.999512 
	C441.066284,760.652954 441.546051,760.334595 442.012878,760.006897 
	C442.000000,759.997559 442.006134,760.028687 442.320007,760.011719 
	C443.167419,759.695923 443.700989,759.397095 444.535828,759.099121 
	C445.233978,759.040161 445.630920,758.980347 446.322266,758.924316 
	C447.094238,758.630798 447.571808,758.333374 448.019958,758.031067 
	C447.990570,758.026123 448.038696,758.062134 448.428894,758.049805 
	C453.245911,756.642395 457.710693,755.356628 462.093353,753.834412 
	C486.913635,745.213684 501.238220,727.421021 507.028564,702.216187 
z"/>
<path fill="#274C2F" opacity="1.000000" stroke="none" 
	d="
M784.929749,337.919464 
	C788.346802,346.732056 791.628601,355.600067 795.211487,364.344727 
	C801.137146,378.807098 807.265808,393.186279 813.272461,407.615662 
	C813.628296,408.470490 813.660828,409.459900 813.914490,410.744904 
	C777.975220,410.744904 742.384277,410.744904 706.038635,410.744904 
	C708.745972,404.405487 711.263245,398.369354 713.891968,392.382172 
	C721.648438,374.715942 729.456726,357.072418 737.212952,339.406067 
	C737.673218,338.357605 737.853943,337.186401 738.178345,335.699585 
	C739.434326,333.215729 740.894470,331.201416 741.882996,328.977509 
	C747.539978,316.251373 753.065857,303.467041 758.691650,290.726929 
	C759.408508,289.103455 760.448975,287.622925 761.702393,286.006165 
	C762.361389,286.381714 762.657471,286.827271 762.951660,287.938690 
	C767.810852,299.818420 772.619934,311.055237 777.555969,322.236023 
	C779.888428,327.519257 782.464233,332.695007 784.929749,337.919464 
z"/>
<path fill="#294B34" opacity="1.000000" stroke="none" 
	d="
M367.724670,206.927856 
	C377.838287,216.202606 387.455048,225.642334 397.348053,234.783066 
	C404.174927,241.090775 411.501953,246.855804 418.362030,253.129486 
	C420.991486,255.534149 422.848083,254.848892 425.319855,253.176773 
	C429.716949,250.202194 434.357452,247.589264 438.781372,244.652206 
	C448.312836,238.324280 458.177826,239.340942 468.414124,242.665359 
	C483.722412,247.636993 498.587982,253.262222 509.771057,266.346222 
	C514.345398,262.231567 518.652039,258.414368 522.896240,254.528900 
	C533.683533,244.653259 543.714050,233.769196 555.378845,225.074982 
	C574.380432,210.912338 595.635925,200.556717 618.611938,193.119446 
	C623.935486,194.592224 629.061157,195.918274 633.904785,197.924988 
	C644.282776,202.224564 654.609009,206.677612 664.758911,211.484772 
	C668.579224,213.294128 671.852722,216.257965 675.841187,219.130600 
	C683.605225,228.206604 691.328247,236.095901 704.005737,235.217102 
	C709.168152,238.593460 714.330627,241.969833 719.698120,245.589157 
	C712.767090,245.341293 705.606995,245.072388 698.500244,244.308044 
	C687.614990,243.137360 679.265869,237.585342 672.744934,228.878830 
	C663.177856,216.105331 650.824646,206.986588 635.382996,202.789810 
	C630.832214,201.552994 625.247192,201.198425 620.885010,202.665802 
	C592.910461,212.076096 567.030151,225.199524 545.457520,246.033371 
	C528.925232,261.999420 511.802521,277.360199 494.727234,292.751495 
	C492.025543,295.186737 488.301147,296.642059 484.846100,298.051666 
	C479.220703,300.346832 473.427460,302.230621 466.550842,304.702942 
	C479.504395,293.563080 491.461853,283.279816 503.492310,272.933777 
	C495.890503,263.818848 486.386597,259.060883 476.293182,255.593201 
	C450.166626,246.617172 454.046783,246.703918 432.065338,259.999725 
	C431.086609,260.591736 430.135193,261.228912 428.779724,262.095123 
	C429.758423,263.235260 430.561920,264.193634 431.388855,265.131317 
	C444.076019,279.517273 448.733704,296.651459 448.540161,315.420868 
	C448.528839,316.517395 448.311584,317.930695 447.620331,318.645599 
	C444.770355,321.593262 441.700439,324.328278 438.488342,327.351318 
	C439.290222,314.213104 439.363617,301.464935 434.796112,289.202759 
	C430.036346,276.424530 420.612366,267.408813 410.742737,258.504913 
	C393.688110,243.119125 377.124695,227.188873 360.173950,211.201691 
	C362.443634,209.599335 364.894623,208.282318 367.724670,206.927856 
z"/>
<path fill="#294A31" opacity="1.000000" stroke="none" 
	d="
M655.958374,557.898132 
	C655.958374,557.898132 655.960144,557.439453 656.246216,557.030151 
	C656.667297,556.032532 656.802368,555.444214 656.937378,554.855957 
	C656.937439,554.855957 656.946960,554.419495 657.232056,554.032898 
	C657.664185,553.085083 657.811096,552.523865 657.958008,551.962646 
	C657.958008,551.962646 657.971619,551.988525 658.308472,551.939880 
	C660.391235,549.347351 662.349365,546.915649 663.781677,544.205994 
	C664.378662,543.076538 663.855835,541.355042 663.842224,539.902771 
	C664.053162,539.371033 664.264099,538.839355 664.948242,538.042480 
	C665.602356,537.499634 665.783203,537.221924 665.963989,536.944275 
	C665.964050,536.944275 665.953857,537.003418 666.294922,536.944275 
	C667.088806,535.924438 667.541626,534.963684 667.994385,534.002930 
	C667.994385,534.002930 668.000000,534.000000 668.221497,533.889709 
	C668.717834,533.577026 668.898987,533.310852 668.986389,532.980896 
	C668.986389,532.980896 669.000000,533.000000 669.215515,532.890015 
	C669.712158,532.579773 669.896851,532.312805 669.985046,531.979126 
	C669.985046,531.979126 670.000000,532.000000 670.214966,531.890076 
	C670.711365,531.580139 670.896179,531.313293 670.984375,530.979492 
	C670.984375,530.979492 671.000000,531.000000 671.214844,530.890259 
	C671.711060,530.581482 671.896057,530.315430 671.984741,529.982361 
	C671.984741,529.982361 672.000000,530.000000 672.214722,529.891968 
	C672.708801,529.588684 672.895996,529.327393 672.991089,529.000000 
	C672.991089,529.000000 673.000000,528.999695 673.358276,528.994019 
	C674.457092,528.298157 675.197571,527.608032 675.938110,526.917847 
	C675.938110,526.917847 675.999878,526.944519 676.202759,526.858032 
	C676.597412,526.500610 676.789062,526.229736 676.980713,525.958923 
	C676.980774,525.958923 677.000305,526.000000 677.205444,525.896973 
	C677.693359,525.609070 677.891235,525.357422 678.004089,525.038940 
	C678.004089,525.038940 678.000977,524.994324 678.316223,524.977356 
	C679.081909,524.623291 679.532349,524.286194 679.982788,523.949097 
	C679.982788,523.949097 680.003479,523.996887 680.201416,523.899048 
	C680.680298,523.624451 680.874695,523.379211 680.982605,523.065369 
	C680.982605,523.065369 681.404175,522.958496 681.987305,522.995483 
	C683.360657,523.255310 684.308228,523.877197 684.916199,523.637512 
	C689.529297,521.818970 694.066528,519.809021 698.648315,517.909058 
	C700.312927,517.218750 701.995117,516.287537 703.735596,516.107300 
	C721.227112,514.295837 738.732483,512.617920 756.233948,510.902466 
	C763.503174,513.094543 770.701965,515.568359 778.059692,517.406067 
	C786.879333,519.609009 796.220642,520.837341 803.972778,515.230225 
	C809.588440,511.168488 814.283691,505.485046 818.424316,499.819489 
	C823.890015,492.340881 827.894348,483.581879 837.208252,479.946198 
	C840.993103,478.468811 845.142822,477.926117 849.550964,476.927063 
	C850.087219,480.028992 850.199036,483.162018 850.162720,486.651978 
	C841.200317,485.660004 835.684570,490.522766 830.956055,497.016785 
	C825.712036,504.218903 820.866638,511.809418 814.859009,518.318298 
	C811.582825,521.867859 806.258972,523.527527 801.006714,526.026123 
	C790.350098,525.378723 780.545349,524.744812 770.740662,524.110840 
	C770.348328,524.093262 769.955933,524.075684 769.091919,523.761108 
	C768.038025,523.326294 767.455872,523.188416 766.873718,523.050537 
	C766.873718,523.050537 766.426392,523.045715 766.033386,522.762207 
	C765.077576,522.331360 764.514709,522.184021 763.951904,522.036682 
	C763.951904,522.036682 763.997437,521.999268 763.797607,521.751587 
	C762.728394,521.339050 761.859009,521.174255 760.989624,521.009460 
	C760.989624,521.009460 761.000000,521.000000 760.812988,520.746094 
	C760.014648,520.357422 759.403320,520.222656 758.791992,520.087891 
	C758.791992,520.087891 758.396179,520.099915 758.013611,519.797729 
	C757.014160,519.362305 756.397217,519.229126 755.780334,519.096008 
	C755.780334,519.096008 755.397461,519.115479 754.980774,518.794678 
	C751.638184,517.185486 748.715088,515.949036 746.020996,518.937012 
	C745.623291,518.992615 745.225525,519.048157 744.198425,519.084167 
	C743.044434,519.376709 742.519775,519.688843 741.995117,520.000977 
	C741.995117,520.000916 741.579285,520.078003 740.963501,520.049194 
	C738.567932,520.668396 736.788086,521.316528 735.008301,521.964600 
	C735.008301,521.964600 734.563721,522.045593 733.937378,522.029053 
	C731.541260,522.669006 729.771423,523.325439 728.001648,523.981873 
	C728.001648,523.981873 727.568970,524.059082 726.991089,524.039368 
	C725.599792,524.365479 724.786316,524.711304 723.972900,525.057190 
	C723.972900,525.057190 723.618042,525.129700 723.177429,525.156006 
	C722.499390,525.425842 722.261902,525.669434 722.024475,525.913025 
	C721.623840,525.972656 721.223267,526.032227 720.190918,526.077271 
	C719.036987,526.379333 718.514832,526.695862 717.992676,527.012390 
	C717.992676,527.012390 717.597961,527.094055 717.071777,527.076904 
	C716.028809,527.375610 715.512085,527.691528 714.995361,528.007385 
	C714.995361,528.007385 714.594360,528.087280 714.065674,528.073120 
	C713.022156,528.377319 712.507385,528.695740 711.992615,529.014160 
	C711.992615,529.014160 711.601929,529.098022 711.074463,529.079834 
	C710.027588,529.383728 709.508179,529.705872 708.988770,530.028015 
	C708.988770,530.028015 708.615784,530.103149 708.166260,530.145264 
	C707.483459,530.437622 707.250244,530.687866 707.016968,530.938110 
	C707.016968,530.938049 706.561401,531.025269 706.020142,531.035522 
	C704.987183,531.357300 704.495483,531.668884 704.003845,531.980408 
	C704.003845,531.980408 703.593323,532.069031 703.059631,532.063599 
	C702.020935,532.386719 701.515991,532.715210 701.010986,533.043762 
	C701.010986,533.043762 701.000671,532.998535 700.717773,533.021912 
	C699.957886,533.358521 699.480957,533.671753 699.004028,533.984985 
	C699.004028,533.985046 698.609985,534.071167 698.152222,534.130737 
	C697.466919,534.443542 697.239380,534.696899 697.011841,534.950256 
	C694.957947,535.958801 692.903931,536.967407 690.257629,538.085083 
	C689.445923,538.450806 689.226562,538.707458 689.007202,538.964111 
	C689.007141,538.964111 688.622192,539.063354 688.157959,539.133179 
	C687.463257,539.470764 687.232788,539.738464 687.002380,540.006165 
	C687.002380,540.006165 687.000000,540.000000 686.700623,540.021973 
	C685.941101,540.383240 685.481018,540.722534 685.020935,541.061829 
	C685.020935,541.061829 684.997375,541.007202 684.797729,541.106323 
	C684.312805,541.386719 684.110291,541.635559 683.990601,541.951843 
	C683.990601,541.951843 683.995178,542.003967 683.678955,542.021057 
	C682.914307,542.374451 682.465942,542.710754 682.017578,543.047058 
	C682.017578,543.047058 681.995789,543.003357 681.792358,543.105347 
	C681.305969,543.392639 681.107422,543.644470 680.993225,543.962708 
	C680.993225,543.962708 680.998108,544.004822 680.683411,544.022705 
	C679.924805,544.386108 679.480957,544.731689 679.037048,545.077209 
	C679.037048,545.077209 678.996521,545.016541 678.794861,545.123169 
	C678.402100,545.501160 678.211060,545.772583 678.019958,546.044006 
	C678.019958,546.044006 677.999329,546.000183 677.791077,546.109009 
	C677.389954,546.483826 677.197083,546.749756 677.004211,547.015686 
	C676.903076,547.350098 676.704163,547.609497 675.882385,547.917664 
	C674.920776,548.388306 674.484253,548.735291 674.047668,549.082214 
	C674.047668,549.082214 673.992004,549.024902 673.794556,549.132263 
	C673.415894,549.515503 673.234802,549.791321 673.053711,550.067139 
	C673.053650,550.067139 673.021301,549.992859 672.790955,550.157837 
	C672.366150,550.861450 672.171753,551.400146 671.977295,551.938843 
	C671.977295,551.938843 671.997437,551.993896 671.762695,552.106628 
	C671.271423,552.418640 671.097107,552.674011 671.005066,552.985596 
	C671.005066,552.985596 671.003601,553.002930 670.775513,553.115601 
	C670.274963,553.437500 670.099609,553.709412 670.021240,554.043884 
	C670.021240,554.043884 669.999817,554.000000 669.790527,554.114502 
	C669.402100,554.508240 669.223022,554.787476 669.044006,555.066772 
	C669.044006,555.066772 669.016357,554.997986 668.782471,555.167175 
	C668.373962,555.902588 668.199402,556.468872 668.024902,557.035095 
	C668.024902,557.035095 667.998535,557.000488 667.766235,557.160767 
	C667.353821,557.869690 667.173706,558.418457 666.993591,558.967163 
	C666.993591,558.967163 667.007385,559.001404 666.763062,559.133301 
	C666.366089,559.572510 666.213440,559.879822 666.060852,560.187195 
	C666.060852,560.187195 666.050659,560.603699 665.778931,560.940796 
	C665.360901,561.589783 665.214661,561.901672 665.068359,562.213562 
	C665.068359,562.213562 665.070862,562.613647 664.782349,562.980469 
	C664.338135,563.910583 664.182434,564.473938 664.026794,565.037292 
	C664.026794,565.037292 663.998230,565.001038 663.754639,565.183105 
	C663.367126,565.973206 663.223328,566.581177 663.079468,567.189148 
	C663.079468,567.189148 663.083862,567.597717 662.713745,567.976074 
	C661.910950,570.274719 661.478333,572.195007 661.045776,574.115234 
	C661.045776,574.115234 661.049500,574.566101 660.748291,575.005737 
	C660.316467,576.341797 660.185913,577.238159 660.055420,578.134583 
	C660.055420,578.134583 660.072449,578.568359 659.765259,579.005676 
	C659.336121,580.366638 659.214111,581.290283 659.092102,582.213928 
	C659.082520,582.614624 659.072937,583.015320 658.751221,583.936401 
	C658.320557,585.370056 658.202026,586.283386 658.083557,587.196716 
	C658.083557,587.196716 658.121643,587.584412 657.795349,588.032166 
	C657.338379,590.048462 657.207642,591.616943 657.076904,593.185486 
	C657.067444,593.895264 657.057983,594.605042 656.742432,595.898682 
	C656.620117,597.986267 656.803833,599.489990 656.987488,600.993774 
	C657.033020,601.385193 657.078613,601.776672 657.079163,602.900208 
	C657.001709,608.399536 655.961670,612.309082 650.540222,613.940613 
	C649.028931,614.395508 647.492432,616.712769 647.077271,618.442139 
	C646.308472,621.644104 647.397705,625.680054 645.840027,628.219971 
	C643.025452,632.809448 643.709534,637.029053 645.056885,641.434570 
	C645.997131,644.508911 647.838623,644.990662 649.859497,642.056091 
	C650.348938,641.345337 650.911194,640.684631 652.378784,638.786926 
	C652.701904,641.815552 652.879272,643.478088 653.056580,645.140625 
	C653.056580,645.140625 653.061829,645.578125 652.777283,645.961792 
	C652.334473,646.901672 652.176208,647.457947 652.017944,648.014160 
	C652.017944,648.014160 652.000000,648.002441 651.661743,648.055786 
	C650.888550,649.079102 650.453552,650.049133 650.018555,651.019104 
	C650.018555,651.019104 650.000000,651.002441 649.784424,651.111755 
	C649.287354,651.423462 649.104736,651.692932 649.021057,652.029480 
	C649.021057,652.029480 649.000000,652.000000 648.787476,652.111267 
	C648.290588,652.423096 648.108032,652.692566 648.027344,653.031067 
	C648.027344,653.031067 648.000000,653.000000 647.786804,653.111938 
	C647.288818,653.422119 647.100464,653.688477 647.008545,654.023010 
	C647.008545,654.023010 647.006165,653.995667 646.655151,654.003784 
	C644.211792,653.674988 642.119507,653.338013 640.027161,653.001038 
	C640.027161,653.001038 639.993835,653.006714 639.893127,652.779602 
	C639.605957,652.290161 639.361206,652.104797 639.058167,651.996460 
	C639.058167,651.996460 639.000305,651.995056 638.980225,651.674683 
	C638.619446,650.911743 638.278748,650.469177 637.937988,650.026672 
	C637.937988,650.026672 637.997620,650.001526 637.971191,649.718262 
	C637.610107,648.965454 637.275513,648.495911 636.940918,648.026367 
	C636.940918,648.026367 636.993530,647.994263 636.990601,647.592163 
	C635.182434,642.014404 637.172791,637.408997 638.934998,632.667053 
	C640.688660,627.947876 641.230530,622.625977 643.675232,618.353027 
	C647.031738,612.486328 647.780151,606.396301 647.994202,599.994385 
	C647.994202,599.994385 648.000000,600.000000 648.219482,599.885254 
	C648.715881,599.556763 648.886719,599.278015 648.951416,598.934204 
	C648.951416,598.934204 648.981140,599.004944 649.216187,598.833618 
	C649.630127,598.097351 649.808960,597.532410 649.987793,596.967529 
	C650.013184,596.791504 650.038696,596.615417 650.355347,595.929321 
	C650.519958,593.654297 650.393372,591.889160 650.266724,590.124023 
	C650.411011,589.286560 650.555298,588.449036 651.126831,587.045288 
	C652.683899,578.273682 653.813538,570.068237 654.943176,561.862854 
	C654.943176,561.862854 654.935120,561.426880 655.239258,560.997559 
	C655.681702,559.678223 655.820007,558.788208 655.958374,557.898132 
M687.041321,528.233826 
	C684.700256,529.231812 682.359192,530.229858 680.018066,531.227844 
	C680.282166,531.762756 680.546265,532.297668 680.810364,532.832581 
	C683.764587,532.843262 686.557495,532.535034 687.041321,528.233826 
z"/>
<path fill="#FBFDFB" opacity="1.000000" stroke="none" 
	d="
M252.073700,564.296631 
	C225.664810,550.868164 199.255920,537.439758 172.514099,523.917786 
	C172.093063,514.170654 172.004944,504.516998 171.973618,494.400177 
	C184.819153,500.236847 197.634918,506.482605 210.390045,512.849854 
	C227.766861,521.524170 245.097397,530.291199 262.806732,539.411377 
	C259.468353,547.968323 255.771027,556.132507 252.073700,564.296631 
z"/>
<path fill="#284C31" opacity="1.000000" stroke="none" 
	d="
M446.027832,758.920532 
	C445.630920,758.980347 445.233978,759.040161 444.205170,759.082886 
	C443.050903,759.386719 442.528534,759.707703 442.006165,760.028687 
	C442.006134,760.028687 442.000000,759.997559 441.708435,760.022034 
	C440.940613,760.373657 440.464355,760.700745 439.988098,761.027832 
	C437.173889,763.318604 434.436798,765.712646 431.532776,767.883240 
	C414.131958,780.889343 395.228546,785.983765 373.868073,779.144897 
	C365.000244,776.305725 355.972473,775.437622 347.186249,779.841125 
	C339.148682,783.869202 338.086365,786.282654 340.372284,794.772339 
	C340.839020,796.505676 340.814026,798.371399 340.995453,800.608398 
	C338.963470,800.051025 336.951752,799.061340 334.498260,797.583862 
	C332.189575,794.454102 330.322662,791.812073 328.455750,789.170044 
	C329.277344,788.024719 330.378998,786.988953 330.876648,785.716919 
	C335.313660,774.376526 344.234314,768.823364 355.728577,768.203125 
	C362.842010,767.819153 370.341766,768.767395 377.204498,770.734802 
	C393.156494,775.307922 407.621033,772.871765 421.277527,763.908875 
	C422.242310,763.275696 423.238129,762.689758 424.800323,761.939697 
	C425.588715,761.537598 425.796265,761.277649 426.003784,761.017700 
	C426.003754,761.017700 426.000275,760.997559 426.308228,760.977539 
	C427.068665,760.615601 427.521118,760.273743 427.973541,759.931824 
	C427.973541,759.931824 428.002533,759.989929 428.205750,759.882812 
	C428.601715,759.506470 428.794495,759.237183 428.987305,758.967896 
	C428.987305,758.967896 429.001434,759.001709 429.208282,758.897888 
	C429.694824,758.607056 429.891937,758.355347 430.006439,758.039001 
	C430.006439,758.039001 430.001190,757.995544 430.315857,757.977417 
	C431.077759,757.619141 431.524994,757.278992 431.972229,756.938904 
	C431.972229,756.938904 432.005219,756.990051 432.209473,756.881958 
	C432.603119,756.503418 432.792542,756.233032 432.981995,755.962708 
	C432.981995,755.962708 433.001434,756.000122 433.211945,755.888428 
	C433.610016,755.505554 433.797577,755.234253 433.985138,754.963013 
	C433.985138,754.963013 433.987274,755.007202 434.336853,754.960571 
	C435.490448,753.995422 436.248718,753.030823 437.112366,752.172241 
	C437.862610,751.426331 438.676849,750.313660 439.559235,750.213501 
	C442.116119,749.923523 447.726044,755.320740 448.038696,758.062134 
	C448.038696,758.062134 447.990570,758.026123 447.723938,758.035583 
	C446.980835,758.336914 446.504333,758.628723 446.027832,758.920532 
z"/>
<path fill="#F6FBF8" opacity="1.000000" stroke="none" 
	d="
M785.212524,337.717834 
	C782.464233,332.695007 779.888428,327.519257 777.555969,322.236023 
	C772.619934,311.055237 767.810852,299.818420 762.991089,288.215332 
	C766.094543,290.423096 769.688049,292.601349 772.122925,295.692413 
	C780.803650,306.712463 789.090637,318.042725 797.681885,329.538757 
	C793.723145,332.386719 789.609192,334.951477 785.212524,337.717834 
z"/>
<path fill="#E8F7EF" opacity="1.000000" stroke="none" 
	d="
M328.163452,789.048950 
	C330.322662,791.812073 332.189575,794.454102 334.288544,797.248779 
	C328.129547,793.468994 321.493011,789.878845 315.410431,785.516296 
	C308.039703,780.229858 301.137085,774.290771 293.976135,768.289673 
	C295.644745,768.416321 297.634491,768.486084 299.050659,769.422913 
	C308.724884,775.822693 318.278595,782.404663 328.163452,789.048950 
z"/>
<path fill="#31A849" opacity="1.000000" stroke="none" 
	d="
M703.882874,234.880157 
	C691.328247,236.095901 683.605225,228.206604 676.142761,219.273956 
	C677.012024,218.958649 678.301331,218.519882 679.039673,218.975037 
	C687.328735,224.085098 695.532959,229.332657 703.882874,234.880157 
z"/>
<path fill="#284C30" opacity="1.000000" stroke="none" 
	d="
M445.681976,340.713440 
	C468.878998,312.437012 498.547363,301.759552 533.569885,309.393158 
	C567.717834,316.836151 589.730164,338.438995 598.318237,372.657196 
	C602.628723,389.831940 600.741943,406.682312 593.291321,422.821411 
	C568.352905,476.841309 543.405640,530.857117 518.464661,584.875793 
	C516.942993,588.171509 515.446167,591.478699 513.594421,595.532104 
	C508.057098,583.354675 502.816803,571.943726 497.669464,560.490967 
	C477.303070,515.175903 456.951721,469.854095 436.622772,424.522247 
	C423.374268,394.979187 427.258911,367.222687 445.681976,340.713440 
M465.003571,368.590698 
	C460.365631,379.118347 459.008484,390.019409 461.607941,401.266296 
	C468.383514,430.581818 497.255341,448.709259 527.304565,441.823975 
	C548.174255,437.042023 562.173035,423.889252 567.425720,403.011810 
	C572.547974,382.653076 567.287781,364.595428 551.487671,350.434906 
	C524.343445,326.107513 482.491425,334.711426 465.003571,368.590698 
z"/>
<path fill="#274C2E" opacity="1.000000" stroke="none" 
	d="
M252.076584,564.661926 
	C255.771027,556.132507 259.468353,547.968323 263.178864,539.420288 
	C265.861877,533.555359 268.525391,528.071350 271.204987,522.595154 
	C272.149170,520.665588 273.132568,518.755188 274.586792,515.864624 
	C279.920807,528.835693 284.924927,541.004517 290.101624,553.412964 
	C295.319641,565.653931 300.365051,577.655273 305.676758,589.886963 
	C307.726349,595.256531 309.316223,600.472961 311.331787,605.519409 
	C316.064728,617.369629 321.001282,629.138489 326.099365,641.533447 
	C290.337982,641.533447 255.089615,641.533447 219.268326,641.533447 
	C230.265472,615.891235 241.172485,590.459229 252.076584,564.661926 
z"/>
<path fill="#264D2E" opacity="1.000000" stroke="none" 
	d="
M640.133545,653.292053 
	C642.119507,653.338013 644.211792,653.674988 646.665649,654.013672 
	C654.758545,670.649048 646.998352,690.091003 630.561707,695.267029 
	C618.049866,699.207092 606.790466,694.560913 600.939087,682.893860 
	C599.153137,679.332886 597.421387,675.689941 596.202271,671.911194 
	C593.846252,664.608032 589.049866,660.161194 581.388428,658.205750 
	C580.102844,660.508484 578.908081,663.002075 577.399292,665.288452 
	C571.515869,674.203857 560.776184,675.608948 552.943542,668.333618 
	C550.164246,665.752197 547.701599,662.738342 545.538879,659.614136 
	C543.863037,657.193359 542.355103,656.733704 539.755371,658.034302 
	C533.080505,661.373657 526.149963,664.238464 519.670166,667.908264 
	C517.833801,668.948303 517.196228,672.104980 516.016235,674.690430 
	C512.912659,674.782288 509.801727,674.474670 506.327698,674.026123 
	C507.920166,665.486694 512.483582,659.827454 521.171814,657.193054 
	C526.156982,655.681396 530.632263,652.447327 535.287964,649.898743 
	C543.457275,645.427002 546.112122,645.961060 551.575684,653.285095 
	C553.362427,655.680298 555.062134,658.163452 557.057373,660.375732 
	C561.986206,665.840820 568.230042,664.800232 571.377075,658.112000 
	C571.447998,657.961365 571.521179,657.811646 571.587158,657.658813 
	C576.979126,645.169067 576.972168,645.180725 588.974182,652.281311 
	C590.101624,652.948303 591.401917,653.833618 592.596375,653.796448 
	C602.578735,653.485291 608.081482,660.364441 613.909180,666.776184 
	C615.131104,668.120605 616.219971,669.667969 617.665955,670.712158 
	C622.783508,674.407532 624.731750,673.493835 628.082031,668.229919 
	C630.779053,663.992432 634.644348,660.501892 637.956909,656.650269 
	C638.785950,655.686401 639.482422,654.608521 640.133545,653.292053 
z"/>
<path fill="#274D2E" opacity="1.000000" stroke="none" 
	d="
M448.428894,758.049805 
	C447.726044,755.320740 442.116119,749.923523 439.559235,750.213501 
	C438.676849,750.313660 437.862610,751.426331 437.112366,752.172241 
	C436.248718,753.030823 435.490448,753.995422 434.321533,754.944458 
	C434.809509,739.341492 442.715607,727.525574 456.900604,722.529480 
	C470.935913,717.586182 480.794983,709.019531 488.968384,697.005188 
	C494.804291,698.428223 500.534729,700.194153 506.646851,702.088135 
	C501.238220,727.421021 486.913635,745.213684 462.093353,753.834412 
	C457.710693,755.356628 453.245911,756.642395 448.428894,758.049805 
z"/>
<path fill="#274C2E" opacity="1.000000" stroke="none" 
	d="
M339.688110,436.722748 
	C344.358490,424.387482 348.830933,412.392426 353.384430,400.428284 
	C357.929657,388.485962 362.556091,376.574554 368.291809,364.472351 
	C388.301331,419.252502 408.310883,474.032654 428.588684,529.547302 
	C387.025391,529.547302 346.352814,529.547302 304.972168,529.547302 
	C316.536194,498.600220 328.030975,467.838379 339.688110,436.722748 
z"/>
<path fill="#264D2E" opacity="1.000000" stroke="none" 
	d="
M388.971100,564.965881 
	C384.459198,566.569885 379.987640,568.304016 375.417603,569.720459 
	C373.278351,570.383484 370.602295,571.327759 368.762604,570.614563 
	C357.616882,566.293945 346.642395,561.531372 334.535370,556.466675 
	C340.493713,551.599915 346.561646,547.886230 350.987732,542.756042 
	C358.901367,533.583435 368.766113,537.741150 377.542908,538.569824 
	C381.881378,538.979370 385.718018,544.853638 389.749786,548.292786 
	C391.520782,549.803406 393.268799,551.349792 394.926575,552.982239 
	C397.638916,555.653137 400.444397,556.156555 404.364532,555.332703 
	C413.425751,553.428406 423.403412,561.404480 425.664551,571.611877 
	C427.437622,579.616028 420.431793,590.425476 411.848755,592.872864 
	C404.478607,594.974365 397.859711,593.233582 392.615143,587.906982 
	C386.378357,581.572754 385.355072,573.966675 389.140869,565.348755 
	C389.210938,564.922485 389.091003,564.944153 388.971100,564.965881 
z"/>
<path fill="#264D2E" opacity="1.000000" stroke="none" 
	d="
M239.749390,493.008423 
	C230.892288,493.486084 224.816605,489.337769 220.948669,482.430573 
	C217.471756,476.221588 218.043976,469.595306 222.003510,463.518250 
	C226.234146,457.025116 235.313782,453.603058 242.470612,455.694977 
	C251.259155,458.263855 256.968323,465.288055 257.068787,473.655487 
	C257.175568,482.551849 252.354523,489.419312 244.041870,492.125885 
	C242.792313,492.532745 241.469925,492.715881 239.749390,493.008423 
z"/>
<path fill="#264D2E" opacity="1.000000" stroke="none" 
	d="
M653.322754,644.854980 
	C652.879272,643.478088 652.701904,641.815552 652.378784,638.786926 
	C650.911194,640.684631 650.348938,641.345337 649.859497,642.056091 
	C647.838623,644.990662 645.997131,644.508911 645.056885,641.434570 
	C643.709534,637.029053 643.025452,632.809448 645.840027,628.219971 
	C647.397705,625.680054 646.308472,621.644104 647.077271,618.442139 
	C647.492432,616.712769 649.028931,614.395508 650.540222,613.940613 
	C655.961670,612.309082 657.001709,608.399536 657.068115,603.195801 
	C660.661743,610.928162 659.176697,618.903442 656.440796,626.944336 
	C655.490662,629.736938 655.339172,632.806396 654.874146,635.757507 
	C654.412170,638.689453 654.014587,641.631592 653.322754,644.854980 
z"/>
<path fill="#264D2E" opacity="1.000000" stroke="none" 
	d="
M771.020020,524.376099 
	C780.545349,524.744812 790.350098,525.378723 800.635254,526.029175 
	C790.975952,529.844421 781.123047,527.553528 771.020020,524.376099 
z"/>
<path fill="#264D2E" opacity="1.000000" stroke="none" 
	d="
M746.468750,518.953979 
	C748.715088,515.949036 751.638184,517.185486 754.793213,518.755005 
	C752.320435,519.014465 749.618530,518.992737 746.468750,518.953979 
z"/>
<path fill="#264D2E" opacity="1.000000" stroke="none" 
	d="
M735.378906,521.973267 
	C736.788086,521.316528 738.567932,520.668396 740.752075,520.043152 
	C739.354126,520.704651 737.551758,521.343323 735.378906,521.973267 
z"/>
<path fill="#264D2E" opacity="1.000000" stroke="none" 
	d="
M728.372559,523.987854 
	C729.771423,523.325439 731.541260,522.669006 733.711426,522.028564 
	C732.322327,522.694397 730.532898,523.344116 728.372559,523.987854 
z"/>
<path fill="#264D2E" opacity="1.000000" stroke="none" 
	d="
M661.301331,573.862549 
	C661.478333,572.195007 661.910950,570.274719 662.671753,568.176025 
	C662.518921,569.868286 662.037903,571.739075 661.301331,573.862549 
z"/>
<path fill="#264D2E" opacity="1.000000" stroke="none" 
	d="
M650.304077,650.877747 
	C650.453552,650.049133 650.888550,649.079102 651.671753,648.063599 
	C651.543213,648.924194 651.066467,649.830261 650.304077,650.877747 
z"/>
<path fill="#264D2E" opacity="1.000000" stroke="none" 
	d="
M657.001709,600.579102 
	C656.803833,599.489990 656.620117,597.986267 656.697876,596.251099 
	C656.978210,597.401306 656.997070,598.782898 657.001709,600.579102 
z"/>
<path fill="#264D2E" opacity="1.000000" stroke="none" 
	d="
M657.329590,592.891541 
	C657.207642,591.616943 657.338379,590.048462 657.762817,588.224182 
	C657.898438,589.511475 657.740356,591.054565 657.329590,592.891541 
z"/>
<path fill="#264D2E" opacity="1.000000" stroke="none" 
	d="
M761.201050,521.265564 
	C761.859009,521.174255 762.728394,521.339050 763.791931,521.780457 
	C763.128174,521.878601 762.270325,521.700134 761.201050,521.265564 
z"/>
<path fill="#264D2E" opacity="1.000000" stroke="none" 
	d="
M658.324463,586.947632 
	C658.202026,586.283386 658.320557,585.370056 658.703491,584.233643 
	C658.833740,584.906494 658.699585,585.802551 658.324463,586.947632 
z"/>
<path fill="#264D2E" opacity="1.000000" stroke="none" 
	d="
M659.335205,581.962891 
	C659.214111,581.290283 659.336121,580.366638 659.729492,579.219727 
	C659.860046,579.901611 659.719116,580.806763 659.335205,581.962891 
z"/>
<path fill="#264D2E" opacity="1.000000" stroke="none" 
	d="
M660.298767,577.895874 
	C660.185913,577.238159 660.316467,576.341797 660.710083,575.227905 
	C660.829529,575.892700 660.685852,576.774963 660.298767,577.895874 
z"/>
<path fill="#264D2E" opacity="1.000000" stroke="none" 
	d="
M724.320618,525.052979 
	C724.786316,524.711304 725.599792,524.365479 726.771301,524.036987 
	C726.309021,524.385742 725.488708,524.717224 724.320618,525.052979 
z"/>
<path fill="#264D2E" opacity="1.000000" stroke="none" 
	d="
M715.307861,527.997437 
	C715.512085,527.691528 716.028809,527.375610 716.870239,527.071411 
	C716.670105,527.384583 716.145203,527.686096 715.307861,527.997437 
z"/>
<path fill="#264D2E" opacity="1.000000" stroke="none" 
	d="
M663.312500,566.982361 
	C663.223328,566.581177 663.367126,565.973206 663.777039,565.188171 
	C663.877258,565.599243 663.711426,566.187439 663.312500,566.982361 
z"/>
<path fill="#264D2E" opacity="1.000000" stroke="none" 
	d="
M699.302368,533.971802 
	C699.480957,533.671753 699.957886,533.358521 700.736450,533.035706 
	C700.558899,533.336975 700.079773,533.647827 699.302368,533.971802 
z"/>
<path fill="#264D2E" opacity="1.000000" stroke="none" 
	d="
M701.320251,533.023193 
	C701.515991,532.715210 702.020935,532.386719 702.849670,532.065308 
	C702.658813,532.382446 702.144165,532.692505 701.320251,533.023193 
z"/>
<path fill="#264D2E" opacity="1.000000" stroke="none" 
	d="
M767.067749,523.284180 
	C767.455872,523.188416 768.038025,523.326294 768.801758,523.707275 
	C768.409485,523.806213 767.835632,523.661987 767.067749,523.284180 
z"/>
<path fill="#264D2E" opacity="1.000000" stroke="none" 
	d="
M704.307007,531.970703 
	C704.495483,531.668884 704.987183,531.357300 705.788269,531.041748 
	C705.601868,531.345520 705.105957,531.653259 704.307007,531.970703 
z"/>
<path fill="#264D2E" opacity="1.000000" stroke="none" 
	d="
M718.307007,527.001343 
	C718.514832,526.695862 719.036987,526.379333 719.886902,526.077087 
	C719.683533,526.391052 719.152405,526.690735 718.307007,527.001343 
z"/>
<path fill="#264D2E" opacity="1.000000" stroke="none" 
	d="
M764.126953,522.276917 
	C764.514709,522.184021 765.077576,522.331360 765.813843,522.719116 
	C765.425598,522.812073 764.863831,522.664612 764.126953,522.276917 
z"/>
<path fill="#264D2E" opacity="1.000000" stroke="none" 
	d="
M652.263916,647.848511 
	C652.176208,647.457947 652.334473,646.901672 652.734985,646.176453 
	C652.821533,646.565918 652.665771,647.124390 652.263916,647.848511 
z"/>
<path fill="#264D2E" opacity="1.000000" stroke="none" 
	d="
M685.317139,541.031799 
	C685.481018,540.722534 685.941101,540.383240 686.703613,540.023987 
	C686.541809,540.336609 686.077576,540.669189 685.317139,541.031799 
z"/>
<path fill="#264D2E" opacity="1.000000" stroke="none" 
	d="
M709.302612,530.011658 
	C709.508179,529.705872 710.027588,529.383728 710.874756,529.073853 
	C710.673828,529.389160 710.145142,529.692261 709.302612,530.011658 
z"/>
<path fill="#264D2E" opacity="1.000000" stroke="none" 
	d="
M759.003052,520.319336 
	C759.403320,520.222656 760.014648,520.357422 760.810547,520.752563 
	C760.401489,520.858887 759.807800,520.704834 759.003052,520.319336 
z"/>
<path fill="#264D2E" opacity="1.000000" stroke="none" 
	d="
M755.994324,519.328552 
	C756.397217,519.229126 757.014160,519.362305 757.819946,519.756470 
	C757.408691,519.865356 756.808472,519.713196 755.994324,519.328552 
z"/>
<path fill="#264D2E" opacity="1.000000" stroke="none" 
	d="
M742.309692,519.994629 
	C742.519775,519.688843 743.044434,519.376709 743.897095,519.082153 
	C743.691467,519.395874 743.157837,519.692139 742.309692,519.994629 
z"/>
<path fill="#264D2E" opacity="1.000000" stroke="none" 
	d="
M712.304688,529.000732 
	C712.507385,528.695740 713.022156,528.377319 713.861206,528.068420 
	C713.662537,528.381042 713.139648,528.684204 712.304688,529.000732 
z"/>
<path fill="#264D2E" opacity="1.000000" stroke="none" 
	d="
M664.264526,564.859253 
	C664.182434,564.473938 664.338135,563.910583 664.738037,563.175537 
	C664.822266,563.562988 664.662231,564.122070 664.264526,564.859253 
z"/>
<path fill="#264D2E" opacity="1.000000" stroke="none" 
	d="
M682.308777,543.012817 
	C682.465942,542.710754 682.914307,542.374451 683.656372,542.007812 
	C683.500000,542.311157 683.049988,542.644836 682.308777,543.012817 
z"/>
<path fill="#264D2E" opacity="1.000000" stroke="none" 
	d="
M679.329346,545.044922 
	C679.480957,544.731689 679.924805,544.386108 680.665161,544.011841 
	C680.515015,544.326233 680.068359,544.669373 679.329346,545.044922 
z"/>
<path fill="#264D2E" opacity="1.000000" stroke="none" 
	d="
M674.341248,549.061157 
	C674.484253,548.735291 674.920776,548.388306 675.651245,548.011963 
	C675.508423,548.335144 675.071594,548.687622 674.341248,549.061157 
z"/>
<path fill="#264D2E" opacity="1.000000" stroke="none" 
	d="
M672.229248,551.791626 
	C672.171753,551.400146 672.366150,550.861450 672.821228,550.184753 
	C672.881653,550.579285 672.681396,551.111816 672.229248,551.791626 
z"/>
<path fill="#264D2E" opacity="1.000000" stroke="none" 
	d="
M668.270142,556.865479 
	C668.199402,556.468872 668.373962,555.902588 668.814209,555.186279 
	C668.891724,555.589355 668.703613,556.142578 668.270142,556.865479 
z"/>
<path fill="#264D2E" opacity="1.000000" stroke="none" 
	d="
M667.233948,558.801270 
	C667.173706,558.418457 667.353821,557.869690 667.787231,557.166138 
	C667.851807,557.552673 667.663025,558.094055 667.233948,558.801270 
z"/>
<path fill="#264D2E" opacity="1.000000" stroke="none" 
	d="
M673.294678,549.981750 
	C673.234802,549.791321 673.415894,549.515503 673.832031,549.145996 
	C673.889893,549.333740 673.712769,549.615051 673.294678,549.981750 
z"/>
<path fill="#264D2E" opacity="1.000000" stroke="none" 
	d="
M665.281616,562.065491 
	C665.214661,561.901672 665.360901,561.589783 665.731934,561.143677 
	C665.802734,561.312195 665.648804,561.614807 665.281616,562.065491 
z"/>
<path fill="#264D2E" opacity="1.000000" stroke="none" 
	d="
M677.233521,546.915771 
	C677.197083,546.749756 677.389954,546.483826 677.813110,546.118835 
	C677.849915,546.285156 677.656372,546.550476 677.233521,546.915771 
z"/>
<path fill="#264D2E" opacity="1.000000" stroke="none" 
	d="
M678.256592,545.950073 
	C678.211060,545.772583 678.402100,545.501160 678.829102,545.135864 
	C678.874329,545.313293 678.683716,545.584717 678.256592,545.950073 
z"/>
<path fill="#264D2E" opacity="1.000000" stroke="none" 
	d="
M647.236755,653.923523 
	C647.100464,653.688477 647.288818,653.422119 647.802002,653.125305 
	C647.943787,653.364807 647.755310,653.630554 647.236755,653.923523 
z"/>
<path fill="#264D2E" opacity="1.000000" stroke="none" 
	d="
M681.226685,543.880859 
	C681.107422,543.644470 681.305969,543.392639 681.815002,543.114258 
	C681.950867,543.357788 681.757202,543.617004 681.226685,543.880859 
z"/>
<path fill="#264D2E" opacity="1.000000" stroke="none" 
	d="
M684.224792,541.872498 
	C684.110291,541.635559 684.312805,541.386719 684.825928,541.115845 
	C684.957825,541.361267 684.759583,541.616882 684.224792,541.872498 
z"/>
<path fill="#264D2E" opacity="1.000000" stroke="none" 
	d="
M687.252686,539.920044 
	C687.232788,539.738464 687.463257,539.470764 687.959229,539.137939 
	C687.984192,539.326599 687.743652,539.580261 687.252686,539.920044 
z"/>
<path fill="#264D2E" opacity="1.000000" stroke="none" 
	d="
M722.272949,525.850342 
	C722.261902,525.669434 722.499390,525.425842 722.997681,525.133911 
	C723.012817,525.319641 722.767090,525.553589 722.272949,525.850342 
z"/>
<path fill="#264D2E" opacity="1.000000" stroke="none" 
	d="
M670.244629,553.936768 
	C670.099609,553.709412 670.274963,553.437500 670.766968,553.116943 
	C670.915039,553.343994 670.742249,553.618652 670.244629,553.936768 
z"/>
<path fill="#264D2E" opacity="1.000000" stroke="none" 
	d="
M689.248718,538.882080 
	C689.226562,538.707458 689.445923,538.450806 689.915161,538.120728 
	C689.940063,538.298218 689.715149,538.549194 689.248718,538.882080 
z"/>
<path fill="#264D2E" opacity="1.000000" stroke="none" 
	d="
M669.277100,554.966309 
	C669.223022,554.787476 669.402100,554.508240 669.812622,554.124573 
	C669.866150,554.302063 669.688171,554.583984 669.277100,554.966309 
z"/>
<path fill="#264D2E" opacity="1.000000" stroke="none" 
	d="
M707.265381,530.869019 
	C707.250244,530.687866 707.483459,530.437622 707.976562,530.131348 
	C707.995483,530.316833 707.754639,530.558411 707.265381,530.869019 
z"/>
<path fill="#264D2E" opacity="1.000000" stroke="none" 
	d="
M671.220703,552.883484 
	C671.097107,552.674011 671.271423,552.418640 671.733398,552.106506 
	C671.876465,552.323303 671.708984,552.585876 671.220703,552.883484 
z"/>
<path fill="#264D2E" opacity="1.000000" stroke="none" 
	d="
M666.275024,560.042358 
	C666.213440,559.879822 666.366089,559.572510 666.744629,559.134399 
	C666.810059,559.301575 666.649597,559.599609 666.275024,560.042358 
z"/>
<path fill="#264D2E" opacity="1.000000" stroke="none" 
	d="
M697.257202,534.874756 
	C697.239380,534.696899 697.466919,534.443542 697.950562,534.126892 
	C697.971924,534.308777 697.737244,534.554016 697.257202,534.874756 
z"/>
<path fill="#264D2E" opacity="1.000000" stroke="none" 
	d="
M649.251221,651.931396 
	C649.104736,651.692932 649.287354,651.423462 649.794250,651.116699 
	C649.840210,651.285950 649.660767,651.559631 649.251221,651.931396 
z"/>
<path fill="#264D2E" opacity="1.000000" stroke="none" 
	d="
M648.258423,652.935913 
	C648.108032,652.692566 648.290588,652.423096 648.802307,652.121582 
	C648.953979,652.362671 648.773987,652.636047 648.258423,652.935913 
z"/>
<path fill="#264D2E" opacity="1.000000" stroke="none" 
	d="
M766.262329,438.050995 
	C759.346924,438.391510 752.890076,439.117798 746.469421,438.877686 
	C743.426941,438.763916 740.453552,436.803314 736.383606,435.280975 
	C742.232910,429.251678 747.044739,423.894073 752.312988,419.030762 
	C754.916382,416.627411 767.009460,417.981934 769.872437,420.369781 
	C773.556641,423.442474 777.466919,426.292999 780.823242,429.690399 
	C782.627930,431.517242 783.477722,434.287415 784.758423,436.631958 
	C784.344604,437.101410 783.930847,437.570831 783.517029,438.040283 
	C777.923279,438.040283 772.329468,438.040283 766.262329,438.050995 
z"/>
<path fill="#264E2E" opacity="1.000000" stroke="none" 
	d="
M640.187378,465.945068 
	C636.880554,473.957336 632.398010,476.773651 624.643005,476.022064 
	C619.739441,475.546814 615.096985,471.040100 613.916199,465.608856 
	C612.760742,460.294159 614.972229,454.745300 619.438599,451.752808 
	C624.698303,448.228729 629.459290,448.249817 634.715454,451.820404 
	C639.506653,455.075134 641.466492,459.906586 640.187378,465.945068 
z"/>
<path fill="#264D2E" opacity="1.000000" stroke="none" 
	d="
M647.722778,600.201782 
	C647.780151,606.396301 647.031738,612.486328 643.675232,618.353027 
	C641.230530,622.625977 640.688660,627.947876 638.934998,632.667053 
	C637.172791,637.408997 635.182434,642.014404 636.971680,647.616211 
	C633.417297,640.719482 634.160339,633.114929 636.678162,625.930725 
	C639.726257,617.233276 643.813660,608.900024 647.722778,600.201782 
z"/>
<path fill="#264D2E" opacity="1.000000" stroke="none" 
	d="
M755.893677,510.632172 
	C738.732483,512.617920 721.227112,514.295837 703.735596,516.107300 
	C701.995117,516.287537 700.312927,517.218750 698.648315,517.909058 
	C694.066528,519.809021 689.529297,521.818970 684.916199,523.637512 
	C684.308228,523.877197 683.360657,523.255310 682.204224,522.980347 
	C689.333252,520.089172 696.620544,515.855103 704.366821,514.700684 
	C720.655212,512.273071 737.183899,511.455902 753.616882,510.010254 
	C754.247192,509.954834 754.907288,510.237030 755.893677,510.632172 
z"/>
<path fill="#264D2E" opacity="1.000000" stroke="none" 
	d="
M654.679810,562.145630 
	C653.813538,570.068237 652.683899,578.273682 651.260681,586.747803 
	C652.116882,578.820557 653.266663,570.624512 654.679810,562.145630 
z"/>
<path fill="#264D2E" opacity="1.000000" stroke="none" 
	d="
M663.562622,540.093262 
	C663.855835,541.355042 664.378662,543.076538 663.781677,544.205994 
	C662.349365,546.915649 660.391235,549.347351 658.295593,551.924255 
	C659.724915,548.066101 661.503967,544.174988 663.562622,540.093262 
z"/>
<path fill="#264D2E" opacity="1.000000" stroke="none" 
	d="
M650.191284,590.530396 
	C650.393372,591.889160 650.519958,593.654297 650.408569,595.667847 
	C650.152344,594.256470 650.134094,592.596619 650.191284,590.530396 
z"/>
<path fill="#264D2E" opacity="1.000000" stroke="none" 
	d="
M667.712402,534.145264 
	C667.541626,534.963684 667.088806,535.924438 666.283569,536.916382 
	C666.430908,536.060852 666.930664,535.174194 667.712402,534.145264 
z"/>
<path fill="#264D2E" opacity="1.000000" stroke="none" 
	d="
M675.623596,526.958069 
	C675.197571,527.608032 674.457092,528.298157 673.358459,528.989502 
	C673.769958,528.326538 674.539490,527.662415 675.623596,526.958069 
z"/>
<path fill="#264D2E" opacity="1.000000" stroke="none" 
	d="
M655.710815,558.130249 
	C655.820007,558.788208 655.681702,559.678223 655.279419,560.783264 
	C655.164673,560.119568 655.313965,559.240967 655.710815,558.130249 
z"/>
<path fill="#264D2E" opacity="1.000000" stroke="none" 
	d="
M636.961670,648.327087 
	C637.275513,648.495911 637.610107,648.965454 637.949341,649.742188 
	C637.630066,649.575562 637.306213,649.101685 636.961670,648.327087 
z"/>
<path fill="#264D2E" opacity="1.000000" stroke="none" 
	d="
M679.690063,523.981934 
	C679.532349,524.286194 679.081909,524.623291 678.336121,524.987610 
	C678.492981,524.681519 678.945190,524.348145 679.690063,523.981934 
z"/>
<path fill="#264D2E" opacity="1.000000" stroke="none" 
	d="
M649.732788,597.127502 
	C649.808960,597.532410 649.630127,598.097351 649.185303,598.810913 
	C649.105530,598.402222 649.291687,597.844849 649.732788,597.127502 
z"/>
<path fill="#264D2E" opacity="1.000000" stroke="none" 
	d="
M637.967041,650.318787 
	C638.278748,650.469177 638.619446,650.911743 638.989624,651.647217 
	C638.678101,651.497131 638.337097,651.054016 637.967041,650.318787 
z"/>
<path fill="#264D2E" opacity="1.000000" stroke="none" 
	d="
M657.715942,552.134338 
	C657.811096,552.523865 657.664185,553.085083 657.276489,553.819214 
	C657.181824,553.430054 657.327881,552.868042 657.715942,552.134338 
z"/>
<path fill="#264D2E" opacity="1.000000" stroke="none" 
	d="
M656.703369,555.052856 
	C656.802368,555.444214 656.667297,556.032532 656.286743,556.804382 
	C656.183960,556.408569 656.326721,555.829163 656.703369,555.052856 
z"/>
<path fill="#264D2E" opacity="1.000000" stroke="none" 
	d="
M677.771484,525.121094 
	C677.891235,525.357422 677.693359,525.609070 677.184937,525.887329 
	C677.052795,525.647217 677.246033,525.388123 677.771484,525.121094 
z"/>
<path fill="#264D2E" opacity="1.000000" stroke="none" 
	d="
M672.764282,529.096436 
	C672.895996,529.327393 672.708801,529.588684 672.205933,529.884521 
	C672.063965,529.648438 672.249023,529.384399 672.764282,529.096436 
z"/>
<path fill="#264D2E" opacity="1.000000" stroke="none" 
	d="
M676.744629,526.053711 
	C676.789062,526.229736 676.597412,526.500610 676.170044,526.865356 
	C676.125732,526.689026 676.317139,526.418823 676.744629,526.053711 
z"/>
<path fill="#264D2E" opacity="1.000000" stroke="none" 
	d="
M665.731323,537.045715 
	C665.783203,537.221924 665.602356,537.499634 665.191650,537.883911 
	C665.140686,537.709351 665.319702,537.428284 665.731323,537.045715 
z"/>
<path fill="#264D2E" opacity="1.000000" stroke="none" 
	d="
M670.756470,531.078735 
	C670.896179,531.313293 670.711365,531.580139 670.204590,531.882690 
	C670.060791,531.647034 670.243896,531.377930 670.756470,531.078735 
z"/>
<path fill="#264D2E" opacity="1.000000" stroke="none" 
	d="
M668.759888,533.080933 
	C668.898987,533.310852 668.717834,533.577026 668.222534,533.886597 
	C668.071350,533.652405 668.248413,533.381470 668.759888,533.080933 
z"/>
<path fill="#264D2E" opacity="1.000000" stroke="none" 
	d="
M648.717285,599.031250 
	C648.886719,599.278015 648.715881,599.556763 648.216248,599.883301 
	C648.156738,599.706787 648.319946,599.417480 648.717285,599.031250 
z"/>
<path fill="#264D2E" opacity="1.000000" stroke="none" 
	d="
M680.752747,523.140869 
	C680.874695,523.379211 680.680298,523.624451 680.177124,523.889893 
	C680.043457,523.649414 680.232849,523.395325 680.752747,523.140869 
z"/>
<path fill="#264D2E" opacity="1.000000" stroke="none" 
	d="
M669.757446,532.078979 
	C669.896851,532.312805 669.712158,532.579773 669.205933,532.883423 
	C669.062866,532.648743 669.245850,532.379395 669.757446,532.078979 
z"/>
<path fill="#264D2E" opacity="1.000000" stroke="none" 
	d="
M671.756897,530.080688 
	C671.896057,530.315430 671.711060,530.581482 671.204590,530.882568 
	C671.060852,530.646667 671.244080,530.378174 671.756897,530.080688 
z"/>
<path fill="#264D2E" opacity="1.000000" stroke="none" 
	d="
M639.141235,652.219604 
	C639.361206,652.104797 639.605957,652.290161 639.893066,652.762695 
	C639.667542,652.897339 639.411133,652.720581 639.141235,652.219604 
z"/>
<path fill="#264D2E" opacity="1.000000" stroke="none" 
	d="
M442.477753,693.318359 
	C430.791687,692.772949 424.627441,684.679504 428.319794,675.319641 
	C430.769745,669.109131 435.537811,666.306702 442.532135,666.966248 
	C447.740540,667.457458 453.076111,671.995605 453.936829,676.666504 
	C455.200043,683.521790 452.208099,689.658997 446.197693,692.352234 
	C445.160126,692.817200 443.965546,692.931885 442.477753,693.318359 
z"/>
<path fill="#274D2E" opacity="1.000000" stroke="none" 
	d="
M431.679077,756.970215 
	C431.524994,757.278992 431.077759,757.619141 430.335052,757.987915 
	C430.488342,757.678223 430.937134,757.339905 431.679077,756.970215 
z"/>
<path fill="#274D2E" opacity="1.000000" stroke="none" 
	d="
M427.679443,759.965820 
	C427.521118,760.273743 427.068665,760.615601 426.317078,760.983032 
	C426.473724,760.672302 426.929535,760.336060 427.679443,759.965820 
z"/>
<path fill="#274D2E" opacity="1.000000" stroke="none" 
	d="
M433.756958,755.067627 
	C433.797577,755.234253 433.610016,755.505554 433.192749,755.879639 
	C433.151581,755.712463 433.340149,755.442322 433.756958,755.067627 
z"/>
<path fill="#274D2E" opacity="1.000000" stroke="none" 
	d="
M432.748474,756.059570 
	C432.792542,756.233032 432.603119,756.503418 432.181030,756.871094 
	C432.137207,756.697693 432.326111,756.427002 432.748474,756.059570 
z"/>
<path fill="#274D2E" opacity="1.000000" stroke="none" 
	d="
M429.776611,758.125854 
	C429.891937,758.355347 429.694824,758.607056 429.191467,758.890625 
	C429.065430,758.657715 429.258392,758.399536 429.776611,758.125854 
z"/>
<path fill="#274D2E" opacity="1.000000" stroke="none" 
	d="
M428.752258,759.063416 
	C428.794495,759.237183 428.601715,759.506470 428.175049,759.872314 
	C428.133179,759.698853 428.325195,759.428894 428.752258,759.063416 
z"/>
<path fill="#274D2E" opacity="1.000000" stroke="none" 
	d="
M425.766541,761.106567 
	C425.796265,761.277649 425.588715,761.537598 425.143005,761.887817 
	C425.113007,761.717102 425.321136,761.456238 425.766541,761.106567 
z"/>
<path fill="#264E2E" opacity="1.000000" stroke="none" 
	d="
M258.295959,668.119507 
	C255.712555,666.837463 253.506226,665.704651 250.186462,664.000183 
	C255.838760,658.864807 260.499420,653.304199 266.383911,649.797058 
	C269.744080,647.794373 275.118195,648.799255 279.550018,649.057861 
	C285.410034,649.399780 293.104218,659.290222 294.699524,668.815674 
	C282.578766,668.871460 270.644012,669.635071 258.295959,668.119507 
z"/>
<path fill="#274D2E" opacity="1.000000" stroke="none" 
	d="
M446.322266,758.924316 
	C446.504333,758.628723 446.980835,758.336914 447.753357,758.040527 
	C447.571808,758.333374 447.094238,758.630798 446.322266,758.924316 
z"/>
<path fill="#274D2E" opacity="1.000000" stroke="none" 
	d="
M442.320007,760.011719 
	C442.528534,759.707703 443.050903,759.386719 443.903931,759.082031 
	C443.700989,759.397095 443.167419,759.695923 442.320007,760.011719 
z"/>
<path fill="#274D2E" opacity="1.000000" stroke="none" 
	d="
M440.287323,760.999573 
	C440.464355,760.700745 440.940613,760.373657 441.721313,760.031372 
	C441.546051,760.334595 441.066284,760.652954 440.287323,760.999573 
z"/>
<path fill="#264D2E" opacity="1.000000" stroke="none" 
	d="
M687.301270,528.461060 
	C686.557495,532.535034 683.764587,532.843262 680.810364,532.832581 
	C680.546265,532.297668 680.282166,531.762756 680.018066,531.227844 
	C682.359192,530.229858 684.700256,529.231812 687.301270,528.461060 
z"/>
<path fill="#FBFCFC" opacity="1.000000" stroke="none" 
	d="
M465.139099,368.236084 
	C482.491425,334.711426 524.343445,326.107513 551.487671,350.434906 
	C567.287781,364.595428 572.547974,382.653076 567.425720,403.011810 
	C562.173035,423.889252 548.174255,437.042023 527.304565,441.823975 
	C497.255341,448.709259 468.383514,430.581818 461.607941,401.266296 
	C459.008484,390.019409 460.365631,379.118347 465.139099,368.236084 
M526.444336,364.868164 
	C525.672058,364.566895 524.915039,364.216614 524.125305,363.971710 
	C512.095703,360.240997 499.593689,363.888733 492.201355,373.271912 
	C485.217133,382.137146 484.276886,393.753235 489.781494,403.168427 
	C495.990417,413.788239 507.867554,419.129578 520.510132,416.987549 
	C531.606506,415.107452 541.227966,405.719788 543.019531,395.025055 
	C545.115356,382.514038 539.602417,372.101593 526.444336,364.868164 
z"/>
<path fill="#33AF43" opacity="1.000000" stroke="none" 
	d="
M388.983704,564.980530 
	C389.091003,564.944153 389.210938,564.922485 389.178101,564.960449 
	C389.025330,565.020081 388.996338,564.995178 388.983704,564.980530 
z"/>
<path fill="#284D31" opacity="1.000000" stroke="none" 
	d="
M526.810669,364.985535 
	C539.602417,372.101593 545.115356,382.514038 543.019531,395.025055 
	C541.227966,405.719788 531.606506,415.107452 520.510132,416.987549 
	C507.867554,419.129578 495.990417,413.788239 489.781494,403.168427 
	C484.276886,393.753235 485.217133,382.137146 492.201355,373.271912 
	C499.593689,363.888733 512.095703,360.240997 524.125305,363.971710 
	C524.915039,364.216614 525.672058,364.566895 526.810669,364.985535 
z"/>
</svg>