<svg version="1.1" id="Layer_1" xmlns="http://www.w3.org/2000/svg" xmlns:xlink="http://www.w3.org/1999/xlink" x="0px" y="0px"
	 width="100%" viewBox="0 0 1024 1024" enable-background="new 0 0 1024 1024" xml:space="preserve">
<path fill="#FEFEFE" opacity="1.000000" stroke="none" 
	d="
M675.000000,1025.000000 
	C450.000000,1025.000000 225.500000,1025.000000 1.000000,1025.000000 
	C1.000000,683.666687 1.000000,342.333344 1.000000,1.000000 
	C342.333344,1.000000 683.666687,1.000000 1025.000000,1.000000 
	C1025.000000,342.333344 1025.000000,683.666687 1025.000000,1025.000000 
	C908.500000,1025.000000 792.000000,1025.000000 675.000000,1025.000000 
M629.081238,216.427475 
	C624.019226,214.320969 619.044861,211.956009 613.864441,210.198364 
	C610.384399,209.017639 608.490112,206.927460 606.981384,203.691254 
	C597.496521,183.345093 587.649109,163.166489 578.300110,142.759064 
	C573.838318,133.019653 567.197937,128.420776 556.145325,128.567902 
	C525.319763,128.978210 494.482117,128.898132 463.654877,128.534378 
	C452.935699,128.407898 446.216248,132.683640 441.789429,142.360687 
	C432.242249,163.230698 422.254608,183.901169 412.228760,204.547241 
	C411.195129,206.675858 408.988098,208.804245 406.814636,209.719360 
	C389.971436,216.811172 373.057495,223.746445 356.017029,230.347000 
	C353.260071,231.414886 349.422485,231.512589 346.670929,230.486298 
	C325.189453,222.473999 303.791351,214.227798 282.494781,205.734650 
	C272.073395,201.578583 263.726379,203.525131 255.875946,211.590012 
	C235.418945,232.605927 214.882843,253.563293 193.779556,273.923401 
	C183.996552,283.361908 182.055588,293.007233 187.145615,305.367035 
	C195.308884,325.189423 202.812286,345.286530 210.350220,365.359283 
	C211.164337,367.527283 211.080063,370.595184 210.198349,372.748505 
	C203.141617,389.982269 195.922974,407.153992 188.391327,424.184418 
	C187.268555,426.723236 184.612427,429.185150 182.056274,430.392883 
	C163.122726,439.338593 144.067642,448.030273 124.981613,456.648682 
	C115.550591,460.907318 111.165230,468.084473 111.184799,478.318481 
	C111.241211,507.816467 111.214691,537.314575 111.202072,566.812683 
	C111.197937,576.494202 115.444336,583.177979 124.504799,587.049744 
	C144.362122,595.535339 164.143723,604.200867 183.868073,612.990723 
	C185.907562,613.899597 188.077713,615.821106 188.959869,617.815613 
	C196.423309,634.689758 203.709534,651.645508 210.737076,668.705322 
	C211.683487,671.002808 211.688339,674.321533 210.787430,676.647644 
	C202.800903,697.268555 194.563690,717.793335 186.289307,738.301514 
	C182.260880,748.286072 184.242142,756.429260 192.070679,764.017273 
	C213.248154,784.543884 234.356766,805.161194 254.859665,826.354919 
	C263.723419,835.517334 272.850311,836.977112 284.139526,832.498413 
	C305.455597,824.041931 326.859314,815.801025 348.333008,807.754395 
	C350.793549,806.832397 354.240875,806.931519 356.706787,807.896301 
	C373.254608,814.370361 389.720001,821.068298 406.054352,828.062134 
	C408.784424,829.231079 411.573364,831.767639 412.930634,834.397156 
	C422.915436,853.741272 432.692230,873.197021 442.217316,892.772034 
	C446.653809,901.889465 453.307007,906.078064 463.560883,905.982483 
	C494.222961,905.696716 524.892395,905.615479 555.552307,905.994080 
	C566.460327,906.128784 573.325378,901.786621 577.989319,892.090881 
	C587.431030,872.462463 597.303284,853.038635 607.232849,833.650696 
	C608.401489,831.368896 610.717041,829.073853 613.051514,828.086060 
	C629.725647,821.030212 646.489014,814.174011 663.370483,807.632080 
	C665.966675,806.625916 669.628540,806.730469 672.265625,807.727783 
	C693.703979,815.835571 715.075989,824.128479 736.341125,832.680969 
	C747.355835,837.110840 756.279724,835.448914 764.775757,826.717957 
	C785.224915,805.703613 806.199341,785.200317 826.964966,764.493958 
	C836.774292,754.712585 837.794739,749.741821 832.564026,736.811401 
	C824.521912,716.931335 816.506775,697.040100 808.365479,677.200684 
	C807.014465,673.908325 806.980835,671.020264 808.420715,667.703674 
	C815.235779,652.005615 821.956482,636.263733 828.446716,620.429260 
	C830.232422,616.072571 833.101624,613.687683 837.335693,611.876648 
	C856.128967,603.838318 874.707458,595.295349 893.538818,587.349976 
	C903.554749,583.123962 908.076111,576.161560 907.990173,565.325745 
	C907.765442,536.996033 907.648193,508.659607 908.044678,480.333618 
	C908.213257,468.288635 903.433411,460.592133 892.393372,455.836700 
	C873.314087,447.618439 854.444824,438.908997 835.567017,430.232300 
	C833.659302,429.355469 831.583801,427.594482 830.792603,425.731445 
	C823.255005,407.981567 815.904724,390.150421 808.733765,372.249207 
	C807.974487,370.353638 808.106018,367.635437 808.839233,365.679260 
	C816.826477,344.368774 824.783325,323.040833 833.250854,301.919067 
	C837.371887,291.639435 835.624756,283.479706 827.837769,275.679047 
	C807.119446,254.924347 786.482727,234.076080 766.311890,212.792694 
	C757.493958,203.488342 748.358398,201.786926 736.687622,206.519669 
	C715.597717,215.072037 694.255310,223.008789 672.921387,230.941940 
	C670.570374,231.816177 667.311279,231.721649 664.943420,230.829224 
	C653.130371,226.376923 641.474365,221.507858 629.081238,216.427475 
z"/>
<path fill="#27553C" opacity="1.000000" stroke="none" 
	d="
M629.422180,216.606476 
	C641.474365,221.507858 653.130371,226.376923 664.943420,230.829224 
	C667.311279,231.721649 670.570374,231.816177 672.921387,230.941940 
	C694.255310,223.008789 715.597717,215.072037 736.687622,206.519669 
	C748.358398,201.786926 757.493958,203.488342 766.311890,212.792694 
	C786.482727,234.076080 807.119446,254.924347 827.837769,275.679047 
	C835.624756,283.479706 837.371887,291.639435 833.250854,301.919067 
	C824.783325,323.040833 816.826477,344.368774 808.839233,365.679260 
	C808.106018,367.635437 807.974487,370.353638 808.733765,372.249207 
	C815.904724,390.150421 823.255005,407.981567 830.792603,425.731445 
	C831.583801,427.594482 833.659302,429.355469 835.567017,430.232300 
	C854.444824,438.908997 873.314087,447.618439 892.393372,455.836700 
	C903.433411,460.592133 908.213257,468.288635 908.044678,480.333618 
	C907.648193,508.659607 907.765442,536.996033 907.990173,565.325745 
	C908.076111,576.161560 903.554749,583.123962 893.538818,587.349976 
	C874.707458,595.295349 856.128967,603.838318 837.335693,611.876648 
	C833.101624,613.687683 830.232422,616.072571 828.446716,620.429260 
	C821.956482,636.263733 815.235779,652.005615 808.420715,667.703674 
	C806.980835,671.020264 807.014465,673.908325 808.365479,677.200684 
	C816.506775,697.040100 824.521912,716.931335 832.564026,736.811401 
	C837.794739,749.741821 836.774292,754.712585 826.964966,764.493958 
	C806.199341,785.200317 785.224915,805.703613 764.775757,826.717957 
	C756.279724,835.448914 747.355835,837.110840 736.341125,832.680969 
	C715.075989,824.128479 693.703979,815.835571 672.265625,807.727783 
	C669.628540,806.730469 665.966675,806.625916 663.370483,807.632080 
	C646.489014,814.174011 629.725647,821.030212 613.051514,828.086060 
	C610.717041,829.073853 608.401489,831.368896 607.232849,833.650696 
	C597.303284,853.038635 587.431030,872.462463 577.989319,892.090881 
	C573.325378,901.786621 566.460327,906.128784 555.552307,905.994080 
	C524.892395,905.615479 494.222961,905.696716 463.560883,905.982483 
	C453.307007,906.078064 446.653809,901.889465 442.217316,892.772034 
	C432.692230,873.197021 422.915436,853.741272 412.930634,834.397156 
	C411.573364,831.767639 408.784424,829.231079 406.054352,828.062134 
	C389.720001,821.068298 373.254608,814.370361 356.706787,807.896301 
	C354.240875,806.931519 350.793549,806.832397 348.333008,807.754395 
	C326.859314,815.801025 305.455597,824.041931 284.139526,832.498413 
	C272.850311,836.977112 263.723419,835.517334 254.859665,826.354919 
	C234.356766,805.161194 213.248154,784.543884 192.070679,764.017273 
	C184.242142,756.429260 182.260880,748.286072 186.289307,738.301514 
	C194.563690,717.793335 202.800903,697.268555 210.787430,676.647644 
	C211.688339,674.321533 211.683487,671.002808 210.737076,668.705322 
	C203.709534,651.645508 196.423309,634.689758 188.959869,617.815613 
	C188.077713,615.821106 185.907562,613.899597 183.868073,612.990723 
	C164.143723,604.200867 144.362122,595.535339 124.504799,587.049744 
	C115.444336,583.177979 111.197937,576.494202 111.202072,566.812683 
	C111.214691,537.314575 111.241211,507.816467 111.184799,478.318481 
	C111.165230,468.084473 115.550591,460.907318 124.981613,456.648682 
	C144.067642,448.030273 163.122726,439.338593 182.056274,430.392883 
	C184.612427,429.185150 187.268555,426.723236 188.391327,424.184418 
	C195.922974,407.153992 203.141617,389.982269 210.198349,372.748505 
	C211.080063,370.595184 211.164337,367.527283 210.350220,365.359283 
	C202.812286,345.286530 195.308884,325.189423 187.145615,305.367035 
	C182.055588,293.007233 183.996552,283.361908 193.779556,273.923401 
	C214.882843,253.563293 235.418945,232.605927 255.875946,211.590012 
	C263.726379,203.525131 272.073395,201.578583 282.494781,205.734650 
	C303.791351,214.227798 325.189453,222.473999 346.670929,230.486298 
	C349.422485,231.512589 353.260071,231.414886 356.017029,230.347000 
	C373.057495,223.746445 389.971436,216.811172 406.814636,209.719360 
	C408.988098,208.804245 411.195129,206.675858 412.228760,204.547241 
	C422.254608,183.901169 432.242249,163.230698 441.789429,142.360687 
	C446.216248,132.683640 452.935699,128.407898 463.654877,128.534378 
	C494.482117,128.898132 525.319763,128.978210 556.145325,128.567902 
	C567.197937,128.420776 573.838318,133.019653 578.300110,142.759064 
	C587.649109,163.166489 597.496521,183.345093 606.981384,203.691254 
	C608.490112,206.927460 610.384399,209.017639 613.864441,210.198364 
	C619.044861,211.956009 624.019226,214.320969 629.422180,216.606476 
M761.881958,548.260925 
	C766.320557,508.576782 762.616333,469.771637 748.488770,432.294250 
	C726.885498,374.985321 688.530090,331.801361 635.676147,301.550323 
	C581.050476,270.285278 522.562744,259.298553 460.530701,271.836426 
	C397.684296,284.538879 345.920685,316.392853 306.869751,367.062195 
	C256.703308,432.154144 241.441025,505.508179 263.827240,584.731689 
	C301.714874,718.813965 449.082916,797.285217 582.555908,755.395203 
	C651.533875,733.746643 703.556946,691.049988 737.415649,626.859009 
	C750.274048,602.481506 757.975647,576.407593 761.881958,548.260925 
z"/>
<path fill="#DEDEDD" opacity="1.000000" stroke="none" 
	d="
M761.828430,548.705444 
	C757.975647,576.407593 750.274048,602.481506 737.415649,626.859009 
	C703.556946,691.049988 651.533875,733.746643 582.555908,755.395203 
	C449.082916,797.285217 301.714874,718.813965 263.827240,584.731689 
	C241.441025,505.508179 256.703308,432.154144 306.869751,367.062195 
	C345.920685,316.392853 397.684296,284.538879 460.530701,271.836426 
	C522.562744,259.298553 581.050476,270.285278 635.676147,301.550323 
	C688.530090,331.801361 726.885498,374.985321 748.488770,432.294250 
	C762.616333,469.771637 766.320557,508.576782 761.828430,548.705444 
M297.728516,574.327026 
	C300.115021,580.928101 302.501556,587.529114 305.016754,594.849915 
	C314.746887,618.912720 328.604279,640.369385 346.009308,659.562744 
	C346.906403,660.552063 348.418030,660.984070 349.872437,662.383484 
	C358.601105,670.264099 367.329773,678.144775 376.163269,686.694214 
	C379.097443,688.821045 382.031616,690.947815 385.277405,693.676697 
	C436.634216,727.069214 492.433014,738.534241 552.645691,726.938416 
	C583.113098,721.070984 610.917664,708.653320 636.764038,690.189514 
	C663.197388,671.321228 684.641968,647.892151 700.886963,619.765869 
	C701.783447,618.213745 701.534851,616.000366 702.549622,613.993591 
	C704.496399,611.059631 707.007019,608.350647 708.284302,605.149536 
	C712.111023,595.558716 715.455688,585.775452 719.660645,575.751648 
	C720.135864,574.521851 720.738525,573.325256 721.068115,572.057617 
	C734.675293,519.735229 729.201599,469.323334 704.556763,421.362457 
	C663.414612,341.296295 570.636597,290.140503 477.796478,303.906769 
	C449.637787,308.082123 423.396362,317.535736 398.420349,332.397247 
	C396.852509,333.534119 395.284668,334.670990 393.057648,335.977203 
	C354.634888,360.723999 325.580750,393.601471 307.460114,435.686279 
	C303.415802,445.079132 300.990234,455.168976 297.365997,465.493103 
	C295.597900,473.932312 293.829834,482.371521 292.103516,491.692688 
	C291.746002,493.964905 291.066711,496.239441 291.082825,498.509003 
	C291.193207,514.045593 289.380005,529.632935 292.061707,545.103455 
	C292.752991,549.091492 293.857727,553.007935 294.585510,557.709778 
	C295.651215,563.011475 296.716919,568.313232 297.728516,574.327026 
z"/>
<path fill="#25A94B" opacity="1.000000" stroke="none" 
	d="
M636.123169,690.504211 
	C610.917664,708.653320 583.113098,721.070984 552.645691,726.938416 
	C492.433014,738.534241 436.634216,727.069214 385.249786,693.053223 
	C385.718658,691.570251 386.126404,690.642822 386.724762,689.861267 
	C398.872955,673.993042 411.027039,658.129272 423.215149,642.291687 
	C429.749847,633.800293 436.350616,625.359680 442.965515,617.323364 
	C443.656830,622.393372 444.304138,627.036194 445.163879,633.202759 
	C450.210510,629.364014 454.705383,626.932800 457.874969,623.334229 
	C465.098877,615.132629 471.754822,606.422729 478.496063,597.805542 
	C499.944977,570.387817 521.289062,542.887817 542.842529,515.552734 
	C543.981140,514.108643 547.008179,512.792297 548.591980,513.273438 
	C562.640259,517.541138 576.287292,522.639038 587.055542,533.381897 
	C590.129456,536.448486 590.460876,538.940857 588.270203,542.509277 
	C575.162964,563.859314 566.652466,587.354736 556.778381,610.219910 
	C549.005981,628.218506 541.019714,646.126465 532.932556,663.986023 
	C530.988647,668.278931 528.268250,672.220337 525.647156,676.771057 
	C528.864868,678.063477 531.367920,679.403625 534.039062,680.082947 
	C544.895203,682.844116 556.464539,680.320129 561.174072,668.879700 
	C571.858093,642.926086 583.296814,617.282837 593.957458,591.319946 
	C602.013306,571.701050 609.339539,551.782593 617.379150,532.003418 
	C623.890442,531.950134 626.789124,536.860474 629.896790,540.667297 
	C647.511841,562.245422 664.829224,584.066833 682.210022,605.835693 
	C691.636292,617.641785 691.352112,629.227722 681.115479,640.349304 
	C667.053345,655.627136 652.787903,670.717773 638.684631,685.958191 
	C637.535339,687.200073 636.963379,688.976257 636.123169,690.504211 
z"/>
<path fill="#FCFDFA" opacity="1.000000" stroke="none" 
	d="
M376.058411,686.025391 
	C367.329773,678.144775 358.601105,670.264099 349.787598,662.029663 
	C349.702728,661.675903 349.760529,661.677917 350.002930,661.716309 
	C350.590088,661.674194 350.831879,661.471191 351.265015,660.965576 
	C353.279327,659.509644 355.397766,658.541138 356.656677,656.909485 
	C367.562134,642.774414 378.313080,628.520203 389.373688,614.174316 
	C389.790009,613.695923 389.942688,613.344604 390.052216,613.005737 
	C390.009064,613.018250 390.038849,613.103027 390.341949,612.949524 
	C393.323303,609.198975 395.856903,605.480713 398.732666,602.049194 
	C400.533997,599.899719 400.380402,598.207458 399.161377,595.835632 
	C381.333557,561.147278 363.606506,526.407104 345.843658,491.685394 
	C344.563263,489.182526 343.520660,486.638672 339.698639,487.109528 
	C335.862762,487.582001 332.360077,486.724976 329.844360,491.578796 
	C318.465424,513.533203 306.516327,535.192017 294.772583,556.957275 
	C293.857727,553.007935 292.752991,549.091492 292.061707,545.103455 
	C289.380005,529.632935 291.193207,514.045593 291.082825,498.509003 
	C291.066711,496.239441 291.746002,493.964905 292.373322,491.100830 
	C297.753876,480.813629 303.012268,471.191803 307.894104,461.382538 
	C309.571198,458.012726 311.485657,456.550507 315.403778,456.455658 
	C331.552490,456.064697 347.691620,455.279205 364.142456,454.839630 
	C365.421417,456.570343 366.495392,458.045074 367.347137,459.638611 
	C376.672577,477.085907 385.963318,494.551758 395.334900,512.349670 
	C396.869781,513.242493 398.600494,514.588501 399.745270,514.201416 
	C402.825226,513.160156 405.884583,511.703430 408.537537,509.825806 
	C414.524292,505.588745 420.260925,500.998322 426.391907,496.419098 
	C426.925751,495.955444 427.167084,495.624329 427.432129,495.305786 
	C427.455872,495.318390 427.500610,495.348053 427.822327,495.257538 
	C431.434265,492.629059 434.840851,490.222626 437.946594,487.476013 
	C438.926697,486.609253 439.743561,484.728119 439.543152,483.487610 
	C437.953613,473.648132 435.974396,463.871887 434.367859,454.034851 
	C433.062073,446.039154 432.106018,437.986359 431.238953,429.902771 
	C431.643524,429.569214 431.804016,429.291748 432.228943,428.897308 
	C432.580902,428.608582 432.668427,428.436829 433.031647,428.128296 
	C442.131165,418.992950 450.954956,409.994415 459.953064,400.693115 
	C466.846832,393.923035 473.566254,387.455688 480.604156,380.827057 
	C482.798004,380.764679 484.785156,380.496979 486.528625,381.028625 
	C492.697937,382.909790 498.783936,385.064362 504.916260,387.101501 
	C504.930969,387.087738 504.910217,387.071136 505.089844,387.309082 
	C505.837708,387.666809 506.405975,387.786621 507.159729,388.001923 
	C507.345215,388.097412 507.762451,388.094727 508.016479,388.359131 
	C510.836700,389.455994 513.402954,390.288483 516.229004,391.364990 
	C522.659790,393.723602 528.830688,395.838165 535.165527,398.045776 
	C535.329346,398.138824 535.705566,398.118713 535.922607,398.362152 
	C536.761902,398.744904 537.384094,398.884247 538.145142,399.110046 
	C538.283936,399.196472 538.606689,399.143463 538.877869,399.403503 
	C542.432983,400.765198 545.716858,401.866882 549.307129,403.164429 
	C560.742554,407.235413 571.871643,411.110535 583.001831,414.994690 
	C583.002930,415.003723 583.019653,414.999603 583.114014,415.212158 
	C583.410950,415.702087 583.682983,415.822449 584.168823,416.075256 
	C585.248901,417.236298 586.184692,418.107971 587.168579,419.215393 
	C587.397400,419.755005 587.664490,419.910522 588.014404,419.953278 
	C588.010803,419.988800 588.081909,419.982147 588.142029,420.221313 
	C588.378784,420.767548 588.642029,420.949432 588.995850,421.003052 
	C589.000000,421.000000 588.993469,421.008423 589.054077,421.263672 
	C589.395996,421.708008 589.677307,421.897064 589.972290,422.050049 
	C589.986023,422.013977 589.913574,422.040619 589.987671,422.298676 
	C590.351257,422.748169 590.640747,422.939606 590.939636,423.088806 
	C590.949036,423.046600 590.865784,423.070129 590.936646,423.334961 
	C591.304199,423.789551 591.600830,423.979309 591.900513,424.118896 
	C591.903564,424.068756 591.807312,424.097595 591.848633,424.380402 
	C592.276978,425.054047 592.663879,425.444916 593.121948,426.094727 
	C593.467346,426.570251 593.741577,426.786743 594.077454,427.252930 
	C594.410889,427.694366 594.682678,427.886078 594.978333,428.066437 
	C595.002136,428.055084 594.953003,428.036102 595.003662,428.298889 
	C595.347839,428.732483 595.641357,428.903259 595.912476,429.046783 
	C595.890015,429.019501 595.849243,429.077209 595.884521,429.361481 
	C596.297913,430.042572 596.676086,430.439423 597.127441,431.093903 
	C597.473816,431.568878 597.747009,431.786194 598.076599,432.254150 
	C598.405457,432.694275 598.677856,432.883759 598.972534,433.038788 
	C598.994751,433.004364 598.925537,433.048279 598.985962,433.309998 
	C599.334717,433.760101 599.623047,433.948486 599.933838,434.093658 
	C599.956421,434.050446 599.863037,434.078522 599.934814,434.358917 
	C600.291199,434.893707 600.575867,435.148102 601.044861,435.646332 
	C602.335022,437.322388 603.440796,438.754578 604.653564,440.471832 
	C605.170776,441.176270 605.580994,441.595673 605.995605,442.007568 
	C606.000000,442.000000 605.984375,442.005676 606.042358,442.261780 
	C606.377563,442.714539 606.654724,442.911194 606.945374,443.058411 
	C606.958801,443.009003 606.886902,443.081909 606.943604,443.393127 
	C607.595947,444.278961 608.191650,444.853546 608.848816,445.677063 
	C609.242188,446.295380 609.574097,446.664795 609.978271,447.291504 
	C610.333923,447.747253 610.617188,447.945648 610.924438,448.093445 
	C610.948425,448.042816 610.851013,448.098053 610.917480,448.357117 
	C611.267578,448.810883 611.551270,449.005585 611.852722,449.141144 
	C611.870544,449.082001 611.768738,449.151978 611.814453,449.441223 
	C612.248779,450.140991 612.637329,450.551575 613.096924,451.193726 
	C613.329651,451.725342 613.572083,451.929230 613.968018,452.295349 
	C614.324707,452.752625 614.608765,452.951538 614.917297,453.097900 
	C614.941772,453.045319 614.842285,453.104919 614.899414,453.364258 
	C615.228455,453.828186 615.500427,454.032715 615.800171,454.146545 
	C615.828003,454.055817 615.716736,454.209564 615.765381,454.497742 
	C616.205383,455.197052 616.596619,455.608185 616.994995,456.009857 
	C617.002136,456.000427 616.980164,456.007324 617.036377,456.264832 
	C617.371460,456.718628 617.650330,456.914948 617.951782,457.069641 
	C617.974487,457.028046 617.886963,457.064453 617.959717,457.332764 
	C618.313110,457.831604 618.593872,458.062134 618.947998,458.554626 
	C619.393250,459.196350 619.764954,459.576141 620.176453,460.201172 
	C620.376343,460.765961 620.631226,460.963074 620.992065,461.019531 
	C621.003296,461.001190 620.962280,461.014160 620.981934,461.283295 
	C621.359131,461.918518 621.716675,462.284637 622.173096,462.812134 
	C622.271912,462.973541 622.600159,463.161865 622.689392,463.451050 
	C623.198914,464.141418 623.619202,464.542572 624.020142,464.969727 
	C624.000671,464.995728 624.060547,464.970673 624.115479,465.219269 
	C624.434265,465.667389 624.698181,465.866913 624.980469,466.037170 
	C624.998840,466.007904 624.934631,466.033508 624.995056,466.293304 
	C625.340393,466.746277 625.625305,466.939453 625.936096,467.086609 
	C625.961975,467.040619 625.865601,467.083710 625.943237,467.352539 
	C626.298157,467.861725 626.575500,468.102051 626.919250,468.598572 
	C627.341614,469.228882 627.697449,469.602997 628.102783,470.233948 
	C628.418091,470.704712 628.683838,470.918671 629.083435,471.436523 
	C634.219482,477.821991 639.221680,483.903595 644.254883,490.209778 
	C644.438293,490.727020 644.678223,490.894440 644.998413,490.966400 
	C644.991272,490.996155 645.052429,490.998596 645.100098,491.249115 
	C645.419495,491.686279 645.691162,491.872955 645.980469,492.031250 
	C645.998108,492.002869 645.940186,492.036011 646.006104,492.293945 
	C646.357239,492.741058 646.642456,492.930267 646.923706,493.070862 
	C646.919800,493.022278 646.866028,493.103668 646.914551,493.410583 
	C647.647339,494.459229 648.331543,495.200989 649.005066,495.969666 
	C648.994324,495.996643 649.052368,495.998291 649.100464,496.249023 
	C649.421997,496.684448 649.695374,496.869141 649.984314,497.027893 
	C649.999817,497.001953 649.946472,497.030365 650.016602,497.286255 
	C650.372986,497.728851 650.659241,497.915527 650.960266,498.062439 
	C650.975037,498.022644 650.896362,498.054443 650.965820,498.317627 
	C651.326660,498.771484 651.617981,498.962128 651.912415,499.106384 
	C651.915466,499.059998 651.825867,499.084808 651.861694,499.368896 
	C652.282654,500.045258 652.667786,500.437531 653.107666,501.091736 
	C653.429932,501.573669 653.697388,501.793640 654.026611,502.272583 
	C654.370789,502.727966 654.653137,502.924347 654.947571,503.080383 
	C654.959656,503.040070 654.877319,503.057587 654.945190,503.338715 
	C655.305298,503.858673 655.597656,504.097504 655.964294,504.550293 
	C656.038635,504.764282 656.377319,505.065155 656.387451,505.254883 
	C656.533936,505.693420 656.744019,505.815979 657.098755,506.079071 
	C657.452759,506.564789 657.735962,506.783783 658.078430,507.253967 
	C658.410034,507.696045 658.682434,507.886993 658.981689,508.061462 
	C659.008667,508.045013 658.945679,508.042419 658.997437,508.303833 
	C659.338989,508.741272 659.628784,508.917297 659.904358,509.056396 
	C659.890076,509.019501 659.834045,509.075409 659.866394,509.363129 
	C660.279175,510.053955 660.659668,510.457062 661.107544,511.120361 
	C661.454956,511.588989 661.734863,511.797424 662.077515,512.254700 
	C662.413574,512.690979 662.687012,512.878479 662.978333,513.034790 
	C662.996277,513.003662 662.933594,513.038940 662.998047,513.300537 
	C663.353271,513.748169 663.643921,513.934082 663.926025,514.072266 
	C663.917419,514.024536 663.875183,514.111938 663.942383,514.361206 
	C664.287720,514.794067 664.565918,514.977661 664.891724,515.079102 
	C664.939331,514.996887 664.815247,515.140808 664.866333,515.450562 
	C665.603760,516.520020 666.290161,517.279602 667.024292,518.274414 
	C667.219910,518.829468 667.468689,519.011780 667.916748,519.315552 
	C668.317993,519.764160 668.620728,519.953613 668.890198,520.133484 
	C668.856873,520.123840 668.829712,520.187683 668.895203,520.523010 
	C678.634521,532.902954 688.308350,544.947632 698.086914,557.313354 
	C700.543091,560.600952 702.839294,563.613464 705.259338,566.522827 
	C708.656677,570.607056 712.232300,574.486145 718.113525,575.283936 
	C718.494873,575.669312 718.746521,575.862000 718.988525,576.067322 
	C715.455688,585.775452 712.111023,595.558716 708.284302,605.149536 
	C707.007019,608.350647 704.496399,611.059631 701.886902,613.899536 
	C694.694763,606.029053 688.043396,598.351318 681.655884,590.460022 
	C643.822754,543.720520 606.075256,496.911713 568.193542,450.211670 
	C566.074158,447.598907 563.364319,444.828705 560.341797,443.686646 
	C538.276001,435.349182 516.080750,427.350677 493.845673,419.473114 
	C492.303833,418.926880 489.541901,419.607788 488.318390,420.754272 
	C482.244171,426.446136 476.287323,432.300110 470.755981,438.512634 
	C469.027100,440.454437 467.626129,443.866669 467.999542,446.311890 
	C470.558411,463.067719 473.535217,479.762787 476.620270,496.432495 
	C477.183258,499.474487 476.720825,501.245575 474.127136,503.091187 
	C457.986267,514.576599 441.995117,526.272034 425.907532,537.832825 
	C412.650848,547.359253 412.335388,548.601440 420.328217,562.880371 
	C420.403748,563.015259 420.581116,563.093201 420.781769,563.548218 
	C423.545380,568.958008 426.238159,574.017273 428.953583,579.042847 
	C428.976257,579.009033 428.896057,579.022766 428.863220,579.347290 
	C429.199890,580.139465 429.569336,580.607117 429.961182,581.042236 
	C429.983521,581.009766 429.906067,581.024231 429.871765,581.348755 
	C430.202881,582.139526 430.568268,582.605896 430.961609,583.042725 
	C430.989502,583.013184 430.909332,583.026184 430.871704,583.348267 
	C431.202057,584.136169 431.570007,584.601990 431.924255,585.038879 
	C431.910492,585.010010 431.890137,585.070618 431.885101,585.435608 
	C434.691376,591.545776 437.502686,597.291016 440.170410,603.352417 
	C437.910461,606.237061 435.723206,608.750732 433.688751,611.382507 
	C414.463806,636.252014 395.264832,661.141541 376.058411,686.025391 
z"/>
<path fill="#29CE65" opacity="1.000000" stroke="none" 
	d="
M395.263519,512.012573 
	C385.963318,494.551758 376.672577,477.085907 367.347137,459.638611 
	C366.495392,458.045074 365.421417,456.570343 363.892487,454.572327 
	C361.435181,453.747589 359.522247,453.022766 357.639099,453.093292 
	C344.055145,453.601746 330.470886,454.832001 316.899841,454.677887 
	C308.844971,454.586456 302.640259,455.678070 299.967072,464.215179 
	C299.728302,464.977722 299.119659,465.624451 298.682800,466.324951 
	C298.394989,465.862610 298.107178,465.400269 297.819397,464.937927 
	C300.990234,455.168976 303.415802,445.079132 307.460114,435.686279 
	C325.580750,393.601471 354.634888,360.723999 393.583130,336.189148 
	C409.202850,351.588135 424.311554,366.760834 439.383698,381.969818 
	C444.967896,387.604706 450.466156,393.324829 455.878906,399.315918 
	C450.893921,404.571533 445.975677,409.462006 441.190857,414.479767 
	C437.016510,418.857361 432.992584,423.378418 428.887878,427.859802 
	C428.873596,427.883545 428.884491,427.937836 428.655273,428.015076 
	C428.135986,428.282501 427.971344,428.549896 427.941528,428.924500 
	C427.950989,428.954437 427.892761,428.930908 427.662781,429.006592 
	C427.127777,429.258667 426.961273,429.522522 426.919495,429.890045 
	C426.905670,429.906311 426.871063,429.931305 426.639679,430.002502 
	C426.117340,430.265198 425.956177,430.534454 425.923523,430.923279 
	C425.922241,430.965210 425.881531,430.891876 425.595154,430.914551 
	C424.901184,431.302429 424.493561,431.667572 424.055786,432.027527 
	C424.025604,432.022308 424.033966,432.082947 423.732880,432.297760 
	C423.571991,434.408813 423.712219,436.305084 423.854858,438.630127 
	C425.664520,450.478546 427.315704,461.925964 429.339233,473.307159 
	C430.498444,479.827087 430.961487,486.067139 426.557190,491.971741 
	C422.619568,495.475769 419.160339,499.055420 415.251007,502.046844 
	C409.267426,506.625427 403.356354,511.572693 395.263519,512.012573 
z"/>
<path fill="#28CE65" opacity="1.000000" stroke="none" 
	d="
M389.110016,614.301453 
	C378.313080,628.520203 367.562134,642.774414 356.656677,656.909485 
	C355.397766,658.541138 353.279327,659.509644 351.021240,660.934570 
	C350.112122,661.123474 349.871277,661.321594 349.760529,661.677917 
	C349.760529,661.677917 349.702728,661.675903 349.673157,661.675659 
	C348.418030,660.984070 346.906403,660.552063 346.009308,659.562744 
	C328.604279,640.369385 314.746887,618.912720 305.253906,594.322266 
	C307.889313,591.083313 310.852783,588.690979 312.591980,585.607910 
	C322.194916,568.584717 331.457703,551.369995 340.931183,534.273010 
	C343.791473,529.110901 346.952179,524.115234 350.125732,519.357056 
	C359.772644,538.337402 369.351562,556.962585 378.735504,575.685486 
	C384.647858,587.481995 392.455048,598.766113 390.038849,613.103027 
	C390.038849,613.103027 390.009064,613.018250 389.788055,613.129822 
	C389.414703,613.594727 389.262360,613.948120 389.110016,614.301453 
z"/>
<path fill="#295A3D" opacity="1.000000" stroke="none" 
	d="
M719.324585,575.909485 
	C718.746521,575.862000 718.494873,575.669312 718.171814,574.885864 
	C720.068176,562.702759 723.068848,551.186890 723.785339,539.530701 
	C725.787781,506.955963 721.071350,475.335846 708.231445,445.053558 
	C693.966980,411.411743 672.133362,383.687714 643.796692,360.879089 
	C628.294800,348.401398 611.348816,338.403137 593.096497,330.436371 
	C570.807251,320.707642 547.490173,315.021179 523.394531,313.220581 
	C504.500061,311.808655 485.482758,312.707916 466.939667,317.158905 
	C456.489166,319.667419 446.183228,322.954498 436.061310,326.585449 
	C430.536011,328.567474 427.627594,335.356476 430.667908,338.659210 
	C436.117004,344.578583 442.501434,349.636963 448.636993,355.386353 
	C451.049164,358.114502 453.053589,360.857086 455.638641,362.844421 
	C463.725128,369.061157 469.027130,379.095764 480.285706,380.988373 
	C473.566254,387.455688 466.846832,393.923035 459.616882,400.684784 
	C458.406708,400.323517 457.707001,399.667816 457.155548,398.680573 
	C459.820679,394.027008 458.620422,390.602417 455.043152,387.419434 
	C451.699249,384.444061 448.673309,381.113098 445.479675,377.966827 
	C430.003479,362.720276 414.517975,347.483185 399.035797,332.242706 
	C423.396362,317.535736 449.637787,308.082123 477.796478,303.906769 
	C570.636597,290.140503 663.414612,341.296295 704.556763,421.362457 
	C729.201599,469.323334 734.675293,519.735229 721.068115,572.057617 
	C720.738525,573.325256 720.135864,574.521851 719.324585,575.909485 
z"/>
<path fill="#295C3E" opacity="1.000000" stroke="none" 
	d="
M420.710907,563.197754 
	C420.581116,563.093201 420.403748,563.015259 420.328217,562.880371 
	C412.335388,548.601440 412.650848,547.359253 425.907532,537.832825 
	C441.995117,526.272034 457.986267,514.576599 474.127136,503.091187 
	C476.720825,501.245575 477.183258,499.474487 476.620270,496.432495 
	C473.535217,479.762787 470.558411,463.067719 467.999542,446.311890 
	C467.626129,443.866669 469.027100,440.454437 470.755981,438.512634 
	C476.287323,432.300110 482.244171,426.446136 488.318390,420.754272 
	C489.541901,419.607788 492.303833,418.926880 493.845673,419.473114 
	C516.080750,427.350677 538.276001,435.349182 560.341797,443.686646 
	C563.364319,444.828705 566.074158,447.598907 568.193542,450.211670 
	C606.075256,496.911713 643.822754,543.720520 681.655884,590.460022 
	C688.043396,598.351318 694.694763,606.029053 701.521729,613.950134 
	C701.534851,616.000366 701.783447,618.213745 700.886963,619.765869 
	C684.641968,647.892151 663.197388,671.321228 636.443604,690.346863 
	C636.963379,688.976257 637.535339,687.200073 638.684631,685.958191 
	C652.787903,670.717773 667.053345,655.627136 681.115479,640.349304 
	C691.352112,629.227722 691.636292,617.641785 682.210022,605.835693 
	C664.829224,584.066833 647.511841,562.245422 629.896790,540.667297 
	C626.789124,536.860474 623.890442,531.950134 617.220581,531.654419 
	C616.006409,524.797729 612.745422,519.522034 608.773499,514.582275 
	C602.977417,507.374084 597.261963,500.098999 591.360596,492.978027 
	C586.326721,486.903839 581.079163,481.006805 575.926208,474.682220 
	C570.710327,468.142120 565.540894,461.910767 560.234680,455.798157 
	C559.298950,454.720245 557.891357,453.863556 556.532654,453.369568 
	C536.578674,446.115692 516.622314,438.865021 496.572754,431.882904 
	C494.872803,431.290924 491.907684,431.954376 490.551666,433.171997 
	C485.235870,437.945282 480.173767,443.033325 475.372498,448.326538 
	C474.042877,449.792419 473.105652,452.502319 473.405640,454.419800 
	C476.162048,472.037659 479.284821,489.598053 482.102936,507.206818 
	C482.324341,508.590393 481.507843,510.819458 480.413605,511.632355 
	C463.790833,523.981384 447.077728,536.210266 430.297302,548.344849 
	C425.643829,551.709900 420.785736,554.709839 421.783691,561.639832 
	C421.849701,562.098145 421.087738,562.675659 420.710907,563.197754 
z"/>
<path fill="#295B3E" opacity="1.000000" stroke="none" 
	d="
M390.341949,612.949524 
	C392.455048,598.766113 384.647858,587.481995 378.735504,575.685486 
	C369.351562,556.962585 359.772644,538.337402 350.012451,519.023315 
	C346.133209,511.819031 342.517670,505.262268 338.260223,497.541351 
	C336.541534,500.427765 335.677765,501.772705 334.916443,503.173340 
	C326.590698,518.490417 318.188354,533.767151 310.004791,549.160034 
	C305.728241,557.204041 301.844025,565.456543 297.782623,573.614929 
	C296.716919,568.313232 295.651215,563.011475 294.679047,557.333496 
	C306.516327,535.192017 318.465424,513.533203 329.844360,491.578796 
	C332.360077,486.724976 335.862762,487.582001 339.698639,487.109528 
	C343.520660,486.638672 344.563263,489.182526 345.843658,491.685394 
	C363.606506,526.407104 381.333557,561.147278 399.161377,595.835632 
	C400.380402,598.207458 400.533997,599.899719 398.732666,602.049194 
	C395.856903,605.480713 393.323303,609.198975 390.341949,612.949524 
z"/>
<path fill="#309055" opacity="1.000000" stroke="none" 
	d="
M297.755554,573.970947 
	C301.844025,565.456543 305.728241,557.204041 310.004791,549.160034 
	C318.188354,533.767151 326.590698,518.490417 334.916443,503.173340 
	C335.677765,501.772705 336.541534,500.427765 338.260223,497.541351 
	C342.517670,505.262268 346.133209,511.819031 349.862000,518.709595 
	C346.952179,524.115234 343.791473,529.110901 340.931183,534.273010 
	C331.457703,551.369995 322.194916,568.584717 312.591980,585.607910 
	C310.852783,588.690979 307.889313,591.083313 305.189575,593.962402 
	C302.501556,587.529114 300.115021,580.928101 297.755554,573.970947 
z"/>
<path fill="#2A5A40" opacity="1.000000" stroke="none" 
	d="
M376.110840,686.359802 
	C395.264832,661.141541 414.463806,636.252014 433.688751,611.382507 
	C435.723206,608.750732 437.910461,606.237061 440.432190,603.364502 
	C441.185516,603.055786 441.533569,603.051147 442.043060,603.364258 
	C446.915039,607.844116 443.468658,612.448792 442.921539,616.896179 
	C436.350616,625.359680 429.749847,633.800293 423.215149,642.291687 
	C411.027039,658.129272 398.872955,673.993042 386.724762,689.861267 
	C386.126404,690.642822 385.718658,691.570251 385.093994,692.752197 
	C382.031616,690.947815 379.097443,688.821045 376.110840,686.359802 
z"/>
<path fill="#2B8E51" opacity="1.000000" stroke="none" 
	d="
M398.728088,332.319977 
	C414.517975,347.483185 430.003479,362.720276 445.479675,377.966827 
	C448.673309,381.113098 451.699249,384.444061 455.043152,387.419434 
	C458.620422,390.602417 459.820679,394.027008 456.904572,398.678528 
	C456.338104,399.007416 456.170868,399.006744 456.003601,399.006104 
	C450.466156,393.324829 444.967896,387.604706 439.383698,381.969818 
	C424.311554,366.760834 409.202850,351.588135 393.912720,336.104462 
	C395.284668,334.670990 396.852509,333.534119 398.728088,332.319977 
z"/>
<path fill="#266847" opacity="1.000000" stroke="none" 
	d="
M297.592682,465.215515 
	C298.107178,465.400269 298.394989,465.862610 298.682800,466.324951 
	C299.119659,465.624451 299.728302,464.977722 299.967072,464.215179 
	C302.640259,455.678070 308.844971,454.586456 316.899841,454.677887 
	C330.470886,454.832001 344.055145,453.601746 357.639099,453.093292 
	C359.522247,453.022766 361.435181,453.747589 363.584290,454.371521 
	C347.691620,455.279205 331.552490,456.064697 315.403778,456.455658 
	C311.485657,456.550507 309.571198,458.012726 307.894104,461.382538 
	C303.012268,471.191803 297.753876,480.813629 292.352417,490.659851 
	C293.829834,482.371521 295.597900,473.932312 297.592682,465.215515 
z"/>
<path fill="#28CF65" opacity="1.000000" stroke="none" 
	d="
M442.965515,617.323364 
	C443.468658,612.448792 446.915039,607.844116 442.055695,602.999390 
	C439.566559,597.468506 437.309448,592.576965 434.824310,587.804138 
	C434.242523,586.686646 432.888733,585.971069 431.890137,585.070618 
	C431.890137,585.070618 431.910492,585.010010 431.965210,584.715576 
	C431.649719,583.956177 431.279541,583.491150 430.909363,583.026184 
	C430.909332,583.026184 430.989502,583.013184 431.003174,582.718140 
	C430.646545,581.956787 430.276306,581.490540 429.906067,581.024231 
	C429.906067,581.024231 429.983521,581.009766 429.988708,580.719971 
	C429.627930,579.960999 429.261993,579.491882 428.896057,579.022766 
	C428.896057,579.022766 428.976257,579.009033 429.012268,578.673584 
	C430.151825,576.824158 430.967163,574.923157 432.402252,573.854492 
	C452.609650,558.806396 472.870605,543.829468 493.201294,528.948364 
	C496.832764,526.290283 498.430603,522.833496 497.900848,518.640747 
	C495.829346,502.246002 493.698547,485.854950 491.250366,469.513397 
	C490.283447,463.059235 491.593353,457.739685 496.312042,453.211670 
	C500.695496,449.005371 505.420776,450.506042 510.188873,452.182037 
	C528.979614,458.786835 547.763550,465.411133 566.560120,471.999237 
	C569.656067,473.084320 572.802856,474.024323 575.926147,475.031372 
	C581.079163,481.006805 586.326721,486.903839 591.360596,492.978027 
	C597.261963,500.098999 602.977417,507.374084 608.773499,514.582275 
	C612.745422,519.522034 616.006409,524.797729 616.831848,531.648376 
	C609.339539,551.782593 602.013306,571.701050 593.957458,591.319946 
	C583.296814,617.282837 571.858093,642.926086 561.174072,668.879700 
	C556.464539,680.320129 544.895203,682.844116 534.039062,680.082947 
	C531.367920,679.403625 528.864868,678.063477 525.647156,676.771057 
	C528.268250,672.220337 530.988647,668.278931 532.932556,663.986023 
	C541.019714,646.126465 549.005981,628.218506 556.778381,610.219910 
	C566.652466,587.354736 575.162964,563.859314 588.270203,542.509277 
	C590.460876,538.940857 590.129456,536.448486 587.055542,533.381897 
	C576.287292,522.639038 562.640259,517.541138 548.591980,513.273438 
	C547.008179,512.792297 543.981140,514.108643 542.842529,515.552734 
	C521.289062,542.887817 499.944977,570.387817 478.496063,597.805542 
	C471.754822,606.422729 465.098877,615.132629 457.874969,623.334229 
	C454.705383,626.932800 450.210510,629.364014 445.163879,633.202759 
	C444.304138,627.036194 443.656830,622.393372 442.965515,617.323364 
z"/>
<path fill="#2AAB3F" opacity="1.000000" stroke="none" 
	d="
M448.494934,355.055206 
	C442.501434,349.636963 436.117004,344.578583 430.667908,338.659210 
	C427.627594,335.356476 430.536011,328.567474 436.061310,326.585449 
	C446.183228,322.954498 456.489166,319.667419 466.939667,317.158905 
	C485.482758,312.707916 504.500061,311.808655 523.394531,313.220581 
	C547.490173,315.021179 570.807251,320.707642 593.096497,330.436371 
	C611.348816,338.403137 628.294800,348.401398 643.796692,360.879089 
	C672.133362,383.687714 693.966980,411.411743 708.231445,445.053558 
	C721.071350,475.335846 725.787781,506.955963 723.785339,539.530701 
	C723.068848,551.186890 720.068176,562.702759 718.051758,574.680725 
	C712.232300,574.486145 708.656677,570.607056 705.259338,566.522827 
	C702.839294,563.613464 700.543091,560.600952 698.266357,556.953369 
	C701.357727,540.652954 701.738525,524.896301 699.679321,509.195068 
	C698.435669,499.711914 695.935120,490.393616 693.973938,480.615234 
	C691.341675,473.139923 688.734863,466.050568 686.071045,458.603088 
	C684.706360,455.485779 683.398682,452.726532 682.045105,449.673584 
	C681.690979,448.906982 681.382751,448.434082 681.030029,447.633667 
	C680.353149,446.194000 679.720764,445.081879 679.039062,443.648224 
	C678.349426,442.495819 677.708984,441.664917 677.035461,440.482056 
	C673.394592,434.233185 670.286499,427.947510 666.068542,422.525299 
	C658.716614,413.074707 650.680725,404.156219 642.792603,394.712402 
	C637.178955,389.899689 631.704224,385.389282 626.031982,380.596924 
	C622.111511,377.596893 618.618408,374.465332 614.620361,372.241760 
	C604.531982,366.631012 594.216125,361.429077 583.668335,355.908691 
	C571.051941,350.051727 558.417297,345.388794 544.552612,343.085266 
	C542.475891,342.865204 540.827637,342.747803 539.187866,342.557587 
	C529.361328,341.417480 519.537292,339.354370 509.711304,339.348419 
	C498.479828,339.341583 487.198944,340.797791 476.029236,342.290009 
	C465.662537,343.674957 455.116333,345.308289 448.494934,355.055206 
z"/>
<path fill="#328C54" opacity="1.000000" stroke="none" 
	d="
M575.926208,474.682220 
	C572.802856,474.024323 569.656067,473.084320 566.560120,471.999237 
	C547.763550,465.411133 528.979614,458.786835 510.188873,452.182037 
	C505.420776,450.506042 500.695496,449.005371 496.312042,453.211670 
	C491.593353,457.739685 490.283447,463.059235 491.250366,469.513397 
	C493.698547,485.854950 495.829346,502.246002 497.900848,518.640747 
	C498.430603,522.833496 496.832764,526.290283 493.201294,528.948364 
	C472.870605,543.829468 452.609650,558.806396 432.402252,573.854492 
	C430.967163,574.923157 430.151825,576.824158 428.989594,578.707336 
	C426.238159,574.017273 423.545380,568.958008 420.781769,563.548218 
	C421.087738,562.675659 421.849701,562.098145 421.783691,561.639832 
	C420.785736,554.709839 425.643829,551.709900 430.297302,548.344849 
	C447.077728,536.210266 463.790833,523.981384 480.413605,511.632355 
	C481.507843,510.819458 482.324341,508.590393 482.102936,507.206818 
	C479.284821,489.598053 476.162048,472.037659 473.405640,454.419800 
	C473.105652,452.502319 474.042877,449.792419 475.372498,448.326538 
	C480.173767,443.033325 485.235870,437.945282 490.551666,433.171997 
	C491.907684,431.954376 494.872803,431.290924 496.572754,431.882904 
	C516.622314,438.865021 536.578674,446.115692 556.532654,453.369568 
	C557.891357,453.863556 559.298950,454.720245 560.234680,455.798157 
	C565.540894,461.910767 570.710327,468.142120 575.926208,474.682220 
z"/>
<path fill="#44DB8B" opacity="1.000000" stroke="none" 
	d="
M658.019165,507.002777 
	C657.735962,506.783783 657.452759,506.564789 657.023438,505.927429 
	C656.753235,505.313110 656.586548,505.165161 656.377319,505.065155 
	C656.377319,505.065155 656.038635,504.764282 655.905823,504.261780 
	C655.474487,503.525391 655.175903,503.291473 654.877319,503.057556 
	C654.877319,503.057587 654.959656,503.040070 654.869080,502.831909 
	C654.507263,502.420380 654.236023,502.217010 653.964783,502.013611 
	C653.697388,501.793640 653.429932,501.573669 653.067078,500.803894 
	C652.589722,499.864349 652.207825,499.474579 651.825867,499.084808 
	C651.825867,499.084808 651.915466,499.059998 651.837036,498.848999 
	C651.471191,498.443481 651.183777,498.248962 650.896362,498.054443 
	C650.896362,498.054443 650.975037,498.022644 650.874878,497.817627 
	C650.498657,497.418549 650.222595,497.224457 649.946472,497.030365 
	C649.946472,497.030365 649.999817,497.001953 649.901489,496.798248 
	C649.625183,496.304779 649.374939,496.106018 649.052368,495.998291 
	C649.052368,495.998291 648.994324,495.996643 648.998901,495.613770 
	C648.290955,494.521851 647.578491,493.812744 646.866028,493.103668 
	C646.866028,493.103668 646.919800,493.022278 646.844482,492.822632 
	C646.492859,492.427338 646.216492,492.231689 645.940186,492.036011 
	C645.940186,492.036011 645.998108,492.002869 645.900085,491.800354 
	C645.625732,491.306061 645.375854,491.106323 645.052429,490.998596 
	C645.052429,490.998596 644.991272,490.996155 644.918457,490.770691 
	C644.694092,490.296631 644.486877,490.109985 644.223877,489.985199 
	C639.221680,483.903595 634.219482,477.821991 629.023926,471.183716 
	C628.571594,470.410400 628.312439,470.193756 628.053345,469.977142 
	C627.697449,469.602997 627.341614,469.228882 626.877991,468.307007 
	C626.468689,467.534088 626.167175,467.308899 625.865601,467.083710 
	C625.865601,467.083710 625.961975,467.040619 625.868042,466.831726 
	C625.494324,466.426392 625.214478,466.229950 624.934631,466.033508 
	C624.934631,466.033508 624.998840,466.007904 624.914551,465.794617 
	C624.573669,465.377747 624.317139,465.174194 624.060547,464.970673 
	C624.060547,464.970673 624.000671,464.995728 623.982178,464.650421 
	C623.509216,463.924011 623.054688,463.542938 622.600159,463.161865 
	C622.600159,463.161865 622.271912,462.973541 622.139587,462.549683 
	C621.658936,461.755249 621.310608,461.384705 620.962280,461.014160 
	C620.962280,461.014160 621.003296,461.001190 620.929932,460.785950 
	C620.697754,460.270782 620.457764,460.065857 620.136719,459.955933 
	C619.764954,459.576141 619.393250,459.196350 618.898499,458.271729 
	C618.479309,457.506073 618.183167,457.285248 617.886963,457.064453 
	C617.886963,457.064453 617.974487,457.028046 617.883911,456.819031 
	C617.522339,456.409149 617.251221,456.208221 616.980164,456.007324 
	C616.980164,456.007324 617.002136,456.000427 616.984497,455.694489 
	C616.550171,454.995544 616.133423,454.602570 615.716736,454.209564 
	C615.716736,454.209564 615.828003,454.055817 615.773438,453.871979 
	C615.426697,453.493713 615.134521,453.299316 614.842285,453.104919 
	C614.842285,453.104919 614.941772,453.045319 614.853088,452.834839 
	C614.474731,452.428589 614.185059,452.232788 613.895386,452.036987 
	C613.572083,451.929230 613.329651,451.725342 613.077332,450.885742 
	C612.580627,449.948090 612.174683,449.550049 611.768738,449.151978 
	C611.768738,449.151978 611.870544,449.082001 611.803650,448.872131 
	C611.441528,448.474213 611.146240,448.286133 610.851013,448.098053 
	C610.851013,448.098053 610.948425,448.042816 610.858154,447.832550 
	C610.480530,447.426270 610.193298,447.230225 609.906006,447.034210 
	C609.574097,446.664795 609.242188,446.295380 608.883911,445.308655 
	C608.200684,444.154877 607.543762,443.618378 606.886902,443.081909 
	C606.886902,443.081909 606.958801,443.009003 606.879639,442.806915 
	C606.528381,442.405121 606.256409,442.205383 605.984375,442.005676 
	C605.984375,442.005676 606.000000,442.000000 605.973511,441.675537 
	C605.480164,440.962982 605.013428,440.574890 604.546631,440.186798 
	C603.440796,438.754578 602.335022,437.322388 600.999939,435.346771 
	C600.468140,434.561737 600.165588,434.320129 599.863037,434.078522 
	C599.863037,434.078522 599.956421,434.050446 599.861328,433.840607 
	C599.486023,433.436615 599.205750,433.242462 598.925537,433.048279 
	C598.925537,433.048279 598.994751,433.004364 598.895996,432.801025 
	C598.616760,432.296936 598.357727,432.098846 598.020142,432.003510 
	C597.747009,431.786194 597.473816,431.568878 597.091064,430.805481 
	C596.604065,429.865356 596.226685,429.471283 595.849243,429.077209 
	C595.849243,429.077209 595.890015,429.019501 595.943115,428.779083 
	C596.000488,428.360321 596.004639,428.181976 596.329285,427.976685 
	C597.433228,427.299408 598.216614,426.649109 599.408630,425.999390 
	C601.513184,426.470764 603.184265,427.190399 604.909973,427.362549 
	C609.007019,427.771362 613.704285,429.312561 617.128540,427.899353 
	C625.510071,424.440216 633.304749,419.585571 642.666626,418.877228 
	C644.697693,418.723541 646.870544,417.540527 648.692078,417.990173 
	C660.928284,421.010681 666.616638,431.221588 671.637573,441.112000 
	C677.077576,451.828217 671.601440,462.148560 667.246521,471.983063 
	C665.607422,475.684662 662.687439,478.808105 660.447021,482.257233 
	C657.742920,486.420227 657.505310,490.628113 659.022644,495.528717 
	C660.224731,499.411102 659.733521,503.817810 659.731689,507.997253 
	C659.294739,508.016022 659.120178,508.029236 658.945679,508.042419 
	C658.945679,508.042419 659.008667,508.045013 658.901672,507.824280 
	C658.613342,507.303680 658.354797,507.103424 658.019165,507.002777 
z"/>
<path fill="#61E199" opacity="1.000000" stroke="none" 
	d="
M448.636993,355.386353 
	C455.116333,345.308289 465.662537,343.674957 476.029236,342.290009 
	C487.198944,340.797791 498.479828,339.341583 509.711304,339.348419 
	C519.537292,339.354370 529.361328,341.417480 539.187866,342.557587 
	C540.827637,342.747803 542.475891,342.865204 544.511719,343.420593 
	C541.852417,346.705109 538.785156,349.568176 535.755859,352.470703 
	C533.175415,354.943085 530.773376,357.619415 528.057617,359.929382 
	C519.449158,367.251770 510.730682,374.444824 502.174713,381.587708 
	C503.211426,383.689240 504.056488,385.402252 504.901520,387.115265 
	C498.783936,385.064362 492.697937,382.909790 486.528625,381.028625 
	C484.785156,380.496979 482.798004,380.764679 480.604156,380.827057 
	C469.027130,379.095764 463.725128,369.061157 455.638641,362.844421 
	C453.053589,360.857086 451.049164,358.114502 448.636993,355.386353 
z"/>
<path fill="#53DE93" opacity="1.000000" stroke="none" 
	d="
M583.991455,356.063354 
	C594.216125,361.429077 604.531982,366.631012 614.620361,372.241760 
	C618.618408,374.465332 622.111511,377.596893 625.697510,380.757812 
	C622.301819,383.373505 618.383240,384.988922 615.954529,387.863190 
	C613.044312,391.307190 609.952148,393.768158 605.741150,395.191254 
	C603.741821,395.866943 601.994568,397.272766 600.109192,398.304108 
	C595.396667,400.881927 590.918640,404.384460 585.872742,405.702515 
	C581.700562,406.792389 580.218506,407.583191 582.014099,411.671661 
	C582.473938,412.718811 582.678711,413.877960 583.000732,414.985657 
	C571.871643,411.110535 560.742554,407.235413 549.242432,402.808502 
	C545.449768,401.218994 542.028259,400.181244 538.606689,399.143463 
	C538.606689,399.143463 538.283936,399.196472 537.947571,398.844299 
	C536.976013,398.367645 536.340759,398.243195 535.705566,398.118713 
	C535.705566,398.118713 535.329346,398.138824 535.125977,397.694000 
	C530.854858,391.072357 531.102234,390.496582 538.483337,389.090240 
	C539.132935,388.966461 539.833252,389.075256 540.468079,388.912659 
	C544.587036,387.857452 549.407837,387.764709 552.658386,385.463501 
	C559.623535,380.532532 564.891602,373.291718 573.539856,370.548065 
	C574.854004,370.131195 576.256714,368.267395 576.598633,366.830200 
	C577.698364,362.208130 580.395874,358.872925 583.991455,356.063354 
z"/>
<path fill="#5AE097" opacity="1.000000" stroke="none" 
	d="
M583.668335,355.908691 
	C580.395874,358.872925 577.698364,362.208130 576.598633,366.830200 
	C576.256714,368.267395 574.854004,370.131195 573.539856,370.548065 
	C564.891602,373.291718 559.623535,380.532532 552.658386,385.463501 
	C549.407837,387.764709 544.587036,387.857452 540.468079,388.912659 
	C539.833252,389.075256 539.132935,388.966461 538.483337,389.090240 
	C531.102234,390.496582 530.854858,391.072357 534.962158,397.600952 
	C528.830688,395.838165 522.659790,393.723602 516.085449,391.025024 
	C513.042236,389.658875 510.402344,388.876801 507.762451,388.094727 
	C507.762451,388.094727 507.345215,388.097412 506.978088,387.768555 
	C506.044037,387.316864 505.477142,387.194000 504.910217,387.071136 
	C504.910217,387.071136 504.930969,387.087738 504.916260,387.101501 
	C504.056488,385.402252 503.211426,383.689240 502.174713,381.587708 
	C510.730682,374.444824 519.449158,367.251770 528.057617,359.929382 
	C530.773376,357.619415 533.175415,354.943085 535.755859,352.470703 
	C538.785156,349.568176 541.852417,346.705109 544.944092,343.489655 
	C558.417297,345.388794 571.051941,350.051727 583.668335,355.908691 
z"/>
<path fill="#49DD8E" opacity="1.000000" stroke="none" 
	d="
M583.001831,414.994690 
	C582.678711,413.877960 582.473938,412.718811 582.014099,411.671661 
	C580.218506,407.583191 581.700562,406.792389 585.872742,405.702515 
	C590.918640,404.384460 595.396667,400.881927 600.109192,398.304108 
	C601.994568,397.272766 603.741821,395.866943 605.741150,395.191254 
	C609.952148,393.768158 613.044312,391.307190 615.954529,387.863190 
	C618.383240,384.988922 622.301819,383.373505 625.895020,381.039703 
	C631.704224,385.389282 637.178955,389.899689 642.374512,394.707520 
	C640.732483,395.934204 638.555542,396.610596 638.172363,397.844177 
	C637.309265,400.622559 637.541138,403.720337 636.935547,406.605865 
	C636.408203,409.118652 636.075684,412.451721 634.373901,413.787262 
	C629.905090,417.294403 625.013977,420.636078 619.756775,422.645721 
	C615.702148,424.195618 610.817444,423.472809 606.341431,424.061523 
	C603.852417,424.388885 601.444458,425.332733 599.000000,425.998779 
	C598.216614,426.649109 597.433228,427.299408 596.064941,427.976440 
	C595.304321,428.014160 595.128662,428.025146 594.953003,428.036102 
	C594.953003,428.036102 595.002136,428.055084 594.897217,427.829529 
	C594.610168,427.304565 594.351379,427.104340 594.015869,427.003265 
	C593.741577,426.786743 593.467346,426.570251 593.080444,425.805664 
	C592.581055,424.870941 592.194153,424.484283 591.807312,424.097595 
	C591.807312,424.097595 591.903564,424.068756 591.825806,423.857513 
	C591.453918,423.454224 591.159851,423.262177 590.865784,423.070129 
	C590.865784,423.070129 590.949036,423.046600 590.857178,422.836487 
	C590.481384,422.431122 590.197449,422.235870 589.913574,422.040619 
	C589.913574,422.040619 589.986023,422.013977 589.887390,421.810486 
	C589.523682,421.407501 589.258606,421.207947 588.993469,421.008423 
	C588.993469,421.008423 589.000000,421.000000 588.906494,420.783051 
	C588.634644,420.289734 588.390930,420.095062 588.081909,419.982147 
	C588.081909,419.982147 588.010803,419.988800 587.914551,419.754089 
	C587.639771,419.269470 587.407166,419.089569 587.120422,418.979645 
	C586.184692,418.107971 585.248901,417.236298 584.043701,415.895813 
	C583.567078,415.206177 583.315613,415.063721 583.019653,414.999603 
	C583.019653,414.999603 583.002930,415.003723 583.001831,414.994690 
z"/>
<path fill="#48DE8D" opacity="1.000000" stroke="none" 
	d="
M599.408630,425.999359 
	C601.444458,425.332733 603.852417,424.388885 606.341431,424.061523 
	C610.817444,423.472809 615.702148,424.195618 619.756775,422.645721 
	C625.013977,420.636078 629.905090,417.294403 634.373901,413.787262 
	C636.075684,412.451721 636.408203,409.118652 636.935547,406.605865 
	C637.541138,403.720337 637.309265,400.622559 638.172363,397.844177 
	C638.555542,396.610596 640.732483,395.934204 642.513367,395.009766 
	C650.680725,404.156219 658.716614,413.074707 666.068542,422.525299 
	C670.286499,427.947510 673.394592,434.233185 677.017212,440.858246 
	C677.717529,442.380859 678.402893,443.175323 679.088379,443.969788 
	C679.720764,445.081879 680.353149,446.194000 680.787964,447.806793 
	C681.090576,448.860748 681.590820,449.414032 682.091064,449.967316 
	C683.398682,452.726532 684.706360,455.485779 685.704712,458.669891 
	C685.475220,463.516052 685.569702,467.937134 685.628906,472.358673 
	C685.661438,474.785004 685.634705,477.212158 685.634705,480.154236 
	C677.091492,476.549042 674.097839,477.682770 670.577026,484.875153 
	C669.705872,486.654877 669.292664,488.786194 668.058533,490.236420 
	C664.637695,494.256317 665.058533,499.115143 666.805176,502.888184 
	C668.977234,507.580231 669.119629,510.840759 664.708496,514.008667 
	C664.244568,514.057068 664.059875,514.084534 663.875183,514.111938 
	C663.875183,514.111938 663.917419,514.024536 663.842407,513.824707 
	C663.489441,513.429565 663.211548,513.234253 662.933594,513.038940 
	C662.933594,513.038940 662.996277,513.003662 662.892761,512.801392 
	C662.605164,512.304688 662.347046,512.106934 662.014771,512.005859 
	C661.734863,511.797424 661.454956,511.588989 661.068970,510.829956 
	C660.586609,509.878021 660.210327,509.476715 659.834045,509.075409 
	C659.834045,509.075409 659.890076,509.019501 659.938721,508.781189 
	C659.989685,508.359161 659.991943,508.175446 659.994141,507.991699 
	C659.733521,503.817810 660.224731,499.411102 659.022644,495.528717 
	C657.505310,490.628113 657.742920,486.420227 660.447021,482.257233 
	C662.687439,478.808105 665.607422,475.684662 667.246521,471.983063 
	C671.601440,462.148560 677.077576,451.828217 671.637573,441.112000 
	C666.616638,431.221588 660.928284,421.010681 648.692078,417.990173 
	C646.870544,417.540527 644.697693,418.723541 642.666626,418.877228 
	C633.304749,419.585571 625.510071,424.440216 617.128540,427.899353 
	C613.704285,429.312561 609.007019,427.771362 604.909973,427.362549 
	C603.184265,427.190399 601.513184,426.470764 599.408630,425.999359 
z"/>
<path fill="#4DDD90" opacity="1.000000" stroke="none" 
	d="
M693.999329,481.001221 
	C695.935120,490.393616 698.435669,499.711914 699.679321,509.195068 
	C701.738525,524.896301 701.357727,540.652954 698.161621,556.632263 
	C688.308350,544.947632 678.634521,532.902954 669.304932,520.463867 
	C674.635315,520.085815 674.898071,516.589783 675.007874,512.924377 
	C675.168091,507.581696 675.492615,502.412628 682.195007,500.783264 
	C683.630432,500.434326 685.297424,499.080627 685.932190,497.748657 
	C688.175964,493.040466 689.974182,488.121887 692.052063,483.331055 
	C692.438293,482.440460 693.337036,481.772125 693.999329,481.001221 
z"/>
<path fill="#49DD8E" opacity="1.000000" stroke="none" 
	d="
M693.973938,480.615234 
	C693.337036,481.772125 692.438293,482.440460 692.052063,483.331055 
	C689.974182,488.121887 688.175964,493.040466 685.932190,497.748657 
	C685.297424,499.080627 683.630432,500.434326 682.195007,500.783264 
	C675.492615,502.412628 675.168091,507.581696 675.007874,512.924377 
	C674.898071,516.589783 674.635315,520.085815 669.239502,520.128540 
	C668.829712,520.187683 668.856873,520.123840 668.796692,519.872559 
	C668.430420,519.432983 668.124329,519.244690 667.818237,519.056458 
	C667.468689,519.011780 667.219910,518.829468 667.028076,517.907410 
	C666.261169,516.583801 665.538208,515.862305 664.815247,515.140808 
	C664.815247,515.140808 664.939331,514.996887 664.944763,514.787231 
	C664.962708,514.381042 664.975281,514.184387 664.987793,513.987793 
	C669.119629,510.840759 668.977234,507.580231 666.805176,502.888184 
	C665.058533,499.115143 664.637695,494.256317 668.058533,490.236420 
	C669.292664,488.786194 669.705872,486.654877 670.577026,484.875153 
	C674.097839,477.682770 677.091492,476.549042 685.634705,480.154236 
	C685.634705,477.212158 685.661438,474.785004 685.628906,472.358673 
	C685.569702,467.937134 685.475220,463.516052 685.761780,459.028015 
	C688.734863,466.050568 691.341675,473.139923 693.973938,480.615234 
z"/>
<path fill="#255C3E" opacity="1.000000" stroke="none" 
	d="
M426.833954,491.783875 
	C430.961487,486.067139 430.498444,479.827087 429.339233,473.307159 
	C427.315704,461.925964 425.664520,450.478546 423.903198,438.187012 
	C423.977417,435.571075 424.005676,433.827026 424.033966,432.082947 
	C424.033966,432.082947 424.025604,432.022308 424.342529,431.993164 
	C425.066833,431.606659 425.474182,431.249268 425.881531,430.891876 
	C425.881531,430.891876 425.922241,430.965210 426.153931,430.849640 
	C426.678070,430.545532 426.839874,430.277924 426.871063,429.931305 
	C426.871063,429.931305 426.905670,429.906311 427.149780,429.817078 
	C427.684723,429.540192 427.851013,429.274536 427.892761,428.930908 
	C427.892761,428.930908 427.950989,428.954437 428.169861,428.845581 
	C428.676819,428.546631 428.842072,428.280365 428.884491,427.937836 
	C428.884491,427.937836 428.873596,427.883545 429.370667,427.917419 
	C430.830475,428.055908 431.793213,428.160492 432.755920,428.265076 
	C432.668427,428.436829 432.580902,428.608582 432.012329,428.990387 
	C431.261047,429.388550 431.082214,429.641357 430.994873,429.958862 
	C432.106018,437.986359 433.062073,446.039154 434.367859,454.034851 
	C435.974396,463.871887 437.953613,473.648132 439.543152,483.487610 
	C439.743561,484.728119 438.926697,486.609253 437.946594,487.476013 
	C434.840851,490.222626 431.434265,492.629059 427.678467,494.825562 
	C427.086578,493.584015 426.960266,492.683960 426.833954,491.783875 
z"/>
<path fill="#2A6E46" opacity="1.000000" stroke="none" 
	d="
M433.031647,428.128296 
	C431.793213,428.160492 430.830475,428.055908 429.384979,427.893677 
	C432.992584,423.378418 437.016510,418.857361 441.190857,414.479767 
	C445.975677,409.462006 450.893921,404.571533 455.878906,399.315918 
	C456.170868,399.006744 456.338104,399.007416 456.756348,399.010071 
	C457.707001,399.667816 458.406708,400.323517 459.442566,400.987549 
	C450.954956,409.994415 442.131165,418.992950 433.031647,428.128296 
z"/>
<path fill="#257941" opacity="1.000000" stroke="none" 
	d="
M426.557190,491.971741 
	C426.960266,492.683960 427.086578,493.584015 427.356750,494.916077 
	C427.500610,495.348053 427.455872,495.318390 427.095978,495.360291 
	C426.523834,495.785339 426.311584,496.168488 426.099304,496.551636 
	C420.260925,500.998322 414.524292,505.588745 408.537537,509.825806 
	C405.884583,511.703430 402.825226,513.160156 399.745270,514.201416 
	C398.600494,514.588501 396.869781,513.242493 395.334900,512.349670 
	C403.356354,511.572693 409.267426,506.625427 415.251007,502.046844 
	C419.160339,499.055420 422.619568,495.475769 426.557190,491.971741 
z"/>
<path fill="#328C54" opacity="1.000000" stroke="none" 
	d="
M431.885101,585.435608 
	C432.888733,585.971069 434.242523,586.686646 434.824310,587.804138 
	C437.309448,592.576965 439.566559,597.468506 441.894226,602.681641 
	C441.533569,603.051147 441.185516,603.055786 440.575745,603.048340 
	C437.502686,597.291016 434.691376,591.545776 431.885101,585.435608 
z"/>
<path fill="#5AE097" opacity="1.000000" stroke="none" 
	d="
M538.877869,399.403503 
	C542.028259,400.181244 545.449768,401.218994 548.936035,402.612671 
	C545.716858,401.866882 542.432983,400.765198 538.877869,399.403503 
z"/>
<path fill="#61E199" opacity="1.000000" stroke="none" 
	d="
M508.016479,388.359131 
	C510.402344,388.876801 513.042236,389.658875 515.825684,390.780975 
	C513.402954,390.288483 510.836700,389.455994 508.016479,388.359131 
z"/>
<path fill="#4DDD90" opacity="1.000000" stroke="none" 
	d="
M646.914551,493.410583 
	C647.578491,493.812744 648.290955,494.521851 649.009644,495.586823 
	C648.331543,495.200989 647.647339,494.459229 646.914551,493.410583 
z"/>
<path fill="#4DDD90" opacity="1.000000" stroke="none" 
	d="
M664.866333,515.450562 
	C665.538208,515.862305 666.261169,516.583801 666.980347,517.672241 
	C666.290161,517.279602 665.603760,516.520020 664.866333,515.450562 
z"/>
<path fill="#67D598" opacity="1.000000" stroke="none" 
	d="
M606.943604,443.393127 
	C607.543762,443.618378 608.200684,444.154877 608.822449,445.059753 
	C608.191650,444.853546 607.595947,444.278961 606.943604,443.393127 
z"/>
<path fill="#67D598" opacity="1.000000" stroke="none" 
	d="
M620.981934,461.283295 
	C621.310608,461.384705 621.658936,461.755249 622.040771,462.388275 
	C621.716675,462.284637 621.359131,461.918518 620.981934,461.283295 
z"/>
<path fill="#67D598" opacity="1.000000" stroke="none" 
	d="
M622.689392,463.451050 
	C623.054688,463.542938 623.509216,463.924011 624.001648,464.624390 
	C623.619202,464.542572 623.198914,464.141418 622.689392,463.451050 
z"/>
<path fill="#4DDD90" opacity="1.000000" stroke="none" 
	d="
M651.861694,499.368896 
	C652.207825,499.474579 652.589722,499.864349 653.012329,500.541962 
	C652.667786,500.437531 652.282654,500.045258 651.861694,499.368896 
z"/>
<path fill="#67D598" opacity="1.000000" stroke="none" 
	d="
M615.765381,454.497742 
	C616.133423,454.602570 616.550171,454.995544 616.977417,455.703918 
	C616.596619,455.608185 616.205383,455.197052 615.765381,454.497742 
z"/>
<path fill="#328C54" opacity="1.000000" stroke="none" 
	d="
M430.871704,583.348267 
	C431.279541,583.491150 431.649719,583.956177 431.978943,584.744507 
	C431.570007,584.601990 431.202057,584.136169 430.871704,583.348267 
z"/>
<path fill="#5AE097" opacity="1.000000" stroke="none" 
	d="
M535.922607,398.362152 
	C536.340759,398.243195 536.976013,398.367645 537.808777,398.757874 
	C537.384094,398.884247 536.761902,398.744904 535.922607,398.362152 
z"/>
<path fill="#328C54" opacity="1.000000" stroke="none" 
	d="
M429.871765,581.348755 
	C430.276306,581.490540 430.646545,581.956787 430.975250,582.747681 
	C430.568268,582.605896 430.202881,582.139526 429.871765,581.348755 
z"/>
<path fill="#67D598" opacity="1.000000" stroke="none" 
	d="
M611.814453,449.441223 
	C612.174683,449.550049 612.580627,449.948090 613.006226,450.654175 
	C612.637329,450.551575 612.248779,450.140991 611.814453,449.441223 
z"/>
<path fill="#4DDD90" opacity="1.000000" stroke="none" 
	d="
M659.866394,509.363129 
	C660.210327,509.476715 660.586609,509.878021 661.001526,510.569763 
	C660.659668,510.457062 660.279175,510.053955 659.866394,509.363129 
z"/>
<path fill="#67D598" opacity="1.000000" stroke="none" 
	d="
M604.653564,440.471832 
	C605.013428,440.574890 605.480164,440.962982 605.969055,441.683105 
	C605.580994,441.595673 605.170776,441.176270 604.653564,440.471832 
z"/>
<path fill="#328C54" opacity="1.000000" stroke="none" 
	d="
M428.863220,579.347290 
	C429.261993,579.491882 429.627930,579.960999 429.966339,580.752441 
	C429.569336,580.607117 429.199890,580.139465 428.863220,579.347290 
z"/>
<path fill="#53DE93" opacity="1.000000" stroke="none" 
	d="
M591.848633,424.380402 
	C592.194153,424.484283 592.581055,424.870941 593.009399,425.546692 
	C592.663879,425.444916 592.276978,425.054047 591.848633,424.380402 
z"/>
<path fill="#53DE93" opacity="1.000000" stroke="none" 
	d="
M595.884521,429.361450 
	C596.226685,429.471283 596.604065,429.865356 597.017822,430.547852 
	C596.676086,430.439423 596.297913,430.042572 595.884521,429.361450 
z"/>
<path fill="#61E199" opacity="1.000000" stroke="none" 
	d="
M505.089844,387.309082 
	C505.477142,387.194000 506.044037,387.316864 506.792603,387.673065 
	C506.405975,387.786621 505.837708,387.666809 505.089844,387.309082 
z"/>
<path fill="#67D598" opacity="1.000000" stroke="none" 
	d="
M620.176453,460.201172 
	C620.457764,460.065857 620.697754,460.270782 620.918701,460.804260 
	C620.631226,460.963074 620.376343,460.765961 620.176453,460.201172 
z"/>
<path fill="#4DDD90" opacity="1.000000" stroke="none" 
	d="
M658.078430,507.253967 
	C658.354797,507.103424 658.613342,507.303680 658.874756,507.840729 
	C658.682434,507.886993 658.410034,507.696045 658.078430,507.253967 
z"/>
<path fill="#255C3E" opacity="1.000000" stroke="none" 
	d="
M426.391876,496.419067 
	C426.311584,496.168488 426.523834,495.785339 427.072266,495.347717 
	C427.167084,495.624329 426.925751,495.955444 426.391876,496.419067 
z"/>
<path fill="#4DDD90" opacity="1.000000" stroke="none" 
	d="
M667.916748,519.315552 
	C668.124329,519.244690 668.430420,519.432983 668.830017,519.882202 
	C668.620728,519.953613 668.317993,519.764160 667.916748,519.315552 
z"/>
<path fill="#DEDEDD" opacity="1.000000" stroke="none" 
	d="
M350.002930,661.716309 
	C349.871277,661.321594 350.112122,661.123474 350.726868,661.114563 
	C350.831879,661.471191 350.590088,661.674194 350.002930,661.716309 
z"/>
<path fill="#4DDD90" opacity="1.000000" stroke="none" 
	d="
M649.100464,496.249023 
	C649.374939,496.106018 649.625183,496.304779 649.885986,496.824188 
	C649.695374,496.869141 649.421997,496.684448 649.100464,496.249023 
z"/>
<path fill="#4DDD90" opacity="1.000000" stroke="none" 
	d="
M650.016602,497.286255 
	C650.222595,497.224457 650.498657,497.418549 650.860107,497.857422 
	C650.659241,497.915527 650.372986,497.728851 650.016602,497.286255 
z"/>
<path fill="#4DDD90" opacity="1.000000" stroke="none" 
	d="
M650.965820,498.317627 
	C651.183777,498.248962 651.471191,498.443481 651.833984,498.895386 
	C651.617981,498.962128 651.326660,498.771484 650.965820,498.317627 
z"/>
<path fill="#295B3E" opacity="1.000000" stroke="none" 
	d="
M389.373688,614.174316 
	C389.262360,613.948120 389.414703,613.594727 389.831207,613.117310 
	C389.942688,613.344604 389.790009,613.695923 389.373688,614.174316 
z"/>
<path fill="#4DDD90" opacity="1.000000" stroke="none" 
	d="
M664.708496,514.008667 
	C664.975281,514.184387 664.962708,514.381042 664.897095,514.869446 
	C664.565918,514.977661 664.287720,514.794067 663.942383,514.361206 
	C664.059875,514.084534 664.244568,514.057068 664.708496,514.008667 
z"/>
<path fill="#4DDD90" opacity="1.000000" stroke="none" 
	d="
M654.026611,502.272614 
	C654.236023,502.217010 654.507263,502.420380 654.856995,502.872253 
	C654.653137,502.924347 654.370789,502.727966 654.026611,502.272614 
z"/>
<path fill="#4DDD90" opacity="1.000000" stroke="none" 
	d="
M662.998047,513.300537 
	C663.211548,513.234253 663.489441,513.429565 663.851013,513.872437 
	C663.643921,513.934082 663.353271,513.748169 662.998047,513.300537 
z"/>
<path fill="#4DDD90" opacity="1.000000" stroke="none" 
	d="
M654.945190,503.338684 
	C655.175903,503.291473 655.474487,503.525391 655.831482,504.047821 
	C655.597656,504.097504 655.305298,503.858673 654.945190,503.338684 
z"/>
<path fill="#4DDD90" opacity="1.000000" stroke="none" 
	d="
M662.077515,512.254700 
	C662.347046,512.106934 662.605164,512.304688 662.874817,512.832520 
	C662.687012,512.878479 662.413574,512.690979 662.077515,512.254700 
z"/>
<path fill="#4DDD90" opacity="1.000000" stroke="none" 
	d="
M656.387451,505.254883 
	C656.586548,505.165161 656.753235,505.313110 656.952637,505.660706 
	C656.744019,505.815979 656.533936,505.693420 656.387451,505.254883 
z"/>
<path fill="#4DDD90" opacity="1.000000" stroke="none" 
	d="
M659.731689,507.997253 
	C659.991943,508.175446 659.989685,508.359161 659.953003,508.818115 
	C659.628784,508.917297 659.338989,508.741272 658.997437,508.303833 
	C659.120178,508.029236 659.294739,508.016022 659.731689,507.997253 
z"/>
<path fill="#53DE93" opacity="1.000000" stroke="none" 
	d="
M599.934814,434.358917 
	C600.165588,434.320129 600.468140,434.561737 600.815613,435.102936 
	C600.575867,435.148102 600.291199,434.893707 599.934814,434.358917 
z"/>
<path fill="#53DE93" opacity="1.000000" stroke="none" 
	d="
M583.114014,415.212158 
	C583.315613,415.063721 583.567078,415.206177 583.899292,415.606445 
	C583.682983,415.822449 583.410950,415.702087 583.114014,415.212158 
z"/>
<path fill="#53DE93" opacity="1.000000" stroke="none" 
	d="
M587.168579,419.215393 
	C587.407166,419.089569 587.639771,419.269470 587.918152,419.718567 
	C587.664490,419.910522 587.397400,419.755005 587.168579,419.215393 
z"/>
<path fill="#53DE93" opacity="1.000000" stroke="none" 
	d="
M588.142029,420.221313 
	C588.390930,420.095062 588.634644,420.289734 588.902405,420.786102 
	C588.642029,420.949432 588.378784,420.767548 588.142029,420.221313 
z"/>
<path fill="#53DE93" opacity="1.000000" stroke="none" 
	d="
M589.054077,421.263672 
	C589.258606,421.207947 589.523682,421.407501 589.873657,421.846558 
	C589.677307,421.897064 589.395996,421.708008 589.054077,421.263672 
z"/>
<path fill="#53DE93" opacity="1.000000" stroke="none" 
	d="
M589.987671,422.298676 
	C590.197449,422.235870 590.481384,422.431122 590.847778,422.878723 
	C590.640747,422.939606 590.351257,422.748169 589.987671,422.298676 
z"/>
<path fill="#53DE93" opacity="1.000000" stroke="none" 
	d="
M590.936646,423.334961 
	C591.159851,423.262177 591.453918,423.454224 591.822754,423.907654 
	C591.600830,423.979309 591.304199,423.789551 590.936646,423.334961 
z"/>
<path fill="#53DE93" opacity="1.000000" stroke="none" 
	d="
M594.077454,427.252930 
	C594.351379,427.104340 594.610168,427.304565 594.873413,427.840881 
	C594.682678,427.886078 594.410889,427.694366 594.077454,427.252930 
z"/>
<path fill="#53DE93" opacity="1.000000" stroke="none" 
	d="
M595.003662,428.298889 
	C595.128662,428.025146 595.304321,428.014160 595.744385,428.003418 
	C596.004639,428.181976 596.000488,428.360321 595.965576,428.806366 
	C595.641357,428.903259 595.347839,428.732483 595.003662,428.298889 
z"/>
<path fill="#2A6E46" opacity="1.000000" stroke="none" 
	d="
M431.238953,429.902771 
	C431.082214,429.641357 431.261047,429.388550 431.747925,429.107361 
	C431.804016,429.291748 431.643524,429.569214 431.238953,429.902771 
z"/>
<path fill="#53DE93" opacity="1.000000" stroke="none" 
	d="
M598.076599,432.254150 
	C598.357727,432.098846 598.616760,432.296936 598.873779,432.835449 
	C598.677856,432.883759 598.405457,432.694275 598.076599,432.254150 
z"/>
<path fill="#53DE93" opacity="1.000000" stroke="none" 
	d="
M598.985962,433.309998 
	C599.205750,433.242462 599.486023,433.436615 599.838745,433.883820 
	C599.623047,433.948486 599.334717,433.760101 598.985962,433.309998 
z"/>
<path fill="#4DDD90" opacity="1.000000" stroke="none" 
	d="
M646.006104,492.293945 
	C646.216492,492.231689 646.492859,492.427338 646.848389,492.871216 
	C646.642456,492.930267 646.357239,492.741058 646.006104,492.293945 
z"/>
<path fill="#67D598" opacity="1.000000" stroke="none" 
	d="
M606.042358,442.261780 
	C606.256409,442.205383 606.528381,442.405121 606.866211,442.856323 
	C606.654724,442.911194 606.377563,442.714539 606.042358,442.261780 
z"/>
<path fill="#67D598" opacity="1.000000" stroke="none" 
	d="
M609.978271,447.291504 
	C610.193298,447.230225 610.480530,447.426270 610.834167,447.883179 
	C610.617188,447.945648 610.333923,447.747253 609.978271,447.291504 
z"/>
<path fill="#67D598" opacity="1.000000" stroke="none" 
	d="
M610.917480,448.357117 
	C611.146240,448.286133 611.441528,448.474213 611.785828,448.931274 
	C611.551270,449.005585 611.267578,448.810883 610.917480,448.357117 
z"/>
<path fill="#67D598" opacity="1.000000" stroke="none" 
	d="
M613.968018,452.295349 
	C614.185059,452.232788 614.474731,452.428589 614.828613,452.887421 
	C614.608765,452.951538 614.324707,452.752625 613.968018,452.295349 
z"/>
<path fill="#67D598" opacity="1.000000" stroke="none" 
	d="
M614.899414,453.364258 
	C615.134521,453.299316 615.426697,453.493713 615.745605,453.962708 
	C615.500427,454.032715 615.228455,453.828186 614.899414,453.364258 
z"/>
<path fill="#67D598" opacity="1.000000" stroke="none" 
	d="
M617.036377,456.264832 
	C617.251221,456.208221 617.522339,456.409149 617.861267,456.860657 
	C617.650330,456.914948 617.371460,456.718628 617.036377,456.264832 
z"/>
<path fill="#67D598" opacity="1.000000" stroke="none" 
	d="
M617.959717,457.332764 
	C618.183167,457.285248 618.479309,457.506073 618.825073,458.009766 
	C618.593872,458.062134 618.313110,457.831604 617.959717,457.332764 
z"/>
<path fill="#67D598" opacity="1.000000" stroke="none" 
	d="
M624.115479,465.219269 
	C624.317139,465.174194 624.573669,465.377747 624.896118,465.823853 
	C624.698181,465.866913 624.434265,465.667389 624.115479,465.219269 
z"/>
<path fill="#67D598" opacity="1.000000" stroke="none" 
	d="
M624.995056,466.293304 
	C625.214478,466.229950 625.494324,466.426392 625.842163,466.877747 
	C625.625305,466.939453 625.340393,466.746277 624.995056,466.293304 
z"/>
<path fill="#67D598" opacity="1.000000" stroke="none" 
	d="
M625.943237,467.352539 
	C626.167175,467.308899 626.468689,467.534088 626.811523,468.050842 
	C626.575500,468.102051 626.298157,467.861725 625.943237,467.352539 
z"/>
<path fill="#67D598" opacity="1.000000" stroke="none" 
	d="
M628.102783,470.233948 
	C628.312439,470.193756 628.571594,470.410400 628.890137,470.879822 
	C628.683838,470.918671 628.418091,470.704712 628.102783,470.233948 
z"/>
<path fill="#4DDD90" opacity="1.000000" stroke="none" 
	d="
M644.254883,490.209778 
	C644.486877,490.109985 644.694092,490.296631 644.925598,490.740906 
	C644.678223,490.894440 644.438293,490.727020 644.254883,490.209778 
z"/>
<path fill="#4DDD90" opacity="1.000000" stroke="none" 
	d="
M645.100098,491.249115 
	C645.375854,491.106323 645.625732,491.306061 645.882446,491.828735 
	C645.691162,491.872955 645.419495,491.686279 645.100098,491.249115 
z"/>
<path fill="#2A6E46" opacity="1.000000" stroke="none" 
	d="
M423.732880,432.297760 
	C424.005676,433.827026 423.977417,435.571075 423.900757,437.758240 
	C423.712219,436.305084 423.571991,434.408813 423.732880,432.297760 
z"/>
<path fill="#2A6E46" opacity="1.000000" stroke="none" 
	d="
M425.595154,430.914551 
	C425.474182,431.249268 425.066833,431.606659 424.372711,431.998383 
	C424.493561,431.667572 424.901184,431.302429 425.595154,430.914551 
z"/>
<path fill="#2A6E46" opacity="1.000000" stroke="none" 
	d="
M428.655273,428.015076 
	C428.842072,428.280365 428.676819,428.546631 428.160400,428.815613 
	C427.971344,428.549896 428.135986,428.282501 428.655273,428.015076 
z"/>
<path fill="#2A6E46" opacity="1.000000" stroke="none" 
	d="
M427.662781,429.006592 
	C427.851013,429.274536 427.684723,429.540192 427.163574,429.800842 
	C426.961273,429.522522 427.127777,429.258667 427.662781,429.006592 
z"/>
<path fill="#2A6E46" opacity="1.000000" stroke="none" 
	d="
M426.639679,430.002502 
	C426.839874,430.277924 426.678070,430.545532 426.155212,430.807739 
	C425.956177,430.534454 426.117340,430.265198 426.639679,430.002502 
z"/>
<path fill="#49DD8E" opacity="1.000000" stroke="none" 
	d="
M679.039062,443.648254 
	C678.402893,443.175323 677.717529,442.380859 677.050415,441.210205 
	C677.708984,441.664917 678.349426,442.495819 679.039062,443.648254 
z"/>
<path fill="#49DD8E" opacity="1.000000" stroke="none" 
	d="
M682.045105,449.673584 
	C681.590820,449.414032 681.090576,448.860748 680.832458,448.134338 
	C681.382751,448.434082 681.690979,448.906982 682.045105,449.673584 
z"/>
</svg>